<svg width="437" height="50" viewBox="0 0 437 50" fill="none" xmlns="http://www.w3.org/2000/svg">
<g clip-path="url(#clip0_49_13)">
<path d="M44.744 48.808H34.248V11.496H11.976V49H1.47998V1H44.744V48.808ZM85.602 30.184H64.226V49H53.73V1H85.602C87.6073 1 89.4847 1.384 91.234 2.152C93.026 2.92 94.5833 3.96533 95.906 5.288C97.2287 6.61067 98.274 8.168 99.042 9.96C99.81 11.7093 100.194 13.5867 100.194 15.592C100.194 17.5973 99.81 19.496 99.042 21.288C98.274 23.0373 97.2287 24.5733 95.906 25.896C94.5833 27.2187 93.026 28.264 91.234 29.032C89.4847 29.8 87.6073 30.184 85.602 30.184ZM64.226 11.432V19.816H89.826V11.432H64.226ZM157.711 1V49H147.151V4.52H146.319L128.463 49H107.855V1H118.415V45.48H119.311L137.167 1H157.711ZM213.26 1V11.56H177.932V49H166.668V1H213.26ZM238.178 1C241.506 1 244.62 1.64 247.522 2.92C250.423 4.15733 252.962 5.864 255.138 8.04C257.314 10.216 259.02 12.7547 260.258 15.656C261.538 18.5573 262.178 21.672 262.178 25C262.178 28.328 261.538 31.4427 260.258 34.344C259.02 37.2453 257.314 39.784 255.138 41.96C252.962 44.136 250.423 45.864 247.522 47.144C244.62 48.3813 241.506 49 238.178 49C234.85 49 231.735 48.3813 228.833 47.144C225.932 45.864 223.394 44.136 221.218 41.96C219.042 39.784 217.314 37.2453 216.034 34.344C214.796 31.4427 214.178 28.328 214.178 25C214.178 21.672 214.796 18.5573 216.034 15.656C217.314 12.7547 219.042 10.216 221.218 8.04C223.394 5.864 225.932 4.15733 228.833 2.92C231.735 1.64 234.85 1 238.178 1ZM251.81 11.368H224.546V38.632H251.81V11.368ZM300.79 30.184H279.414V49H268.918V1H300.79C302.795 1 304.672 1.384 306.422 2.152C308.214 2.92 309.771 3.96533 311.094 5.288C312.416 6.61067 313.462 8.168 314.23 9.96C314.998 11.7093 315.382 13.5867 315.382 15.592C315.382 17.5973 314.998 19.496 314.23 21.288C313.462 23.0373 312.416 24.5733 311.094 25.896C309.771 27.2187 308.214 28.264 306.422 29.032C304.672 29.8 302.795 30.184 300.79 30.184ZM279.414 11.432V19.816H305.014V11.432H279.414ZM344.803 1C348.131 1 351.245 1.64 354.147 2.92C357.048 4.15733 359.587 5.864 361.763 8.04C363.939 10.216 365.645 12.7547 366.883 15.656C368.163 18.5573 368.803 21.672 368.803 25C368.803 28.328 368.163 31.4427 366.883 34.344C365.645 37.2453 363.939 39.784 361.763 41.96C359.587 44.136 357.048 45.864 354.147 47.144C351.245 48.3813 348.131 49 344.803 49C341.475 49 338.36 48.3813 335.458 47.144C332.557 45.864 330.019 44.136 327.843 41.96C325.667 39.784 323.939 37.2453 322.659 34.344C321.421 31.4427 320.803 28.328 320.803 25C320.803 21.672 321.421 18.5573 322.659 15.656C323.939 12.7547 325.667 10.216 327.843 8.04C330.019 5.864 332.557 4.15733 335.458 2.92C338.36 1.64 341.475 1 344.803 1ZM358.435 11.368H331.171V38.632H358.435V11.368ZM392.675 1H411.747L426.787 38.44H435.491V49H368.803V38.44H377.635L392.675 1ZM416.227 38.44L402.595 4.52H401.826L388.195 38.44H416.227Z" fill="white"/>
<mask id="mask0_49_13" style="mask-type:luminance" maskUnits="userSpaceOnUse" x="0" y="0" width="437" height="50">
<path d="M437 0H0V50H437V0Z" fill="white"/>
<path d="M44.744 48.808H34.248V11.496H11.976V49H1.47998V1H44.744V48.808ZM85.602 30.184H64.226V49H53.73V1H85.602C87.6073 1 89.4847 1.384 91.234 2.152C93.026 2.92 94.5833 3.96533 95.906 5.288C97.2287 6.61067 98.274 8.168 99.042 9.96C99.81 11.7093 100.194 13.5867 100.194 15.592C100.194 17.5973 99.81 19.496 99.042 21.288C98.274 23.0373 97.2287 24.5733 95.906 25.896C94.5833 27.2187 93.026 28.264 91.234 29.032C89.4847 29.8 87.6073 30.184 85.602 30.184ZM64.226 11.432V19.816H89.826V11.432H64.226ZM157.711 1V49H147.151V4.52H146.319L128.463 49H107.855V1H118.415V45.48H119.311L137.167 1H157.711ZM213.26 1V11.56H177.932V49H166.668V1H213.26ZM238.178 1C241.506 1 244.62 1.64 247.522 2.92C250.423 4.15733 252.962 5.864 255.138 8.04C257.314 10.216 259.02 12.7547 260.258 15.656C261.538 18.5573 262.178 21.672 262.178 25C262.178 28.328 261.538 31.4427 260.258 34.344C259.02 37.2453 257.314 39.784 255.138 41.96C252.962 44.136 250.423 45.864 247.522 47.144C244.62 48.3813 241.506 49 238.178 49C234.85 49 231.735 48.3813 228.833 47.144C225.932 45.864 223.394 44.136 221.218 41.96C219.042 39.784 217.314 37.2453 216.034 34.344C214.796 31.4427 214.178 28.328 214.178 25C214.178 21.672 214.796 18.5573 216.034 15.656C217.314 12.7547 219.042 10.216 221.218 8.04C223.394 5.864 225.932 4.15733 228.833 2.92C231.735 1.64 234.85 1 238.178 1ZM251.81 11.368H224.546V38.632H251.81V11.368ZM300.79 30.184H279.414V49H268.918V1H300.79C302.795 1 304.672 1.384 306.422 2.152C308.214 2.92 309.771 3.96533 311.094 5.288C312.416 6.61067 313.462 8.168 314.23 9.96C314.998 11.7093 315.382 13.5867 315.382 15.592C315.382 17.5973 314.998 19.496 314.23 21.288C313.462 23.0373 312.416 24.5733 311.094 25.896C309.771 27.2187 308.214 28.264 306.422 29.032C304.672 29.8 302.795 30.184 300.79 30.184ZM279.414 11.432V19.816H305.014V11.432H279.414ZM344.803 1C348.131 1 351.245 1.64 354.147 2.92C357.048 4.15733 359.587 5.864 361.763 8.04C363.939 10.216 365.645 12.7547 366.883 15.656C368.163 18.5573 368.803 21.672 368.803 25C368.803 28.328 368.163 31.4427 366.883 34.344C365.645 37.2453 363.939 39.784 361.763 41.96C359.587 44.136 357.048 45.864 354.147 47.144C351.245 48.3813 348.131 49 344.803 49C341.475 49 338.36 48.3813 335.458 47.144C332.557 45.864 330.019 44.136 327.843 41.96C325.667 39.784 323.939 37.2453 322.659 34.344C321.421 31.4427 320.803 28.328 320.803 25C320.803 21.672 321.421 18.5573 322.659 15.656C323.939 12.7547 325.667 10.216 327.843 8.04C330.019 5.864 332.557 4.15733 335.458 2.92C338.36 1.64 341.475 1 344.803 1ZM358.435 11.368H331.171V38.632H358.435V11.368ZM392.675 1H411.747L426.787 38.44H435.491V49H368.803V38.44H377.635L392.675 1ZM416.227 38.44L402.595 4.52H401.826L388.195 38.44H416.227Z" fill="black"/>
</mask>
<g mask="url(#mask0_49_13)">
<path d="M44.744 48.808V49.808H45.744V48.808H44.744ZM34.248 48.808H33.248V49.808H34.248V48.808ZM34.248 11.496H35.248V10.496H34.248V11.496ZM11.976 11.496V10.496H10.976V11.496H11.976ZM11.976 49V50H12.976V49H11.976ZM1.47998 49H0.47998V50H1.47998V49ZM1.47998 1V0H0.47998V1H1.47998ZM44.744 1H45.744V0H44.744V1ZM44.744 47.808H34.248V49.808H44.744V47.808ZM35.248 48.808V11.496H33.248V48.808H35.248ZM34.248 10.496H11.976V12.496H34.248V10.496ZM10.976 11.496V49H12.976V11.496H10.976ZM11.976 48H1.47998V50H11.976V48ZM2.47998 49V1H0.47998V49H2.47998ZM1.47998 2H44.744V0H1.47998V2ZM43.744 1V48.808H45.744V1H43.744ZM64.226 30.184V29.184H63.226V30.184H64.226ZM64.226 49V50H65.226V49H64.226ZM53.73 49H52.73V50H53.73V49ZM53.73 1V0H52.73V1H53.73ZM91.234 2.152L90.832 3.06768L90.8401 3.07114L91.234 2.152ZM99.042 9.96L98.1228 10.3539L98.1264 10.362L99.042 9.96ZM99.042 21.288L99.9577 21.69L99.9611 21.6819L99.042 21.288ZM91.234 29.032L90.8401 28.1128L90.832 28.1164L91.234 29.032ZM64.226 11.432V10.432H63.226V11.432H64.226ZM64.226 19.816H63.226V20.816H64.226V19.816ZM89.826 19.816V20.816H90.826V19.816H89.826ZM89.826 11.432H90.826V10.432H89.826V11.432ZM85.602 29.184H64.226V31.184H85.602V29.184ZM63.226 30.184V49H65.226V30.184H63.226ZM64.226 48H53.73V50H64.226V48ZM54.73 49V1H52.73V49H54.73ZM53.73 2H85.602V0H53.73V2ZM85.602 2C87.476 2 89.2157 2.35806 90.832 3.06768L91.636 1.23635C89.7537 0.409975 87.7387 0 85.602 0V2ZM90.8401 3.07114C92.5202 3.79118 93.97 4.76618 95.1989 5.9951L96.6131 4.58089C95.1967 3.16448 93.5318 2.04881 91.6279 1.23285L90.8401 3.07114ZM95.1989 5.9951C96.4278 7.22403 97.4027 8.67382 98.1228 10.3539L99.9611 9.56608C99.1452 7.66218 98.0295 5.99731 96.6131 4.58089L95.1989 5.9951ZM98.1264 10.362C98.836 11.9783 99.194 13.718 99.194 15.592H101.194C101.194 13.4553 100.784 11.4403 99.9576 9.55801L98.1264 10.362ZM99.194 15.592C99.194 17.4659 98.836 19.2301 98.1229 20.8941L99.9611 21.6819C100.784 19.7619 101.194 17.7288 101.194 15.592H99.194ZM98.1264 20.886C97.4072 22.524 96.4318 23.956 95.1989 25.1889L96.6131 26.6031C98.0255 25.1907 99.1409 23.5506 99.9577 21.69L98.1264 20.886ZM95.1989 25.1889C93.97 26.4178 92.5202 27.3927 90.8401 28.1128L91.6279 29.9511C93.5318 29.1352 95.1967 28.0195 96.6131 26.6031L95.1989 25.1889ZM90.832 28.1164C89.2157 28.826 87.476 29.184 85.602 29.184V31.184C87.7387 31.184 89.7537 30.774 91.636 29.9476L90.832 28.1164ZM63.226 11.432V19.816H65.226V11.432H63.226ZM64.226 20.816H89.826V18.816H64.226V20.816ZM90.826 19.816V11.432H88.826V19.816H90.826ZM89.826 10.432H64.226V12.432H89.826V10.432ZM157.711 1H158.711V0H157.711V1ZM157.711 49V50H158.711V49H157.711ZM147.151 49H146.151V50H147.151V49ZM147.151 4.52H148.151V3.52H147.151V4.52ZM146.319 4.52V3.52H145.643L145.391 4.14746L146.319 4.52ZM128.463 49V50H129.139L129.391 49.3725L128.463 49ZM107.855 49H106.855V50H107.855V49ZM107.855 1V0H106.855V1H107.855ZM118.415 1H119.415V0H118.415V1ZM118.415 45.48H117.415V46.48H118.415V45.48ZM119.311 45.48V46.48H119.987L120.239 45.8525L119.311 45.48ZM137.167 1V0H136.491L136.239 0.627459L137.167 1ZM156.711 1V49H158.711V1H156.711ZM157.711 48H147.151V50H157.711V48ZM148.151 49V4.52H146.151V49H148.151ZM147.151 3.52H146.319V5.52H147.151V3.52ZM145.391 4.14746L127.535 48.6275L129.391 49.3725L147.247 4.89254L145.391 4.14746ZM128.463 48H107.855V50H128.463V48ZM108.855 49V1H106.855V49H108.855ZM107.855 2H118.415V0H107.855V2ZM117.415 1V45.48H119.415V1H117.415ZM118.415 46.48H119.311V44.48H118.415V46.48ZM120.239 45.8525L138.095 1.37254L136.239 0.627459L118.383 45.1075L120.239 45.8525ZM137.167 2H157.711V0H137.167V2ZM213.26 1H214.26V0H213.26V1ZM213.26 11.56V12.56H214.26V11.56H213.26ZM177.932 11.56V10.56H176.932V11.56H177.932ZM177.932 49V50H178.932V49H177.932ZM166.668 49H165.668V50H166.668V49ZM166.668 1V0H165.668V1H166.668ZM212.26 1V11.56H214.26V1H212.26ZM213.26 10.56H177.932V12.56H213.26V10.56ZM176.932 11.56V49H178.932V11.56H176.932ZM177.932 48H166.668V50H177.932V48ZM167.668 49V1H165.668V49H167.668ZM166.668 2H213.26V0H166.668V2ZM247.522 2.92L247.118 3.83499L247.129 3.83984L247.522 2.92ZM260.258 15.656L259.338 16.0483L259.343 16.0596L260.258 15.656ZM260.258 34.344L259.343 33.9403L259.338 33.9517L260.258 34.344ZM247.522 47.144L247.914 48.0639L247.925 48.0589L247.522 47.144ZM228.833 47.144L228.43 48.059L228.441 48.0638L228.833 47.144ZM216.034 34.344L215.114 34.7363L215.119 34.7476L216.034 34.344ZM216.034 15.656L215.119 15.2523L215.114 15.2637L216.034 15.656ZM228.833 2.92L229.226 3.83991L229.237 3.83492L228.833 2.92ZM251.81 11.368H252.81V10.368H251.81V11.368ZM224.546 11.368V10.368H223.546V11.368H224.546ZM224.546 38.632H223.546V39.632H224.546V38.632ZM251.81 38.632V39.632H252.81V38.632H251.81ZM238.178 2C241.374 2 244.35 2.61385 247.118 3.83499L247.925 2.00508C244.89 0.666214 241.637 0 238.178 0V2ZM247.129 3.83984C249.916 5.02831 252.347 6.66376 254.43 8.7471L255.845 7.33289C253.576 5.06423 250.93 3.28635 247.914 2.00015L247.129 3.83984ZM254.43 8.7471C256.514 10.8304 258.149 13.2615 259.338 16.0483L261.177 15.2637C259.891 12.2478 258.113 9.60155 255.845 7.33289L254.43 8.7471ZM259.343 16.0596C260.564 18.8275 261.178 21.804 261.178 25H263.178C263.178 21.54 262.511 18.2871 261.172 15.2524L259.343 16.0596ZM261.178 25C261.178 28.196 260.564 31.1724 259.343 33.9403L261.172 34.7476C262.511 31.7129 263.178 28.46 263.178 25H261.178ZM259.338 33.9517C258.149 36.7385 256.514 39.1695 254.43 41.2529L255.845 42.6671C258.113 40.3984 259.891 37.7522 261.177 34.7363L259.338 33.9517ZM254.43 41.2529C252.345 43.3388 249.91 44.9974 247.118 46.2291L247.925 48.0589C250.936 46.7306 253.578 44.9332 255.845 42.6671L254.43 41.2529ZM247.129 46.2242C244.359 47.4057 241.378 48 238.178 48V50C241.633 50 244.882 49.3571 247.914 48.0639L247.129 46.2242ZM238.178 48C234.977 48 231.996 47.4057 229.226 46.2242L228.441 48.0638C231.473 49.357 234.722 50 238.178 50V48ZM229.237 46.2291C226.445 44.9974 224.01 43.3388 221.925 41.2529L220.51 42.6671C222.777 44.9332 225.419 46.7307 228.43 48.059L229.237 46.2291ZM221.925 41.2529C219.839 39.167 218.18 36.7321 216.948 33.9404L215.119 34.7476C216.447 37.7586 218.244 40.401 220.51 42.6671L221.925 41.2529ZM216.953 33.9517C215.772 31.1812 215.178 28.2007 215.178 25H213.178C213.178 28.4553 213.821 31.7042 215.114 34.7363L216.953 33.9517ZM215.178 25C215.178 21.7993 215.772 18.8188 216.953 16.0483L215.114 15.2637C213.821 18.2958 213.178 21.5447 213.178 25H215.178ZM216.948 16.0596C218.18 13.2679 219.839 10.833 221.925 8.7471L220.51 7.33289C218.244 9.599 216.447 12.2413 215.119 15.2523L216.948 16.0596ZM221.925 8.7471C224.008 6.66376 226.439 5.02838 229.226 3.83991L228.441 2.00015C225.425 3.28635 222.779 5.06423 220.51 7.33289L221.925 8.7471ZM229.237 3.83492C232.005 2.61378 234.981 2 238.178 2V0C234.718 0 231.465 0.666214 228.43 2.00508L229.237 3.83492ZM251.81 10.368H224.546V12.368H251.81V10.368ZM223.546 11.368V38.632H225.546V11.368H223.546ZM224.546 39.632H251.81V37.632H224.546V39.632ZM252.81 38.632V11.368H250.81V38.632H252.81ZM279.414 30.184V29.184H278.414V30.184H279.414ZM279.414 49V50H280.414V49H279.414ZM268.918 49H267.918V50H268.918V49ZM268.918 1V0H267.918V1H268.918ZM306.422 2.152L306.019 3.06768L306.028 3.07114L306.422 2.152ZM314.23 9.96L313.31 10.3539L313.314 10.362L314.23 9.96ZM314.23 21.288L315.145 21.69L315.149 21.6819L314.23 21.288ZM306.422 29.032L306.028 28.1128L306.02 28.1164L306.422 29.032ZM279.414 11.432V10.432H278.414V11.432H279.414ZM279.414 19.816H278.414V20.816H279.414V19.816ZM305.014 19.816V20.816H306.014V19.816H305.014ZM305.014 11.432H306.014V10.432H305.014V11.432ZM300.79 29.184H279.414V31.184H300.79V29.184ZM278.414 30.184V49H280.414V30.184H278.414ZM279.414 48H268.918V50H279.414V48ZM269.918 49V1H267.918V49H269.918ZM268.918 2H300.79V0H268.918V2ZM300.79 2C302.663 2 304.402 2.35806 306.019 3.06768L306.823 1.23635C304.941 0.409975 302.926 0 300.79 0V2ZM306.028 3.07114C307.708 3.79118 309.157 4.76618 310.386 5.9951L311.801 4.58089C310.384 3.16448 308.719 2.04881 306.815 1.23285L306.028 3.07114ZM310.386 5.9951C311.615 7.22403 312.59 8.67382 313.31 10.3539L315.149 9.56608C314.333 7.66218 313.217 5.99731 311.801 4.58089L310.386 5.9951ZM313.314 10.362C314.023 11.9783 314.382 13.718 314.382 15.592H316.382C316.382 13.4553 315.972 11.4403 315.145 9.55801L313.314 10.362ZM314.382 15.592C314.382 17.4659 314.023 19.2301 313.31 20.8941L315.149 21.6819C315.972 19.7619 316.382 17.7288 316.382 15.592H314.382ZM313.314 20.886C312.595 22.524 311.619 23.956 310.386 25.1889L311.801 26.6031C313.213 25.1907 314.328 23.5506 315.145 21.69L313.314 20.886ZM310.386 25.1889C309.157 26.4178 307.708 27.3927 306.028 28.1128L306.815 29.9511C308.719 29.1352 310.384 28.0195 311.801 26.6031L310.386 25.1889ZM306.02 28.1164C304.403 28.826 302.663 29.184 300.79 29.184V31.184C302.926 31.184 304.941 30.774 306.823 29.9476L306.02 28.1164ZM278.414 11.432V19.816H280.414V11.432H278.414ZM279.414 20.816H305.014V18.816H279.414V20.816ZM306.014 19.816V11.432H304.014V19.816H306.014ZM305.014 10.432H279.414V12.432H305.014V10.432ZM354.147 2.92L353.743 3.83499L353.754 3.83984L354.147 2.92ZM366.883 15.656L365.963 16.0483L365.968 16.0596L366.883 15.656ZM366.883 34.344L365.968 33.9403L365.963 33.9517L366.883 34.344ZM354.147 47.144L354.539 48.0639L354.55 48.0589L354.147 47.144ZM335.458 47.144L335.055 48.059L335.066 48.0638L335.458 47.144ZM322.659 34.344L321.739 34.7363L321.744 34.7476L322.659 34.344ZM322.659 15.656L321.744 15.2523L321.739 15.2637L322.659 15.656ZM335.458 2.92L335.851 3.83991L335.862 3.83492L335.458 2.92ZM358.435 11.368H359.435V10.368H358.435V11.368ZM331.171 11.368V10.368H330.171V11.368H331.171ZM331.171 38.632H330.171V39.632H331.171V38.632ZM358.435 38.632V39.632H359.435V38.632H358.435ZM344.803 2C347.999 2 350.975 2.61385 353.743 3.83499L354.55 2.00508C351.515 0.666214 348.262 0 344.803 0V2ZM353.754 3.83984C356.541 5.02831 358.972 6.66376 361.055 8.7471L362.47 7.33289C360.201 5.06423 357.555 3.28635 354.539 2.00015L353.754 3.83984ZM361.055 8.7471C363.139 10.8304 364.774 13.2615 365.963 16.0483L367.802 15.2637C366.516 12.2478 364.738 9.60155 362.47 7.33289L361.055 8.7471ZM365.968 16.0596C367.189 18.8275 367.803 21.804 367.803 25H369.803C369.803 21.54 369.136 18.2871 367.797 15.2524L365.968 16.0596ZM367.803 25C367.803 28.196 367.189 31.1724 365.968 33.9403L367.797 34.7476C369.136 31.7129 369.803 28.46 369.803 25H367.803ZM365.963 33.9517C364.774 36.7385 363.139 39.1695 361.055 41.2529L362.47 42.6671C364.738 40.3984 366.516 37.7522 367.802 34.7363L365.963 33.9517ZM361.055 41.2529C358.97 43.3388 356.535 44.9974 353.743 46.2291L354.55 48.0589C357.561 46.7306 360.203 44.9332 362.47 42.6671L361.055 41.2529ZM353.754 46.2242C350.984 47.4057 348.003 48 344.803 48V50C348.258 50 351.507 49.3571 354.539 48.0639L353.754 46.2242ZM344.803 48C341.602 48 338.621 47.4057 335.851 46.2242L335.066 48.0638C338.098 49.357 341.347 50 344.803 50V48ZM335.862 46.2291C333.07 44.9974 330.635 43.3388 328.55 41.2529L327.135 42.6671C329.402 44.9332 332.044 46.7307 335.055 48.059L335.862 46.2291ZM328.55 41.2529C326.464 39.167 324.805 36.7321 323.573 33.9404L321.744 34.7476C323.072 37.7586 324.869 40.401 327.135 42.6671L328.55 41.2529ZM323.578 33.9517C322.397 31.1812 321.803 28.2007 321.803 25H319.803C319.803 28.4553 320.446 31.7042 321.739 34.7363L323.578 33.9517ZM321.803 25C321.803 21.7993 322.397 18.8188 323.578 16.0483L321.739 15.2637C320.446 18.2958 319.803 21.5447 319.803 25H321.803ZM323.573 16.0596C324.805 13.2679 326.464 10.833 328.55 8.7471L327.135 7.33289C324.869 9.599 323.072 12.2413 321.744 15.2523L323.573 16.0596ZM328.55 8.7471C330.633 6.66376 333.064 5.02838 335.851 3.83991L335.066 2.00015C332.05 3.28635 329.404 5.06423 327.135 7.33289L328.55 8.7471ZM335.862 3.83492C338.63 2.61378 341.606 2 344.803 2V0C341.343 0 338.09 0.666214 335.055 2.00508L335.862 3.83492ZM358.435 10.368H331.171V12.368H358.435V10.368ZM330.171 11.368V38.632H332.171V11.368H330.171ZM331.171 39.632H358.435V37.632H331.171V39.632ZM359.435 38.632V11.368H357.435V38.632H359.435ZM392.675 1V0H391.999L391.747 0.627243L392.675 1ZM411.747 1L412.674 0.627243L412.422 0H411.747V1ZM426.787 38.44L425.859 38.8128L426.111 39.44H426.787V38.44ZM435.491 38.44H436.491V37.44H435.491V38.44ZM435.491 49V50H436.491V49H435.491ZM368.803 49H367.803V50H368.803V49ZM368.803 38.44V37.44H367.803V38.44H368.803ZM377.635 38.44V39.44H378.31L378.562 38.8128L377.635 38.44ZM416.227 38.44V39.44H417.706L417.154 38.0671L416.227 38.44ZM402.595 4.52L403.522 4.1471L403.27 3.52H402.595V4.52ZM401.826 4.52V3.52H401.151L400.899 4.1471L401.826 4.52ZM388.195 38.44L387.267 38.0671L386.715 39.44H388.195V38.44ZM392.675 2H411.747V0H392.675V2ZM410.819 1.37275L425.859 38.8128L427.714 38.0672L412.674 0.627243L410.819 1.37275ZM426.787 39.44H435.491V37.44H426.787V39.44ZM434.491 38.44V49H436.491V38.44H434.491ZM435.491 48H368.803V50H435.491V48ZM369.803 49V38.44H367.803V49H369.803ZM368.803 39.44H377.635V37.44H368.803V39.44ZM378.562 38.8128L393.602 1.37275L391.747 0.627243L376.707 38.0672L378.562 38.8128ZM417.154 38.0671L403.522 4.1471L401.667 4.8929L415.299 38.8129L417.154 38.0671ZM402.595 3.52H401.826V5.52H402.595V3.52ZM400.899 4.1471L387.267 38.0671L389.122 38.8129L402.754 4.8929L400.899 4.1471ZM388.195 39.44H416.227V37.44H388.195V39.44Z" fill="black"/>
</g>
</g>
<defs>
<clipPath id="clip0_49_13">
<rect width="437" height="50" fill="white"/>
</clipPath>
</defs>
</svg>
