<svg xmlns="http://www.w3.org/2000/svg" version="1.1" xmlns:xlink="http://www.w3.org/1999/xlink" width="39" height="31"><svg xmlns="http://www.w3.org/2000/svg" version="1.1" xmlns:xlink="http://www.w3.org/1999/xlink" width="39" height="31"><svg xmlns="http://www.w3.org/2000/svg" width="39" height="31" fill="none"><path fill="#1A1A24" d="M1.845 18.862c1.259-.573 2.647-.724 3.858-.42 1.212.303 2.149 1.035 2.604 2.037.455 1 .392 2.188-.177 3.3-.568 1.113-1.594 2.06-2.853 2.632l1.144 2.516c.304.668.928 1.156 1.736 1.358.808.203 1.733.102 2.572-.28l25.313-11.508c.839-.381 1.523-1.012 1.902-1.754.378-.742.42-1.533.117-2.2l-1.144-2.517c-1.258.572-2.646.723-3.858.42-1.212-.303-2.149-1.036-2.604-2.037-.455-1.001-.391-2.189.177-3.301.568-1.113 1.594-2.06 2.853-2.631L32.341 1.96c-.303-.667-.928-1.156-1.736-1.358-.808-.202-1.733-.101-2.572.28L2.721 12.39c-.84.382-1.524 1.013-1.903 1.755-.378.741-.42 1.533-.117 2.2l1.144 2.517Z"></path><path stroke="#D9D9D9" stroke-linecap="round" stroke-linejoin="round" d="m14.635 17.601 4.308 1.078 4.04-7.91M1.845 18.863c1.259-.573 2.647-.724 3.858-.42 1.212.303 2.149 1.035 2.604 2.037.455 1 .392 2.188-.177 3.3-.568 1.113-1.594 2.06-2.853 2.632l1.144 2.516c.304.668.928 1.156 1.736 1.358.808.203 1.733.102 2.572-.28l25.313-11.508c.839-.381 1.523-1.012 1.902-1.754.378-.742.42-1.533.117-2.2l-1.144-2.517c-1.258.572-2.646.723-3.858.42-1.212-.303-2.149-1.036-2.604-2.037-.455-1.001-.391-2.189.177-3.301.568-1.113 1.594-2.06 2.853-2.631L32.341 1.96c-.303-.667-.928-1.156-1.736-1.358-.808-.202-1.733-.101-2.572.28L2.721 12.39c-.84.382-1.524 1.013-1.903 1.755-.378.741-.42 1.533-.117 2.2l1.144 2.517Z"></path></svg></svg><style>@media (prefers-color-scheme: light) { :root { filter: contrast(1) brightness(1); } }
@media (prefers-color-scheme: dark) { :root { filter: none; } }
</style></svg>