<svg xmlns="http://www.w3.org/2000/svg" width="983" height="319" fill="none" xmlns:v="https://vecta.io/nano"><g clip-path="url(#C)"><path d="M403.774 196v26.4h-88.32V316h-28.16V196h116.48zm62.295 0c8.32 0 16.106 1.6 23.36 4.8 7.253 3.093 13.6 7.36 19.04 12.8s9.706 11.787 12.8 19.04c3.2 7.253 4.8 15.04 4.8 23.36s-1.6 16.107-4.8 23.36c-3.094 7.253-7.36 13.6-12.8 19.04s-11.787 9.76-19.04 12.96c-7.254 3.093-15.04 4.64-23.36 4.64s-16.107-1.547-23.36-4.64c-7.254-3.2-13.6-7.52-19.04-12.96s-9.76-11.787-12.96-19.04c-3.094-7.253-4.64-15.04-4.64-23.36s1.546-16.107 4.64-23.36c3.2-7.253 7.52-13.6 12.96-19.04s11.786-9.707 19.04-12.8c7.253-3.2 15.04-4.8 23.36-4.8zm34.08 25.92h-68.16v68.16h68.16v-68.16zm122.45 47.04h-53.44V316h-26.24V196h79.68c5.013 0 9.706.96 14.08 2.88 4.48 1.92 8.373 4.533 11.68 7.84s5.92 7.2 7.84 11.68c1.92 4.373 2.88 9.067 2.88 14.08s-.96 9.76-2.88 14.24c-1.92 4.373-4.534 8.213-7.84 11.52s-7.2 5.92-11.68 7.84c-4.374 1.92-9.067 2.88-14.08 2.88zm-53.44-46.88v20.96h64v-20.96h-64zM732.631 196c8.32 0 16.107 1.6 23.36 4.8 7.254 3.093 13.6 7.36 19.04 12.8s9.707 11.787 12.8 19.04c3.2 7.253 4.8 15.04 4.8 23.36s-1.6 16.107-4.8 23.36c-3.093 7.253-7.36 13.6-12.8 19.04s-11.786 9.76-19.04 12.96c-7.253 3.093-15.04 4.64-23.36 4.64s-16.106-1.547-23.36-4.64c-7.253-3.2-13.6-7.52-19.04-12.96s-9.76-11.787-12.96-19.04c-3.093-7.253-4.64-15.04-4.64-23.36s1.547-16.107 4.64-23.36c3.2-7.253 7.52-13.6 12.96-19.04s11.787-9.707 19.04-12.8c7.254-3.2 15.04-4.8 23.36-4.8zm34.08 25.92h-68.16v68.16h68.16v-68.16zm85.6-25.92h47.68l37.6 93.6h21.76V316h-166.72v-26.4h22.08l37.6-93.6zm58.88 93.6l-34.08-84.8h-1.92l-34.08 84.8h70.08z" fill="#fff"/><mask id="A" maskUnits="userSpaceOnUse" x="284" y="193" width="679" height="126"><path d="M963 193H284V319H963V193Z" fill="#fff"/><path d="M403.774 196v26.4h-88.32V316h-28.16V196h116.48zm62.295 0c8.32 0 16.106 1.6 23.36 4.8 7.253 3.093 13.6 7.36 19.04 12.8s9.706 11.787 12.8 19.04c3.2 7.253 4.8 15.04 4.8 23.36s-1.6 16.107-4.8 23.36c-3.094 7.253-7.36 13.6-12.8 19.04s-11.787 9.76-19.04 12.96c-7.254 3.093-15.04 4.64-23.36 4.64s-16.107-1.547-23.36-4.64c-7.254-3.2-13.6-7.52-19.04-12.96s-9.76-11.787-12.96-19.04c-3.094-7.253-4.64-15.04-4.64-23.36s1.546-16.107 4.64-23.36c3.2-7.253 7.52-13.6 12.96-19.04s11.786-9.707 19.04-12.8c7.253-3.2 15.04-4.8 23.36-4.8zm34.08 25.92h-68.16v68.16h68.16v-68.16zm122.45 47.04h-53.44V316h-26.24V196h79.68c5.013 0 9.706.96 14.08 2.88 4.48 1.92 8.373 4.533 11.68 7.84s5.92 7.2 7.84 11.68c1.92 4.373 2.88 9.067 2.88 14.08s-.96 9.76-2.88 14.24c-1.92 4.373-4.534 8.213-7.84 11.52s-7.2 5.92-11.68 7.84c-4.374 1.92-9.067 2.88-14.08 2.88zm-53.44-46.88v20.96h64v-20.96h-64zM732.631 196c8.32 0 16.107 1.6 23.36 4.8 7.254 3.093 13.6 7.36 19.04 12.8s9.707 11.787 12.8 19.04c3.2 7.253 4.8 15.04 4.8 23.36s-1.6 16.107-4.8 23.36c-3.093 7.253-7.36 13.6-12.8 19.04s-11.786 9.76-19.04 12.96c-7.253 3.093-15.04 4.64-23.36 4.64s-16.106-1.547-23.36-4.64c-7.253-3.2-13.6-7.52-19.04-12.96s-9.76-11.787-12.96-19.04c-3.093-7.253-4.64-15.04-4.64-23.36s1.547-16.107 4.64-23.36c3.2-7.253 7.52-13.6 12.96-19.04s11.787-9.707 19.04-12.8c7.254-3.2 15.04-4.8 23.36-4.8zm34.08 25.92h-68.16v68.16h68.16v-68.16zm85.6-25.92h47.68l37.6 93.6h21.76V316h-166.72v-26.4h22.08l37.6-93.6zm58.88 93.6l-34.08-84.8h-1.92l-34.08 84.8h70.08z" fill="#000"/></mask><g mask="url(#A)"><path d="M403.774 196h3v-3h-3v3zm0 26.4v3h3v-3h-3zm-88.32 0v-3h-3v3h3zm0 93.6v3h3v-3h-3zm-28.16 0h-3v3h3v-3zm0-120v-3h-3v3h3zm113.48 0v26.4h6V196h-6zm3 23.4h-88.32v6h88.32v-6zm-91.32 3V316h6v-93.6h-6zm3 90.6h-28.16v6h28.16v-6zm-25.16 3V196h-6v120h6zm-3-117h116.48v-6h-116.48v6zm202.135 1.8l-1.211 2.745.017.007.017.008 1.177-2.76zm31.84 31.84l-2.76 1.177.008.017.007.017 2.745-1.211zm0 46.72l-2.745-1.211-.007.017-.008.017 2.76 1.177zm-31.84 32l1.177 2.76.017-.008.017-.007-1.211-2.745zm-46.72 0l-1.211 2.745.017.007.017.008 1.177-2.76zm-32-32l-2.76 1.177.008.017.007.017 2.745-1.211zm0-46.72l-2.745-1.211-.007.017-.008.017 2.76 1.177zm32-31.84l1.177 2.76.017-.008.017-.007-1.211-2.745zm57.44 21.12h3v-3h-3v3zm-68.16 0v-3h-3v3h3zm0 68.16h-3v3h3v-3zm68.16 0v3h3v-3h-3zM466.069 199c7.924 0 15.296 1.521 22.149 4.545l2.422-5.49c-7.654-3.376-15.855-5.055-24.571-5.055v6zm22.183 4.56c6.91 2.946 12.933 6.999 18.095 12.161l4.243-4.242c-5.718-5.718-12.387-10.199-19.984-13.439l-2.354 5.52zm18.095 12.161c5.162 5.162 9.215 11.186 12.162 18.096l5.519-2.354c-3.24-7.597-7.72-14.266-13.438-19.984l-4.243 4.242zm12.177 18.13c3.023 6.853 4.545 14.225 4.545 22.149h6c0-8.716-1.679-16.917-5.055-24.571l-5.49 2.422zM523.069 256c0 7.924-1.522 15.296-4.545 22.149l5.49 2.422c3.376-7.654 5.055-15.855 5.055-24.571h-6zm-4.56 22.183c-2.947 6.91-7 12.934-12.162 18.096l4.243 4.242c5.718-5.718 10.198-12.387 13.438-19.984l-5.519-2.354zm-12.162 18.096c-5.169 5.169-11.205 9.281-18.129 12.336l2.422 5.49c7.582-3.345 14.24-7.873 19.95-13.584l-4.243-4.242zM488.252 308.6c-6.861 2.926-14.245 4.4-22.183 4.4v6c8.702 0 16.891-1.62 24.537-4.88l-2.354-5.52zm-22.183 4.4c-7.938 0-15.322-1.474-22.183-4.4l-2.354 5.52c7.646 3.26 15.835 4.88 24.537 4.88v-6zm-22.149-4.385c-6.925-3.055-12.96-7.167-18.13-12.336l-4.243 4.242c5.711 5.711 12.369 10.239 19.951 13.584l2.422-5.49zm-18.13-12.336c-5.17-5.17-9.282-11.205-12.336-18.13l-5.49 2.422c3.345 7.582 7.873 14.24 13.583 19.95l4.243-4.242zm-12.322-18.096c-2.926-6.861-4.399-14.245-4.399-22.183h-6c0 8.702 1.62 16.891 4.88 24.537l5.519-2.354zM409.069 256c0-7.938 1.473-15.322 4.399-22.183l-5.519-2.354c-3.26 7.646-4.88 15.835-4.88 24.537h6zm4.385-22.149c3.054-6.925 7.166-12.96 12.336-18.13l-4.243-4.242c-5.71 5.71-10.238 12.368-13.583 19.95l5.49 2.422zm12.336-18.13c5.162-5.162 11.186-9.215 18.096-12.161l-2.354-5.52c-7.597 3.24-14.267 7.721-19.985 13.439l4.243 4.242zm18.13-12.176c6.853-3.024 14.225-4.545 22.149-4.545v-6c-8.716 0-16.918 1.679-24.571 5.055l2.422 5.49zm56.229 15.375h-68.16v6h68.16v-6zm-71.16 3v68.16h6v-68.16h-6zm3 71.16h68.16v-6h-68.16v6zm71.16-3v-68.16h-6v68.16h6zm66.01-21.12v-3h-3v3h3zm0 47.04v3h3v-3h-3zm-26.24 0h-3v3h3v-3zm0-120v-3h-3v3h3zm93.76 2.88l-1.206 2.747.012.005.012.005 1.182-2.757zm19.52 19.52l-2.758 1.182.006.012.005.012 2.747-1.206zm0 28.32l2.747 1.206.005-.012.005-.012-2.757-1.182zm-19.52 19.36l-1.182-2.757-.012.005-.012.005 1.206 2.747zm-67.52-44v-3h-3v3h3zm0 20.96h-3v3h3v-3zm64 0v3h3v-3h-3zm0-20.96h3v-3h-3v3zm-10.56 43.88h-53.44v6h53.44v-6zm-56.44 3V316h6v-47.04h-6zm3 44.04h-26.24v6h26.24v-6zm-23.24 3V196h-6v120h6zm-3-117h79.68v-6h-79.68v6zm79.68 0c4.619 0 8.899.882 12.874 2.627l2.412-5.494c-4.773-2.095-9.879-3.133-15.286-3.133v6zm12.898 2.637c4.144 1.777 7.715 4.179 10.74 7.204l4.243-4.242c-3.588-3.588-7.804-6.413-12.619-8.476l-2.364 5.514zm10.74 7.204c3.026 3.026 5.428 6.596 7.204 10.741l5.515-2.364c-2.064-4.815-4.888-9.031-8.476-12.619l-4.243 4.242zm7.215 10.765c1.745 3.974 2.627 8.255 2.627 12.874h6c0-5.407-1.038-10.514-3.133-15.286l-5.494 2.412zm2.627 12.874c0 4.619-.882 8.962-2.638 13.058l5.515 2.364c2.085-4.864 3.123-10.014 3.123-15.422h-6zm-2.627 13.034c-1.774 4.039-4.177 7.567-7.215 10.605l4.243 4.242c3.576-3.576 6.399-7.728 8.466-12.435l-5.494-2.412zm-7.215 10.605c-3.025 3.025-6.596 5.427-10.74 7.204l2.364 5.514c4.815-2.063 9.031-4.888 12.619-8.476l-4.243-4.242zm-10.764 7.214c-3.975 1.745-8.255 2.627-12.874 2.627v6c5.407 0 10.513-1.038 15.286-3.133l-2.412-5.494zm-69.314-41.253v20.96h6v-20.96h-6zm3 23.96h64v-6h-64v6zm67-3v-20.96h-6v20.96h6zm-3-23.96h-64v6h64v-6zm122.832-18.28l-1.211 2.745.017.007.017.008 1.177-2.76zm31.84 31.84l-2.759 1.177.007.017.008.017 2.744-1.211zm0 46.72l-2.744-1.211-.008.017-.007.017 2.759 1.177zm-31.84 32l1.177 2.76.017-.008.017-.007-1.211-2.745zm-46.72 0l-1.211 2.745.017.007.017.008 1.177-2.76zm-32-32l-2.759 1.177.007.017.007.017 2.745-1.211zm0-46.72l-2.745-1.211-.007.017-.007.017 2.759 1.177zm32-31.84l1.177 2.76.017-.008.017-.007-1.211-2.745zm57.44 21.12h3v-3h-3v3zm-68.16 0v-3h-3v3h3zm0 68.16h-3v3h3v-3zm68.16 0v3h3v-3h-3zM732.631 199c7.924 0 15.296 1.521 22.149 4.545l2.422-5.49c-7.653-3.376-15.855-5.055-24.571-5.055v6zm22.183 4.56c6.91 2.946 12.934 6.999 18.096 12.161l4.243-4.242c-5.718-5.718-12.388-10.199-19.985-13.439l-2.354 5.52zm18.096 12.161c5.162 5.162 9.215 11.186 12.162 18.096l5.519-2.354c-3.24-7.597-7.72-14.266-13.438-19.984l-4.243 4.242zm12.177 18.13c3.023 6.853 4.544 14.225 4.544 22.149h6c0-8.716-1.678-16.917-5.055-24.571l-5.489 2.422zM789.631 256c0 7.924-1.521 15.296-4.544 22.149l5.489 2.422c3.377-7.654 5.055-15.855 5.055-24.571h-6zm-4.559 22.183c-2.947 6.91-7 12.934-12.162 18.096l4.243 4.242c5.718-5.718 10.198-12.387 13.438-19.984l-5.519-2.354zm-12.162 18.096c-5.17 5.169-11.205 9.281-18.13 12.336l2.422 5.49c7.582-3.345 14.24-7.873 19.951-13.584l-4.243-4.242zM754.814 308.6c-6.861 2.926-14.245 4.4-22.183 4.4v6c8.702 0 16.891-1.62 24.537-4.88l-2.354-5.52zm-22.183 4.4c-7.938 0-15.322-1.474-22.183-4.4l-2.354 5.52c7.646 3.26 15.835 4.88 24.537 4.88v-6zm-22.149-4.385c-6.924-3.055-12.96-7.167-18.129-12.336l-4.243 4.242c5.71 5.711 12.368 10.239 19.95 13.584l2.422-5.49zm-18.129-12.336c-5.17-5.17-9.282-11.205-12.337-18.13l-5.49 2.422c3.346 7.582 7.874 14.24 13.584 19.95l4.243-4.242zm-12.322-18.096c-2.926-6.861-4.4-14.245-4.4-22.183h-6c0 8.702 1.62 16.891 4.881 24.537l5.519-2.354zm-4.4-22.183c0-7.938 1.474-15.322 4.4-22.183l-5.519-2.354c-3.261 7.646-4.881 15.835-4.881 24.537h6zm4.385-22.149c3.055-6.925 7.167-12.96 12.337-18.13l-4.243-4.242c-5.71 5.71-10.238 12.368-13.584 19.95l5.49 2.422zm12.337-18.13c5.162-5.162 11.185-9.215 18.095-12.161l-2.354-5.52c-7.597 3.24-14.266 7.721-19.984 13.439l4.243 4.242zm18.129-12.176c6.853-3.024 14.225-4.545 22.149-4.545v-6c-8.716 0-16.917 1.679-24.571 5.055l2.422 5.49zm56.229 15.375h-68.16v6h68.16v-6zm-71.16 3v68.16h6v-68.16h-6zm3 71.16h68.16v-6h-68.16v6zm71.16-3v-68.16h-6v68.16h6zm82.6-94.08v-3h-2.028l-.756 1.882 2.784 1.118zm47.68 0l2.784-1.118-.756-1.882h-2.028v3zm37.6 93.6l-2.784 1.118.756 1.882h2.028v-3zm21.76 0h2.999v-3h-2.999v3zm0 26.4v3h2.999v-3h-2.999zm-166.72 0h-3v3h3v-3zm0-26.4v-3h-3v3h3zm22.08 0v3h2.028l.756-1.882-2.784-1.118zm96.48 0v3h4.439l-1.655-4.119-2.784 1.119zm-34.08-84.8l2.784-1.119-.756-1.881h-2.028v3zm-1.92 0v-3h-2.027l-.756 1.881 2.783 1.119zm-34.08 84.8l-2.783-1.119-1.656 4.119h4.439v-3zm11.2-90.6h47.68v-6h-47.68v6zm44.896-1.882l37.6 93.6 5.568-2.236-37.6-93.6-5.568 2.236zm40.384 95.482h21.76v-6h-21.76v6zm18.76-3V316h5.999v-26.4h-5.999zm3 23.4h-166.72v6h166.72v-6zm-163.72 3v-26.4h-6V316h6zm-3-23.4h22.08v-6h-22.08v6zm24.864-1.882l37.6-93.6-5.568-2.236-37.6 93.6 5.568 2.236zm96.48-2.237l-34.08-84.8-5.567 2.238 34.08 84.8 5.567-2.238zM877.111 201.8h-1.92v6h1.92v-6zm-4.703 1.881l-34.08 84.8 5.567 2.238 34.08-84.8-5.567-2.238zM841.111 292.6h70.08v-6h-70.08v6z" fill="#000"/></g><path d="M111.391 122.52h-26.24V29.24h-55.68V123H3.231V3h108.16v119.52zm102.145-46.56h-53.44V123h-26.24V3h79.68c5.014 0 9.707.96 14.08 2.88 4.48 1.92 8.374 4.533 11.68 7.84s5.92 7.2 7.84 11.68c1.92 4.373 2.88 9.067 2.88 14.08s-.96 9.76-2.88 14.24c-1.92 4.373-4.533 8.213-7.84 11.52s-7.2 5.92-11.68 7.84c-4.373 1.92-9.066 2.88-14.08 2.88zm-53.44-46.88v20.96h64V29.08h-64zM393.809 3v120h-26.4V11.8h-2.08L320.689 123h-51.52V3h26.4v111.2h2.24L342.449 3h51.36z" fill="#fff"/><mask id="B" maskUnits="userSpaceOnUse" x="0" y="0" width="397" height="126"><path d="M397 0H0V126H397V0Z" fill="#fff"/><path d="M111.391 122.52h-26.24V29.24h-55.68V123H3.231V3h108.16v119.52zm102.145-46.56h-53.44V123h-26.24V3h79.68c5.014 0 9.707.96 14.08 2.88 4.48 1.92 8.374 4.533 11.68 7.84s5.92 7.2 7.84 11.68c1.92 4.373 2.88 9.067 2.88 14.08s-.96 9.76-2.88 14.24c-1.92 4.373-4.533 8.213-7.84 11.52s-7.2 5.92-11.68 7.84c-4.373 1.92-9.066 2.88-14.08 2.88zm-53.44-46.88v20.96h64V29.08h-64zM393.809 3v120h-26.4V11.8h-2.08L320.689 123h-51.52V3h26.4v111.2h2.24L342.449 3h51.36z" fill="#000"/></mask><g mask="url(#B)"><path d="M111.391 122.52v3h3v-3h-3zm-26.24 0h-3v3h3v-3zm0-93.28h3v-3h-3v3zm-55.68 0v-3h-3v3h3zm0 93.76v3h3v-3h-3zm-26.24 0h-3v3h3v-3zm0-120V0h-3v3h3zm108.16 0h3V0h-3v3zm0 116.52h-26.24v6h26.24v-6zm-23.24 3V29.24h-6v93.28h6zm-3-96.28h-55.68v6h55.68v-6zm-58.68 3V123h6V29.24h-6zm3 90.76H3.231v6h26.24v-6zm-23.24 3V3h-6v120h6zm-3-117h108.16V0H3.231v6zm105.16-3v119.52h6V3h-6zm51.705 72.96v-3h-3v3h3zm0 47.04v3h3v-3h-3zm-26.24 0h-3v3h3v-3zm0-120V0h-3v3h3zm93.76 2.88l-1.206 2.747.012.005.012.005 1.182-2.757zm19.52 19.52l-2.757 1.182.005.012.005.012 2.747-1.206zm0 28.32l2.747 1.206.005-.012.006-.012-2.758-1.182zm-19.52 19.36l-1.182-2.757-.012.005-.012.005 1.206 2.747zm-67.52-44v-3h-3v3h3zm0 20.96h-3v3h3v-3zm64 0v3h3v-3h-3zm0-20.96h3v-3h-3v3zm-10.56 43.88h-53.44v6h53.44v-6zm-56.44 3V123h6V75.96h-6zm3 44.04h-26.24v6h26.24v-6zm-23.24 3V3h-6v120h6zm-3-117h79.68V0h-79.68v6zm79.68 0c4.619 0 8.9.882 12.874 2.627l2.412-5.494C224.05 1.038 218.944 0 213.536 0v6zm12.898 2.637c4.145 1.776 7.716 4.179 10.741 7.204l4.243-4.243c-3.588-3.588-7.804-6.412-12.62-8.476l-2.364 5.515zm10.741 7.204c3.025 3.025 5.428 6.596 7.204 10.741l5.515-2.364c-2.064-4.816-4.889-9.032-8.476-12.619l-4.243 4.243zm7.214 10.765c1.745 3.974 2.627 8.255 2.627 12.874h6c0-5.407-1.038-10.514-3.133-15.286l-5.494 2.412zm2.627 12.874c0 4.619-.882 8.962-2.637 13.058l5.515 2.364c2.084-4.864 3.122-10.014 3.122-15.422h-6zm-2.627 13.034c-1.773 4.039-4.177 7.567-7.214 10.605l4.243 4.243c3.576-3.576 6.399-7.728 8.465-12.435l-5.494-2.412zm-7.214 10.605c-3.025 3.025-6.596 5.428-10.741 7.204l2.364 5.515c4.816-2.064 9.032-4.888 12.62-8.476l-4.243-4.243zm-10.765 7.214c-3.974 1.745-8.255 2.627-12.874 2.627v6c5.408 0 10.514-1.038 15.286-3.133l-2.412-5.494zM157.096 29.08v20.96h6V29.08h-6zm3 23.96h64v-6h-64v6zm67-3V29.08h-6v20.96h6zm-3-23.96h-64v6h64v-6zM393.809 3h3V0h-3v3zm0 120v3h3v-3h-3zm-26.4 0h-3v3h3v-3zm0-111.2h3v-3h-3v3zm-2.08 0v-3H363.3l-.755 1.882 2.784 1.118zM320.689 123v3h2.028l.756-1.882-2.784-1.118zm-51.52 0h-3v3h3v-3zm0-120V0h-3v3h3zm26.4 0h3V0h-3v3zm0 111.2h-3v3h3v-3zm2.24 0v3h2.028l.756-1.882-2.784-1.118zM342.449 3V0h-2.029l-.755 1.882L342.449 3zm48.36 0v120h6V3h-6zm3 117h-26.4v6h26.4v-6zm-23.4 3V11.8h-6V123h6zm-3-114.2h-2.08v6h2.08v-6zm-4.864 1.882l-44.64 111.2 5.568 2.236 44.64-111.2-5.568-2.235zM320.689 120h-51.52v6h51.52v-6zm-48.52 3V3h-6v120h6zm-3-117h26.4V0h-26.4v6zm23.4-3v111.2h6V3h-6zm3 114.2h2.24v-6h-2.24v6zm5.024-1.882l44.64-111.2-5.568-2.235-44.64 111.2 5.568 2.236zM342.449 6h51.36V0h-51.36v6z" fill="#000"/></g><g fill="#e07cfe"><path d="M389 60a8 8 0 1 0 16 0 8 8 0 1 0-16 0zm88 0h1.5a1.5 1.5 0 0 0-1.5-1.5V60zm0 94.01v1.5a1.5 1.5 0 0 0 1.5-1.5H477zm-293 0v-1.5a1.5 1.5 0 0 0-1.5 1.5h1.5zM184 261h-1.5a1.5 1.5 0 0 0 1.5 1.5V261zm91 0a8 8 0 1 0 16 0 8 8 0 1 0-16 0zM397 61.5h.193.193.192.192.191.191.19.191.189.189.189.189.188.187.187.187.186.186.186.185.185.184.184.184.183.183.182.182.182.181.181.18.18.18.179.179.179.178.178.177.177.177.176.176.176.175.175.175.174.174.174.173.173.172.172.172.171.172.17.171.17.17.169.169.169.169.168.168.167.167.167.167.166.166.166.165.165.165.164.165.163.164.163.163.163.162.162.162.162.161.161.16.161.16.16.159.16.159.158.159.158.158.158.157.157.157.157.157.156.156.155.156.155.155.155.154.154.154.154.154.153.153.153.152.153.152.152.152.151.151.151.151.151.15.151.15.15.149.15.149.149.149.148.149.148.148.148.148.147.148.147.147.147.146.147.146.146.146.146.146.145.145.146.145.144.145.145.144.144.144.144.144.144.143.143.144.143.143.143.142.143.142.143.142.142.142.142.141.142.141.142.141.141.141.141.141.141.14.141.14.141.14.14.14.14.14.14.14.139.14.139.14.139.139.139.14.139.139.139.138.139.139.139.138.139.138.139.138.139.138.138.138.139.138.138.138.138.138.138.138.138.138.138.138.138.137.138.138.138.138.137.138.138.138.137.138.138.137.138.138.138.137.138.138.138.138.137.138.138.138.138.138.138.138.138.138.138.138.138.139.138.138.138.139.138.139.138.139.138.139.139.139.138.139.139.139.14.139.139.139.14.139.14.139.14.14.14.14.14.14.14.141.14.141.14.141.141.141.141.141.141.142.141.142.141.142.142.142.142.143.142.143.142.143.143.143.144.143.143.144.144.144.144.144.144.145.145.144.145.146.145.145.146.146.146.146.146.147.146.147.147.147.148.147.148.148.148.148.149.148.149.149.149.15.149.15.15.151.15.151.151.151.151.151.152.152.152.153.152.153.153.153.154.154.154.154.154.155.155.155.156.155.156.156.157.157.157.157.157.158.158.158.159.158.159.16.159.16.16.161.16.161.161.162.162.162.162.163.163.163.164.163.165.164.165.165.165.166.166.166.167.167.167.167.168.168.169.169.169.169.17.17.171.17.172.171.172.172.172.173.173.174.174.174.175.175.175.176.176.176.177.177.177.178.178.179.179.179.18.18.18.181.181.182.182.182.183.183.184.184.184.185.185.186.186.186.187.187.187.188.189.189.189.189.191.19.191.191.192.192.193.193v-3h-.193-.193-.192-.192-.191-.191-.19-.191-.189-.189-.189-.189-.188-.187-.187-.187-.186-.186-.186-.185-.185-.184-.184-.184-.183-.183-.182-.182-.182-.181-.181-.18-.18-.18-.179-.179-.179-.178-.178-.177-.177-.177-.176-.176-.176-.175-.175-.175-.174-.174-.174-.173-.173-.172-.172-.172-.171-.172-.17-.171-.17-.17-.169-.169-.169-.169-.168-.168-.167-.167-.167-.167-.166-.166-.166-.165-.165-.165-.164-.165-.163-.164-.163-.163-.163-.162-.162-.162-.162-.161-.161-.16-.161-.16-.16-.159-.16-.159-.158-.159-.158-.158-.158-.157-.157-.157-.157-.157-.156-.156-.155-.156-.155-.155-.155-.154-.154-.154-.154-.154-.153-.153-.153-.152-.153-.152-.152-.152-.151-.151-.151-.151-.151-.15-.151-.15-.15-.149-.15-.149-.149-.149-.148-.149-.148-.148-.148-.148-.147-.148-.147-.147-.147-.146-.147-.146-.146-.146-.146-.146-.145-.145-.146-.145-.144-.145-.145-.144-.144-.144-.144-.144-.144-.143-.143-.144-.143-.143-.143-.142-.143-.142-.143-.142-.142-.142-.142-.141-.142-.141-.142-.141-.141-.141-.141-.141-.141-.14-.141-.14-.141-.14-.14-.14-.14-.14-.14-.14-.139-.14-.139-.14-.139-.139-.139-.14-.139-.139-.139-.138-.139-.139-.139-.138-.139-.138-.139-.138-.139-.138-.138-.138-.139-.138-.138-.138-.138-.138-.138-.138-.138-.138-.138-.138-.138-.137-.138-.138-.138-.138-.137-.138-.138-.138-.137H437h-.138-.137-.138-.138-.138-.137-.138-.138-.138-.138-.137-.138-.138-.138-.138-.138-.138-.138-.138-.138-.138-.138-.138-.139-.138-.138-.138-.139-.138-.139-.138-.139-.138-.139-.139-.139-.138-.139-.139-.139-.14-.139-.139-.139-.14-.139-.14-.139-.14-.14-.14-.14-.14-.14-.14-.141-.14-.141-.14-.141-.141-.141-.141-.141-.141-.142-.141-.142-.141-.142-.142-.142-.142-.143-.142-.143-.142-.143-.143-.143-.144-.143-.143-.144-.144-.144-.144-.144-.144-.145-.145-.144-.145-.146-.145-.145-.146-.146-.146-.146-.146-.147-.146-.147-.147-.147-.148-.147-.148-.148-.148-.148-.149-.148-.149-.149-.149-.15-.149-.15-.15-.151-.15-.151-.151-.151-.151-.151-.152-.152-.152-.153-.152-.153-.153-.153-.154-.154-.154-.154-.154-.155-.155-.155-.156-.155-.156-.156-.157-.157-.157-.157-.157-.158-.158-.158-.159-.158-.159-.16-.159-.16-.16-.161-.16-.161-.161-.162-.162-.162-.162-.163-.163-.163-.164-.163-.165-.164-.165-.165-.165-.166-.166-.166-.167-.167-.167-.167-.168-.168-.169-.169-.169-.169-.17-.17-.171-.17-.172-.171-.172-.172-.172-.173-.173-.174-.174-.174-.175-.175-.175-.176-.176-.176-.177-.177-.177-.178-.178-.179-.179-.179-.18-.18-.18-.181-.181-.182-.182-.182-.183-.183-.184-.184-.184-.185-.185-.186-.186-.186-.187-.187-.187-.188-.189-.189-.189-.189-.191-.19-.191-.191-.192-.192-.193H397v3zm78.5-1.5v94.01h3V60h-3zm1.5 92.51H184v3h293v-3zm-294.5 1.5V261h3V154.01h-3zM184 262.5h99v-3h-99v3z"/><path fill-rule="evenodd" d="M541.043 43.909a10 10 0 0 1 11.258-8.559L973.86 92.778a10.01 10.01 0 0 1 8.56 11.258l-1.52 11.096c-.6-.207-1.23-.358-1.89-.447-5.47-.746-10.51 3.086-11.26 8.558a10.01 10.01 0 0 0 8.56 11.259c.66.089 1.31.113 1.95.075l-1.54 11.251a9.99 9.99 0 0 1-11.25 8.558L543.908 96.958A10 10 0 0 1 535.35 85.7l1.509-11.076c5.282.463 10.051-3.302 10.774-8.613s-2.864-10.215-8.078-11.181l1.488-10.921z"/></g><path d="M571.656 84.36l3.153-23.146 3.234.441-.384 2.822c.64-.903 1.495-1.573 2.566-2.008 1.093-.433 2.273-.562 3.541-.39 2.199.3 3.839 1.223 4.92 2.769s1.433 3.705 1.055 6.474l-.086.634c-.259 1.902-.772 3.458-1.54 4.667-.765 1.188-1.719 2.027-2.862 2.517s-2.434.637-3.871.441c-1.205-.164-2.268-.578-3.189-1.242s-1.529-1.5-1.822-2.509l-1.227 9.005-3.488-.475zm9.316-7.935c1.311.178 2.43-.132 3.357-.931s1.519-2.14 1.775-4.021l.086-.634c.242-1.776.03-3.139-.637-4.091-.664-.973-1.673-1.552-3.026-1.736-.782-.107-1.555-.04-2.32.201-.744.243-1.382.662-1.915 1.257-.512.598-.834 1.383-.967 2.355l-.302 2.219c-.144 1.057-.054 1.974.271 2.75a4.44 4.44 0 0 0 1.496 1.819c.652.433 1.379.705 2.182.814zm15.922 5.269c-1.205-.164-2.21-.527-3.016-1.089a4.83 4.83 0 0 1-1.675-2.166c-.335-.864-.434-1.792-.299-2.786.228-1.67.893-2.839 1.996-3.507 1.105-.689 2.62-.903 4.544-.641l5.231.713.126-.919c.172-1.268.005-2.174-.502-2.717-.484-.561-1.328-.924-2.533-1.088-1.078-.147-1.893-.086-2.447.183a1.96 1.96 0 0 0-1.078 1.274l-3.392-.462c.196-.964.619-1.778 1.269-2.443s1.501-1.141 2.552-1.428c1.073-.285 2.296-.333 3.67-.146s2.539.561 3.496 1.122c.978.564 1.68 1.338 2.106 2.322.45.965.574 2.188.372 3.668l-.911 6.69-.288 2.35-.105 1.956-3.171-.432.01-1.258.141-1.273c-.508.728-1.298 1.309-2.369 1.744-1.047.418-2.289.528-3.727.332zm1.366-2.914c.803.109 1.551.071 2.244-.114.714-.183 1.309-.521 1.786-1.016.497-.492.799-1.129.906-1.911l.125-.919-4.597-.626c-.888-.121-1.633-.029-2.234.277-.58.308-.921.833-1.022 1.572-.095.698.072 1.291.501 1.78.449.492 1.213.811 2.291.958zm18.778 5.659c-1.501-.205-2.81-.706-3.929-1.505s-1.94-1.879-2.465-3.242c-.503-1.36-.624-3.002-.362-4.926l.086-.634c.248-1.818.815-3.291 1.7-4.419.907-1.125 2.005-1.912 3.293-2.361 1.292-.47 2.645-.609 4.062-.416 1.479.201 2.692.625 3.637 1.271.967.648 1.677 1.445 2.129 2.389.474.947.722 1.971.744 3.073l-3.551-.484c-.105-.811-.397-1.507-.878-2.09s-1.312-.954-2.496-1.115c-.782-.106-1.536-.026-2.261.241-.705.27-1.311.769-1.819 1.496-.505.706-.841 1.672-1.008 2.898l-.087.634c-.181 1.332-.127 2.437.162 3.316.292.858.74 1.522 1.344 1.992.627.451 1.332.73 2.114.837.993.135 1.827.023 2.5-.338s1.21-.976 1.609-1.848l3.551.484c-.373 1.155-.956 2.12-1.751 2.894-.77.756-1.695 1.298-2.773 1.625s-2.261.402-3.551.227zm10.66 1.096l2.289-16.804 14.585 1.987-2.289 16.804-3.488-.475 1.884-13.824-7.61-1.037-1.883 13.825-3.488-.476zm19.012 2.59l2.289-16.804 3.488.475-1.62 11.89 9.705-10.789 3.329.454-2.289 16.805-3.488-.476 1.62-11.89-9.705 10.789-3.329-.454zm26.28 3.936c-1.501-.205-2.81-.706-3.929-1.504s-1.94-1.879-2.465-3.243c-.503-1.36-.624-3.002-.362-4.926l.086-.634c.248-1.818.815-3.291 1.7-4.419.907-1.125 2.005-1.912 3.293-2.361 1.292-.47 2.645-.609 4.062-.416 1.479.202 2.692.625 3.637 1.271.967.648 1.677 1.445 2.129 2.389.474.948.722 1.972.744 3.073l-3.551-.484c-.105-.811-.397-1.507-.878-2.089s-1.312-.954-2.496-1.115c-.782-.106-1.536-.026-2.261.241-.705.27-1.311.769-1.819 1.497-.505.706-.841 1.672-1.008 2.898l-.087.634c-.181 1.332-.127 2.437.162 3.316.292.858.74 1.522 1.344 1.992.627.451 1.332.73 2.114.837.993.135 1.827.023 2.5-.338s1.21-.976 1.608-1.847l3.552.483c-.373 1.155-.957 2.12-1.751 2.895-.77.756-1.695 1.297-2.773 1.624s-2.261.403-3.551.227zm15.527 2.115c-1.205-.164-2.211-.527-3.017-1.089-.782-.58-1.34-1.302-1.675-2.166s-.434-1.792-.298-2.786c.227-1.67.892-2.839 1.995-3.507 1.106-.689 2.621-.902 4.544-.64l5.232.713.125-.92c.173-1.268.006-2.174-.502-2.716-.483-.562-1.327-.924-2.532-1.088-1.078-.147-1.894-.086-2.447.183s-.913.694-1.078 1.274l-3.393-.462c.196-.964.619-1.778 1.27-2.443s1.501-1.141 2.552-1.429c1.072-.284 2.295-.333 3.669-.146s2.54.561 3.497 1.122c.978.564 1.68 1.337 2.106 2.321.449.966.573 2.188.372 3.668l-.912 6.69-.287 2.351a19.03 19.03 0 0 0-.105 1.956l-3.171-.432.01-1.259.141-1.272c-.508.727-1.298 1.309-2.369 1.744-1.048.417-2.29.528-3.727.332zm1.366-2.914c.803.109 1.551.071 2.244-.114.713-.183 1.309-.522 1.785-1.017.498-.492.8-1.129.906-1.911l.126-.919-4.598-.627c-.888-.121-1.632-.028-2.234.277-.58.309-.921.833-1.021 1.573-.095.697.071 1.291.5 1.78.45.492 1.214.811 2.292.958zm11.85 4.359l2.289-16.805 3.488.476-.92 6.753 7.927 1.08.92-6.754 3.487.476-2.289 16.804-3.488-.475.963-7.071-7.926-1.079-.964 7.07-3.487-.475zm19.352 2.637l2.289-16.805 3.488.475-1.62 11.89 9.706-10.789 3.329.454-2.289 16.805-3.488-.475 1.62-11.891-9.706 10.789-3.329-.453zm26.598 3.978c-1.48-.201-2.802-.694-3.965-1.477-1.161-.804-2.035-1.892-2.624-3.264s-.749-3.03-.484-4.975l.086-.634c.253-1.86.823-3.354 1.709-4.482.906-1.125 2.003-1.902 3.288-2.329 1.289-.449 2.641-.577 4.057-.384 2.558.348 4.419 1.301 5.585 2.86 1.187 1.561 1.606 3.62 1.258 6.178l-.242 1.776-12.303-1.676c-.113 1.147.005 2.099.354 2.858s.85 1.343 1.505 1.755c.657.391 1.387.641 2.19.75 1.205.164 2.108.094 2.71-.212.622-.303 1.081-.746 1.376-1.33l3.488.475c-.566 1.624-1.574 2.778-3.023 3.463-1.429.689-3.084.904-4.965.648zm1.811-14.48c-.782-.106-1.53-.068-2.244.114a3.73 3.73 0 0 0-1.826 1.076c-.503.534-.844 1.295-1.021 2.283l8.814 1.2c.123-1.059.035-1.911-.265-2.555s-.751-1.125-1.354-1.444c-.599-.34-1.301-.564-2.104-.674zm23.398 17.914c-1.31-.178-2.441-.569-3.392-1.172s-1.697-1.373-2.237-2.307c-.538-.956-.831-2.04-.881-3.253l3.551.484c.151.946.503 1.683 1.055 2.21.574.531 1.347.862 2.319.995 1.142.155 2.149-.052 3.024-.622s1.504-1.636 1.889-3.198l-6.215-.847.397-2.917 6.215.847c.024-1.44-.321-2.542-1.035-3.306s-1.621-1.222-2.72-1.372c-1.184-.161-2.085-.026-2.704.407s-1.087 1.025-1.404 1.778l-3.552-.483a7.37 7.37 0 0 1 1.507-2.766c.71-.786 1.607-1.364 2.691-1.733 1.105-.366 2.397-.448 3.877-.247s2.768.7 3.865 1.496c1.122.777 1.948 1.826 2.478 3.147.552 1.324.704 2.895.456 4.713l-.086.634c-.262 1.923-.818 3.473-1.667 4.649s-1.909 2.001-3.179 2.474-2.687.603-4.252.389zm10.778 1.469c-.169-.023-.357-.06-.566-.11-.19-.026-.367-.071-.53-.137l.449-3.297c.06.03.217.062.471.096.592.081 1.102-.108 1.531-.566.449-.456.844-1.295 1.183-2.52.363-1.242.7-3.005 1.011-5.288l.691-5.073 12.683 1.728-2.29 16.805-3.488-.475 1.884-13.825-5.834-.794-.372 2.726c-.305 2.241-.676 4.096-1.113 5.565-.413 1.451-.899 2.569-1.458 3.354s-1.191 1.313-1.895 1.583-1.49.346-2.357.228zm26.312 3.584c-1.479-.201-2.801-.694-3.965-1.477-1.16-.804-2.035-1.892-2.623-3.264s-.75-3.03-.485-4.975l.086-.634c.254-1.86.823-3.354 1.709-4.482.907-1.125 2.003-1.902 3.289-2.329 1.288-.449 2.64-.577 4.057-.384 2.557.348 4.419 1.301 5.585 2.86 1.186 1.561 1.606 3.62 1.257 6.178l-.242 1.776-12.302-1.676c-.113 1.147.005 2.099.353 2.858s.851 1.343 1.505 1.755c.658.391 1.388.641 2.191.75 1.205.164 2.108.094 2.709-.212a2.92 2.92 0 0 0 1.377-1.33l3.487.475c-.565 1.624-1.573 2.778-3.023 3.463-1.428.689-3.083.904-4.965.648zm1.812-14.48c-.783-.106-1.531-.068-2.244.114s-1.323.541-1.826 1.076-.844 1.295-1.022 2.283l8.815 1.2c.123-1.059.034-1.911-.266-2.555s-.751-1.125-1.353-1.444c-.6-.34-1.301-.564-2.104-.674zm9.336 15.644l2.289-16.805 3.488.475-.929 6.817 1.903.259 6.826-6.014 3.932.536-8.227 7.05 6.254 9.798-4.248-.579-4.926-7.937-1.902-.259-.972 7.134-3.488-.475zm22.356 3.045l1.883-13.824-5.549-.756.406-2.981 14.586 1.987-.406 2.981-5.549-.756-1.883 13.824-3.488-.475zm11.026 7.961l3.153-23.146 3.234.441-.384 2.822c.64-.904 1.495-1.573 2.567-2.008 1.092-.433 2.272-.563 3.541-.39 2.198.3 3.838 1.223 4.919 2.769s1.433 3.705 1.056 6.474l-.087.634c-.259 1.903-.772 3.458-1.54 4.667-.764 1.188-1.718 2.027-2.862 2.517s-2.433.637-3.871.441c-1.205-.164-2.268-.578-3.189-1.242s-1.529-1.5-1.822-2.508L858 123.368l-3.488-.475zm9.317-7.935c1.31.179 2.429-.132 3.356-.931s1.519-2.14 1.775-4.021l.086-.635c.242-1.775.03-3.139-.637-4.091-.664-.973-1.673-1.552-3.025-1.736-.783-.107-1.556-.04-2.321.2-.743.243-1.382.662-1.915 1.257-.512.598-.834 1.383-.967 2.355l-.302 2.22c-.144 1.057-.054 1.973.271 2.75.349.758.848 1.364 1.496 1.818a5.14 5.14 0 0 0 2.183.814zm11.054 4.251l2.29-16.804 3.487.475-1.619 11.89 9.705-10.789 3.329.454-2.289 16.804-3.488-.475 1.62-11.89-9.705 10.789-3.33-.454zm29.182 3.976l.877-6.437c-.527.23-1.144.415-1.852.555-.687.144-1.548.145-2.584.003-2.008-.273-3.476-.957-4.403-2.053s-1.25-2.678-.968-4.75l.756-5.548 3.488.475-.691 5.073c-.173 1.268-.04 2.19.398 2.767.462.558 1.338.925 2.627 1.101.888.121 1.641.126 2.259.017.641-.128 1.092-.271 1.35-.43l1.032-7.578 3.488.475-2.289 16.805-3.488-.475zm15.158 2.42c-1.479-.202-2.801-.694-3.965-1.477-1.16-.804-2.035-1.892-2.623-3.264s-.75-3.03-.485-4.975l.086-.634c.254-1.86.823-3.354 1.709-4.482.907-1.125 2.003-1.902 3.289-2.33 1.288-.449 2.64-.577 4.057-.384 2.557.349 4.419 1.302 5.585 2.86 1.186 1.562 1.606 3.621 1.257 6.179l-.242 1.775-12.302-1.676c-.113 1.148.005 2.1.353 2.858s.851 1.343 1.505 1.755c.658.391 1.388.642 2.191.751 1.205.164 2.108.093 2.709-.212.623-.303 1.082-.746 1.377-1.331l3.487.476c-.565 1.623-1.573 2.778-3.023 3.463-1.428.688-3.083.904-4.965.648zm1.812-14.48c-.783-.107-1.531-.069-2.244.114a3.73 3.73 0 0 0-1.826 1.075c-.504.535-.844 1.296-1.022 2.283l8.815 1.201c.123-1.06.034-1.911-.266-2.555a3.03 3.03 0 0 0-1.353-1.444c-.6-.34-1.301-.565-2.104-.674zm9.336 15.643l2.289-16.804 3.488.475-.929 6.817 1.903.259 6.826-6.014 3.932.536-8.227 7.05 6.254 9.798-4.248-.579-4.926-7.937-1.902-.26-.972 7.134-3.488-.475z" fill="#000"/></g><defs><clipPath id="C"><path fill="#fff" d="M0 0h983v319H0z"/></clipPath></defs></svg>