<svg width="983" height="319" viewBox="0 0 983 319" fill="none" xmlns="http://www.w3.org/2000/svg">
<g clip-path="url(#clip0_42_194)">
<path d="M403.774 196V222.4H315.454V316H287.294V196H403.774ZM466.069 196C474.389 196 482.175 197.6 489.429 200.8C496.682 203.893 503.029 208.16 508.469 213.6C513.909 219.04 518.175 225.387 521.269 232.64C524.469 239.893 526.069 247.68 526.069 256C526.069 264.32 524.469 272.107 521.269 279.36C518.175 286.613 513.909 292.96 508.469 298.4C503.029 303.84 496.682 308.16 489.429 311.36C482.175 314.453 474.389 316 466.069 316C457.749 316 449.962 314.453 442.709 311.36C435.455 308.16 429.109 303.84 423.669 298.4C418.229 292.96 413.909 286.613 410.709 279.36C407.615 272.107 406.069 264.32 406.069 256C406.069 247.68 407.615 239.893 410.709 232.64C413.909 225.387 418.229 219.04 423.669 213.6C429.109 208.16 435.455 203.893 442.709 200.8C449.962 197.6 457.749 196 466.069 196ZM500.149 221.92H431.989V290.08H500.149V221.92ZM622.599 268.96H569.159V316H542.919V196H622.599C627.612 196 632.305 196.96 636.679 198.88C641.159 200.8 645.052 203.413 648.359 206.72C651.665 210.027 654.279 213.92 656.199 218.4C658.119 222.773 659.079 227.467 659.079 232.48C659.079 237.493 658.119 242.24 656.199 246.72C654.279 251.093 651.665 254.933 648.359 258.24C645.052 261.547 641.159 264.16 636.679 266.08C632.305 268 627.612 268.96 622.599 268.96ZM569.159 222.08V243.04H633.159V222.08H569.159ZM732.631 196C740.951 196 748.738 197.6 755.991 200.8C763.245 203.893 769.591 208.16 775.031 213.6C780.471 219.04 784.738 225.387 787.831 232.64C791.031 239.893 792.631 247.68 792.631 256C792.631 264.32 791.031 272.107 787.831 279.36C784.738 286.613 780.471 292.96 775.031 298.4C769.591 303.84 763.245 308.16 755.991 311.36C748.738 314.453 740.951 316 732.631 316C724.311 316 716.525 314.453 709.271 311.36C702.018 308.16 695.671 303.84 690.231 298.4C684.791 292.96 680.471 286.613 677.271 279.36C674.178 272.107 672.631 264.32 672.631 256C672.631 247.68 674.178 239.893 677.271 232.64C680.471 225.387 684.791 219.04 690.231 213.6C695.671 208.16 702.018 203.893 709.271 200.8C716.525 197.6 724.311 196 732.631 196ZM766.711 221.92H698.551V290.08H766.711V221.92ZM852.311 196H899.991L937.591 289.6H959.351V316H792.631V289.6H814.711L852.311 196ZM911.191 289.6L877.111 204.8H875.191L841.111 289.6H911.191Z" fill="white"/>
<mask id="mask0_42_194" style="mask-type:luminance" maskUnits="userSpaceOnUse" x="284" y="193" width="679" height="126">
<path d="M963 193H284V319H963V193Z" fill="white"/>
<path d="M403.774 196V222.4H315.454V316H287.294V196H403.774ZM466.069 196C474.389 196 482.175 197.6 489.429 200.8C496.682 203.893 503.029 208.16 508.469 213.6C513.909 219.04 518.175 225.387 521.269 232.64C524.469 239.893 526.069 247.68 526.069 256C526.069 264.32 524.469 272.107 521.269 279.36C518.175 286.613 513.909 292.96 508.469 298.4C503.029 303.84 496.682 308.16 489.429 311.36C482.175 314.453 474.389 316 466.069 316C457.749 316 449.962 314.453 442.709 311.36C435.455 308.16 429.109 303.84 423.669 298.4C418.229 292.96 413.909 286.613 410.709 279.36C407.615 272.107 406.069 264.32 406.069 256C406.069 247.68 407.615 239.893 410.709 232.64C413.909 225.387 418.229 219.04 423.669 213.6C429.109 208.16 435.455 203.893 442.709 200.8C449.962 197.6 457.749 196 466.069 196ZM500.149 221.92H431.989V290.08H500.149V221.92ZM622.599 268.96H569.159V316H542.919V196H622.599C627.612 196 632.305 196.96 636.679 198.88C641.159 200.8 645.052 203.413 648.359 206.72C651.665 210.027 654.279 213.92 656.199 218.4C658.119 222.773 659.079 227.467 659.079 232.48C659.079 237.493 658.119 242.24 656.199 246.72C654.279 251.093 651.665 254.933 648.359 258.24C645.052 261.547 641.159 264.16 636.679 266.08C632.305 268 627.612 268.96 622.599 268.96ZM569.159 222.08V243.04H633.159V222.08H569.159ZM732.631 196C740.951 196 748.738 197.6 755.991 200.8C763.245 203.893 769.591 208.16 775.031 213.6C780.471 219.04 784.738 225.387 787.831 232.64C791.031 239.893 792.631 247.68 792.631 256C792.631 264.32 791.031 272.107 787.831 279.36C784.738 286.613 780.471 292.96 775.031 298.4C769.591 303.84 763.245 308.16 755.991 311.36C748.738 314.453 740.951 316 732.631 316C724.311 316 716.525 314.453 709.271 311.36C702.018 308.16 695.671 303.84 690.231 298.4C684.791 292.96 680.471 286.613 677.271 279.36C674.178 272.107 672.631 264.32 672.631 256C672.631 247.68 674.178 239.893 677.271 232.64C680.471 225.387 684.791 219.04 690.231 213.6C695.671 208.16 702.018 203.893 709.271 200.8C716.525 197.6 724.311 196 732.631 196ZM766.711 221.92H698.551V290.08H766.711V221.92ZM852.311 196H899.991L937.591 289.6H959.351V316H792.631V289.6H814.711L852.311 196ZM911.191 289.6L877.111 204.8H875.191L841.111 289.6H911.191Z" fill="black"/>
</mask>
<g mask="url(#mask0_42_194)">
<path d="M403.774 196H406.774V193H403.774V196ZM403.774 222.4V225.4H406.774V222.4H403.774ZM315.454 222.4V219.4H312.454V222.4H315.454ZM315.454 316V319H318.454V316H315.454ZM287.294 316H284.294V319H287.294V316ZM287.294 196V193H284.294V196H287.294ZM400.774 196V222.4H406.774V196H400.774ZM403.774 219.4H315.454V225.4H403.774V219.4ZM312.454 222.4V316H318.454V222.4H312.454ZM315.454 313H287.294V319H315.454V313ZM290.294 316V196H284.294V316H290.294ZM287.294 199H403.774V193H287.294V199ZM489.429 200.8L488.218 203.545L488.235 203.552L488.252 203.56L489.429 200.8ZM521.269 232.64L518.509 233.817L518.517 233.834L518.524 233.851L521.269 232.64ZM521.269 279.36L518.524 278.149L518.517 278.166L518.509 278.183L521.269 279.36ZM489.429 311.36L490.606 314.12L490.623 314.112L490.64 314.105L489.429 311.36ZM442.709 311.36L441.498 314.105L441.515 314.112L441.532 314.12L442.709 311.36ZM410.709 279.36L407.949 280.537L407.957 280.554L407.964 280.571L410.709 279.36ZM410.709 232.64L407.964 231.429L407.957 231.446L407.949 231.463L410.709 232.64ZM442.709 200.8L443.886 203.56L443.903 203.552L443.92 203.545L442.709 200.8ZM500.149 221.92H503.149V218.92H500.149V221.92ZM431.989 221.92V218.92H428.989V221.92H431.989ZM431.989 290.08H428.989V293.08H431.989V290.08ZM500.149 290.08V293.08H503.149V290.08H500.149ZM466.069 199C473.993 199 481.365 200.521 488.218 203.545L490.64 198.055C482.986 194.679 474.785 193 466.069 193V199ZM488.252 203.56C495.162 206.506 501.185 210.559 506.347 215.721L510.59 211.479C504.872 205.761 498.203 201.28 490.606 198.04L488.252 203.56ZM506.347 215.721C511.509 220.883 515.562 226.907 518.509 233.817L524.028 231.463C520.788 223.866 516.308 217.197 510.59 211.479L506.347 215.721ZM518.524 233.851C521.547 240.704 523.069 248.076 523.069 256H529.069C529.069 247.284 527.39 239.083 524.014 231.429L518.524 233.851ZM523.069 256C523.069 263.924 521.547 271.296 518.524 278.149L524.014 280.571C527.39 272.917 529.069 264.716 529.069 256H523.069ZM518.509 278.183C515.562 285.093 511.509 291.117 506.347 296.279L510.59 300.521C516.308 294.803 520.788 288.134 524.028 280.537L518.509 278.183ZM506.347 296.279C501.178 301.448 495.142 305.56 488.218 308.615L490.64 314.105C498.222 310.76 504.88 306.232 510.59 300.521L506.347 296.279ZM488.252 308.6C481.391 311.526 474.007 313 466.069 313V319C474.771 319 482.96 317.38 490.606 314.12L488.252 308.6ZM466.069 313C458.131 313 450.747 311.526 443.886 308.6L441.532 314.12C449.178 317.38 457.367 319 466.069 319V313ZM443.92 308.615C436.995 305.56 430.96 301.448 425.79 296.279L421.547 300.521C427.258 306.232 433.916 310.76 441.498 314.105L443.92 308.615ZM425.79 296.279C420.62 291.109 416.508 285.074 413.454 278.149L407.964 280.571C411.309 288.153 415.837 294.811 421.547 300.521L425.79 296.279ZM413.468 278.183C410.542 271.322 409.069 263.938 409.069 256H403.069C403.069 264.702 404.689 272.891 407.949 280.537L413.468 278.183ZM409.069 256C409.069 248.062 410.542 240.678 413.468 233.817L407.949 231.463C404.689 239.109 403.069 247.298 403.069 256H409.069ZM413.454 233.851C416.508 226.926 420.62 220.891 425.79 215.721L421.547 211.479C415.837 217.189 411.309 223.847 407.964 231.429L413.454 233.851ZM425.79 215.721C430.952 210.559 436.976 206.506 443.886 203.56L441.532 198.04C433.935 201.28 427.265 205.761 421.547 211.479L425.79 215.721ZM443.92 203.545C450.773 200.521 458.145 199 466.069 199V193C457.353 193 449.151 194.679 441.498 198.055L443.92 203.545ZM500.149 218.92H431.989V224.92H500.149V218.92ZM428.989 221.92V290.08H434.989V221.92H428.989ZM431.989 293.08H500.149V287.08H431.989V293.08ZM503.149 290.08V221.92H497.149V290.08H503.149ZM569.159 268.96V265.96H566.159V268.96H569.159ZM569.159 316V319H572.159V316H569.159ZM542.919 316H539.919V319H542.919V316ZM542.919 196V193H539.919V196H542.919ZM636.679 198.88L635.473 201.627L635.485 201.632L635.497 201.637L636.679 198.88ZM656.199 218.4L653.441 219.582L653.447 219.594L653.452 219.606L656.199 218.4ZM656.199 246.72L658.946 247.926L658.951 247.914L658.956 247.902L656.199 246.72ZM636.679 266.08L635.497 263.323L635.485 263.328L635.473 263.333L636.679 266.08ZM569.159 222.08V219.08H566.159V222.08H569.159ZM569.159 243.04H566.159V246.04H569.159V243.04ZM633.159 243.04V246.04H636.159V243.04H633.159ZM633.159 222.08H636.159V219.08H633.159V222.08ZM622.599 265.96H569.159V271.96H622.599V265.96ZM566.159 268.96V316H572.159V268.96H566.159ZM569.159 313H542.919V319H569.159V313ZM545.919 316V196H539.919V316H545.919ZM542.919 199H622.599V193H542.919V199ZM622.599 199C627.218 199 631.498 199.882 635.473 201.627L637.885 196.133C633.112 194.038 628.006 193 622.599 193V199ZM635.497 201.637C639.641 203.414 643.212 205.816 646.237 208.841L650.48 204.599C646.892 201.011 642.676 198.186 637.861 196.123L635.497 201.637ZM646.237 208.841C649.263 211.867 651.665 215.437 653.441 219.582L658.956 217.218C656.892 212.403 654.068 208.187 650.48 204.599L646.237 208.841ZM653.452 219.606C655.197 223.58 656.079 227.861 656.079 232.48H662.079C662.079 227.073 661.041 221.966 658.946 217.194L653.452 219.606ZM656.079 232.48C656.079 237.099 655.197 241.442 653.441 245.538L658.956 247.902C661.041 243.038 662.079 237.888 662.079 232.48H656.079ZM653.452 245.514C651.678 249.553 649.275 253.081 646.237 256.119L650.48 260.361C654.056 256.785 656.879 252.633 658.946 247.926L653.452 245.514ZM646.237 256.119C643.212 259.144 639.641 261.546 635.497 263.323L637.861 268.837C642.676 266.774 646.892 263.949 650.48 260.361L646.237 256.119ZM635.473 263.333C631.498 265.078 627.218 265.96 622.599 265.96V271.96C628.006 271.96 633.112 270.922 637.885 268.827L635.473 263.333ZM566.159 222.08V243.04H572.159V222.08H566.159ZM569.159 246.04H633.159V240.04H569.159V246.04ZM636.159 243.04V222.08H630.159V243.04H636.159ZM633.159 219.08H569.159V225.08H633.159V219.08ZM755.991 200.8L754.78 203.545L754.797 203.552L754.814 203.56L755.991 200.8ZM787.831 232.64L785.072 233.817L785.079 233.834L785.087 233.851L787.831 232.64ZM787.831 279.36L785.087 278.149L785.079 278.166L785.072 278.183L787.831 279.36ZM755.991 311.36L757.168 314.12L757.185 314.112L757.202 314.105L755.991 311.36ZM709.271 311.36L708.06 314.105L708.077 314.112L708.094 314.12L709.271 311.36ZM677.271 279.36L674.512 280.537L674.519 280.554L674.526 280.571L677.271 279.36ZM677.271 232.64L674.526 231.429L674.519 231.446L674.512 231.463L677.271 232.64ZM709.271 200.8L710.448 203.56L710.465 203.552L710.482 203.545L709.271 200.8ZM766.711 221.92H769.711V218.92H766.711V221.92ZM698.551 221.92V218.92H695.551V221.92H698.551ZM698.551 290.08H695.551V293.08H698.551V290.08ZM766.711 290.08V293.08H769.711V290.08H766.711ZM732.631 199C740.555 199 747.927 200.521 754.78 203.545L757.202 198.055C749.549 194.679 741.347 193 732.631 193V199ZM754.814 203.56C761.724 206.506 767.748 210.559 772.91 215.721L777.153 211.479C771.435 205.761 764.765 201.28 757.168 198.04L754.814 203.56ZM772.91 215.721C778.072 220.883 782.125 226.907 785.072 233.817L790.591 231.463C787.351 223.866 782.871 217.197 777.153 211.479L772.91 215.721ZM785.087 233.851C788.11 240.704 789.631 248.076 789.631 256H795.631C795.631 247.284 793.953 239.083 790.576 231.429L785.087 233.851ZM789.631 256C789.631 263.924 788.11 271.296 785.087 278.149L790.576 280.571C793.953 272.917 795.631 264.716 795.631 256H789.631ZM785.072 278.183C782.125 285.093 778.072 291.117 772.91 296.279L777.153 300.521C782.871 294.803 787.351 288.134 790.591 280.537L785.072 278.183ZM772.91 296.279C767.74 301.448 761.705 305.56 754.78 308.615L757.202 314.105C764.784 310.76 771.442 306.232 777.153 300.521L772.91 296.279ZM754.814 308.6C747.953 311.526 740.569 313 732.631 313V319C741.333 319 749.522 317.38 757.168 314.12L754.814 308.6ZM732.631 313C724.693 313 717.309 311.526 710.448 308.6L708.094 314.12C715.74 317.38 723.929 319 732.631 319V313ZM710.482 308.615C703.558 305.56 697.522 301.448 692.353 296.279L688.11 300.521C693.82 306.232 700.478 310.76 708.06 314.105L710.482 308.615ZM692.353 296.279C687.183 291.109 683.071 285.074 680.016 278.149L674.526 280.571C677.872 288.153 682.4 294.811 688.11 300.521L692.353 296.279ZM680.031 278.183C677.105 271.322 675.631 263.938 675.631 256H669.631C669.631 264.702 671.251 272.891 674.512 280.537L680.031 278.183ZM675.631 256C675.631 248.062 677.105 240.678 680.031 233.817L674.512 231.463C671.251 239.109 669.631 247.298 669.631 256H675.631ZM680.016 233.851C683.071 226.926 687.183 220.891 692.353 215.721L688.11 211.479C682.4 217.189 677.872 223.847 674.526 231.429L680.016 233.851ZM692.353 215.721C697.515 210.559 703.538 206.506 710.448 203.56L708.094 198.04C700.497 201.28 693.828 205.761 688.11 211.479L692.353 215.721ZM710.482 203.545C717.335 200.521 724.707 199 732.631 199V193C723.915 193 715.714 194.679 708.06 198.055L710.482 203.545ZM766.711 218.92H698.551V224.92H766.711V218.92ZM695.551 221.92V290.08H701.551V221.92H695.551ZM698.551 293.08H766.711V287.08H698.551V293.08ZM769.711 290.08V221.92H763.711V290.08H769.711ZM852.311 196V193H850.283L849.527 194.882L852.311 196ZM899.991 196L902.775 194.882L902.019 193H899.991V196ZM937.591 289.6L934.807 290.718L935.563 292.6H937.591V289.6ZM959.351 289.6H962.35V286.6H959.351V289.6ZM959.351 316V319H962.35V316H959.351ZM792.631 316H789.631V319H792.631V316ZM792.631 289.6V286.6H789.631V289.6H792.631ZM814.711 289.6V292.6H816.739L817.495 290.718L814.711 289.6ZM911.191 289.6V292.6H915.63L913.975 288.481L911.191 289.6ZM877.111 204.8L879.895 203.681L879.139 201.8H877.111V204.8ZM875.191 204.8V201.8H873.164L872.408 203.681L875.191 204.8ZM841.111 289.6L838.328 288.481L836.672 292.6H841.111V289.6ZM852.311 199H899.991V193H852.311V199ZM897.207 197.118L934.807 290.718L940.375 288.482L902.775 194.882L897.207 197.118ZM937.591 292.6H959.351V286.6H937.591V292.6ZM956.351 289.6V316H962.35V289.6H956.351ZM959.351 313H792.631V319H959.351V313ZM795.631 316V289.6H789.631V316H795.631ZM792.631 292.6H814.711V286.6H792.631V292.6ZM817.495 290.718L855.095 197.118L849.527 194.882L811.927 288.482L817.495 290.718ZM913.975 288.481L879.895 203.681L874.328 205.919L908.408 290.719L913.975 288.481ZM877.111 201.8H875.191V207.8H877.111V201.8ZM872.408 203.681L838.328 288.481L843.895 290.719L877.975 205.919L872.408 203.681ZM841.111 292.6H911.191V286.6H841.111V292.6Z" fill="black"/>
</g>
<path d="M111.391 122.52H85.151V29.24H29.4713V123H3.2313V3H111.391V122.52ZM213.536 75.96H160.096V123H133.856V3H213.536C218.55 3 223.243 3.96 227.616 5.88C232.096 7.8 235.99 10.4133 239.296 13.72C242.603 17.0267 245.216 20.92 247.136 25.4C249.056 29.7733 250.016 34.4667 250.016 39.48C250.016 44.4933 249.056 49.24 247.136 53.72C245.216 58.0933 242.603 61.9333 239.296 65.24C235.99 68.5467 232.096 71.16 227.616 73.08C223.243 75 218.55 75.96 213.536 75.96ZM160.096 29.08V50.04H224.096V29.08H160.096ZM393.809 3V123H367.409V11.8H365.329L320.689 123H269.169V3H295.569V114.2H297.809L342.449 3H393.809Z" fill="white"/>
<mask id="mask1_42_194" style="mask-type:luminance" maskUnits="userSpaceOnUse" x="0" y="0" width="397" height="126">
<path d="M397 0H0V126H397V0Z" fill="white"/>
<path d="M111.391 122.52H85.151V29.24H29.4713V123H3.2313V3H111.391V122.52ZM213.536 75.96H160.096V123H133.856V3H213.536C218.55 3 223.243 3.96 227.616 5.88C232.096 7.8 235.99 10.4133 239.296 13.72C242.603 17.0267 245.216 20.92 247.136 25.4C249.056 29.7733 250.016 34.4667 250.016 39.48C250.016 44.4933 249.056 49.24 247.136 53.72C245.216 58.0933 242.603 61.9333 239.296 65.24C235.99 68.5467 232.096 71.16 227.616 73.08C223.243 75 218.55 75.96 213.536 75.96ZM160.096 29.08V50.04H224.096V29.08H160.096ZM393.809 3V123H367.409V11.8H365.329L320.689 123H269.169V3H295.569V114.2H297.809L342.449 3H393.809Z" fill="black"/>
</mask>
<g mask="url(#mask1_42_194)">
<path d="M111.391 122.52V125.52H114.391V122.52H111.391ZM85.151 122.52H82.151V125.52H85.151V122.52ZM85.151 29.24H88.151V26.24H85.151V29.24ZM29.4713 29.24V26.24H26.4713V29.24H29.4713ZM29.4713 123V126H32.4713V123H29.4713ZM3.2313 123H0.2313V126H3.2313V123ZM3.2313 3V0H0.2313V3H3.2313ZM111.391 3H114.391V0H111.391V3ZM111.391 119.52H85.151V125.52H111.391V119.52ZM88.151 122.52V29.24H82.151V122.52H88.151ZM85.151 26.24H29.4713V32.24H85.151V26.24ZM26.4713 29.24V123H32.4713V29.24H26.4713ZM29.4713 120H3.2313V126H29.4713V120ZM6.2313 123V3H0.2313V123H6.2313ZM3.2313 6H111.391V0H3.2313V6ZM108.391 3V122.52H114.391V3H108.391ZM160.096 75.96V72.96H157.096V75.96H160.096ZM160.096 123V126H163.096V123H160.096ZM133.856 123H130.856V126H133.856V123ZM133.856 3V0H130.856V3H133.856ZM227.616 5.88L226.41 8.6269L226.422 8.6322L226.434 8.6374L227.616 5.88ZM247.136 25.4L244.379 26.5818L244.384 26.5939L244.389 26.606L247.136 25.4ZM247.136 53.72L249.883 54.926L249.888 54.9139L249.894 54.9018L247.136 53.72ZM227.616 73.08L226.434 70.3226L226.422 70.3278L226.41 70.3331L227.616 73.08ZM160.096 29.08V26.08H157.096V29.08H160.096ZM160.096 50.04H157.096V53.04H160.096V50.04ZM224.096 50.04V53.04H227.096V50.04H224.096ZM224.096 29.08H227.096V26.08H224.096V29.08ZM213.536 72.96H160.096V78.96H213.536V72.96ZM157.096 75.96V123H163.096V75.96H157.096ZM160.096 120H133.856V126H160.096V120ZM136.856 123V3H130.856V123H136.856ZM133.856 6H213.536V0H133.856V6ZM213.536 6C218.155 6 222.436 6.8821 226.41 8.6269L228.822 3.1331C224.05 1.0379 218.944 0 213.536 0V6ZM226.434 8.6374C230.579 10.4135 234.15 12.8159 237.175 15.8413L241.418 11.5987C237.83 8.0108 233.614 5.1864 228.798 3.1226L226.434 8.6374ZM237.175 15.8413C240.2 18.8667 242.603 22.4375 244.379 26.5818L249.894 24.2182C247.83 19.4025 245.005 15.1866 241.418 11.5987L237.175 15.8413ZM244.389 26.606C246.134 30.5804 247.016 34.8608 247.016 39.48H253.016C253.016 34.0725 251.978 28.9663 249.883 24.194L244.389 26.606ZM247.016 39.48C247.016 44.0989 246.134 48.4424 244.379 52.5382L249.894 54.9018C251.978 50.0376 253.016 44.8877 253.016 39.48H247.016ZM244.389 52.514C242.616 56.5535 240.212 60.0813 237.175 63.1187L241.418 67.3613C244.994 63.7854 247.817 59.6332 249.883 54.926L244.389 52.514ZM237.175 63.1187C234.15 66.1441 230.579 68.5464 226.434 70.3226L228.798 75.8374C233.614 73.7736 237.83 70.9492 241.418 67.3613L237.175 63.1187ZM226.41 70.3331C222.436 72.0779 218.155 72.96 213.536 72.96V78.96C218.944 78.96 224.05 77.9221 228.822 75.8269L226.41 70.3331ZM157.096 29.08V50.04H163.096V29.08H157.096ZM160.096 53.04H224.096V47.04H160.096V53.04ZM227.096 50.04V29.08H221.096V50.04H227.096ZM224.096 26.08H160.096V32.08H224.096V26.08ZM393.809 3H396.809V0H393.809V3ZM393.809 123V126H396.809V123H393.809ZM367.409 123H364.409V126H367.409V123ZM367.409 11.8H370.409V8.8H367.409V11.8ZM365.329 11.8V8.8H363.3L362.545 10.6824L365.329 11.8ZM320.689 123V126H322.717L323.473 124.118L320.689 123ZM269.169 123H266.169V126H269.169V123ZM269.169 3V0H266.169V3H269.169ZM295.569 3H298.569V0H295.569V3ZM295.569 114.2H292.569V117.2H295.569V114.2ZM297.809 114.2V117.2H299.837L300.593 115.318L297.809 114.2ZM342.449 3V0H340.42L339.665 1.8824L342.449 3ZM390.809 3V123H396.809V3H390.809ZM393.809 120H367.409V126H393.809V120ZM370.409 123V11.8H364.409V123H370.409ZM367.409 8.8H365.329V14.8H367.409V8.8ZM362.545 10.6824L317.905 121.882L323.473 124.118L368.113 12.9176L362.545 10.6824ZM320.689 120H269.169V126H320.689V120ZM272.169 123V3H266.169V123H272.169ZM269.169 6H295.569V0H269.169V6ZM292.569 3V114.2H298.569V3H292.569ZM295.569 117.2H297.809V111.2H295.569V117.2ZM300.593 115.318L345.233 4.1176L339.665 1.8824L295.025 113.082L300.593 115.318ZM342.449 6H393.809V0H342.449V6Z" fill="black"/>
</g>
<path d="M389 60C389 64.4183 392.582 68 397 68C401.418 68 405 64.4183 405 60C405 55.5817 401.418 52 397 52C392.582 52 389 55.5817 389 60ZM477 60H478.5C478.5 59.1716 477.828 58.5 477 58.5V60ZM477 154.01V155.51C477.828 155.51 478.5 154.838 478.5 154.01H477ZM184 154.01V152.51C183.172 152.51 182.5 153.181 182.5 154.01H184ZM184 261H182.5C182.5 261.828 183.172 262.5 184 262.5V261ZM275 261C275 265.418 278.582 269 283 269C287.418 269 291 265.418 291 261C291 256.582 287.418 253 283 253C278.582 253 275 256.582 275 261ZM397 61.5C397.064 61.5 397.129 61.5 397.193 61.5C397.257 61.5 397.322 61.5 397.386 61.5C397.45 61.5 397.514 61.5 397.578 61.5C397.642 61.5 397.706 61.5 397.77 61.5C397.834 61.5 397.897 61.5 397.961 61.5C398.025 61.5 398.088 61.5 398.152 61.5C398.216 61.5 398.279 61.5 398.342 61.5C398.406 61.5 398.469 61.5 398.533 61.5C398.596 61.5 398.659 61.5 398.722 61.5C398.785 61.5 398.848 61.5 398.911 61.5C398.974 61.5 399.037 61.5 399.1 61.5C399.163 61.5 399.226 61.5 399.289 61.5C399.351 61.5 399.414 61.5 399.477 61.5C399.539 61.5 399.602 61.5 399.664 61.5C399.727 61.5 399.789 61.5 399.851 61.5C399.914 61.5 399.976 61.5 400.038 61.5C400.1 61.5 400.162 61.5 400.224 61.5C400.287 61.5 400.349 61.5 400.41 61.5C400.472 61.5 400.534 61.5 400.596 61.5C400.658 61.5 400.719 61.5 400.781 61.5C400.843 61.5 400.904 61.5 400.966 61.5C401.027 61.5 401.089 61.5 401.15 61.5C401.212 61.5 401.273 61.5 401.334 61.5C401.395 61.5 401.457 61.5 401.518 61.5C401.579 61.5 401.64 61.5 401.701 61.5C401.762 61.5 401.823 61.5 401.884 61.5C401.944 61.5 402.005 61.5 402.066 61.5C402.127 61.5 402.187 61.5 402.248 61.5C402.309 61.5 402.369 61.5 402.43 61.5C402.49 61.5 402.55 61.5 402.611 61.5C402.671 61.5 402.731 61.5 402.792 61.5C402.852 61.5 402.912 61.5 402.972 61.5C403.032 61.5 403.092 61.5 403.152 61.5C403.212 61.5 403.272 61.5 403.332 61.5C403.392 61.5 403.451 61.5 403.511 61.5C403.571 61.5 403.631 61.5 403.69 61.5C403.75 61.5 403.809 61.5 403.869 61.5C403.928 61.5 403.988 61.5 404.047 61.5C404.106 61.5 404.166 61.5 404.225 61.5C404.284 61.5 404.343 61.5 404.402 61.5C404.461 61.5 404.52 61.5 404.579 61.5C404.638 61.5 404.697 61.5 404.756 61.5C404.815 61.5 404.874 61.5 404.932 61.5C404.991 61.5 405.05 61.5 405.108 61.5C405.167 61.5 405.226 61.5 405.284 61.5C405.343 61.5 405.401 61.5 405.459 61.5C405.518 61.5 405.576 61.5 405.634 61.5C405.693 61.5 405.751 61.5 405.809 61.5C405.867 61.5 405.925 61.5 405.983 61.5C406.041 61.5 406.099 61.5 406.157 61.5C406.215 61.5 406.273 61.5 406.331 61.5C406.388 61.5 406.446 61.5 406.504 61.5C406.561 61.5 406.619 61.5 406.677 61.5C406.734 61.5 406.792 61.5 406.849 61.5C406.906 61.5 406.964 61.5 407.021 61.5C407.079 61.5 407.136 61.5 407.193 61.5C407.25 61.5 407.307 61.5 407.364 61.5C407.422 61.5 407.479 61.5 407.536 61.5C407.593 61.5 407.65 61.5 407.706 61.5C407.763 61.5 407.82 61.5 407.877 61.5C407.934 61.5 407.99 61.5 408.047 61.5C408.104 61.5 408.16 61.5 408.217 61.5C408.273 61.5 408.33 61.5 408.386 61.5C408.443 61.5 408.499 61.5 408.555 61.5C408.612 61.5 408.668 61.5 408.724 61.5C408.78 61.5 408.837 61.5 408.893 61.5C408.949 61.5 409.005 61.5 409.061 61.5C409.117 61.5 409.173 61.5 409.229 61.5C409.285 61.5 409.34 61.5 409.396 61.5C409.452 61.5 409.508 61.5 409.563 61.5C409.619 61.5 409.675 61.5 409.73 61.5C409.786 61.5 409.841 61.5 409.897 61.5C409.952 61.5 410.008 61.5 410.063 61.5C410.119 61.5 410.174 61.5 410.229 61.5C410.284 61.5 410.34 61.5 410.395 61.5C410.45 61.5 410.505 61.5 410.56 61.5C410.615 61.5 410.67 61.5 410.725 61.5C410.78 61.5 410.835 61.5 410.89 61.5C410.945 61.5 411 61.5 411.054 61.5C411.109 61.5 411.164 61.5 411.219 61.5C411.273 61.5 411.328 61.5 411.382 61.5C411.437 61.5 411.491 61.5 411.546 61.5C411.6 61.5 411.655 61.5 411.709 61.5C411.764 61.5 411.818 61.5 411.872 61.5C411.926 61.5 411.981 61.5 412.035 61.5C412.089 61.5 412.143 61.5 412.197 61.5C412.251 61.5 412.305 61.5 412.359 61.5C412.413 61.5 412.467 61.5 412.521 61.5C412.575 61.5 412.629 61.5 412.683 61.5C412.736 61.5 412.79 61.5 412.844 61.5C412.898 61.5 412.951 61.5 413.005 61.5C413.058 61.5 413.112 61.5 413.165 61.5C413.219 61.5 413.272 61.5 413.326 61.5C413.379 61.5 413.433 61.5 413.486 61.5C413.539 61.5 413.593 61.5 413.646 61.5C413.699 61.5 413.752 61.5 413.805 61.5C413.859 61.5 413.912 61.5 413.965 61.5C414.018 61.5 414.071 61.5 414.124 61.5C414.177 61.5 414.23 61.5 414.282 61.5C414.335 61.5 414.388 61.5 414.441 61.5C414.494 61.5 414.546 61.5 414.599 61.5C414.652 61.5 414.705 61.5 414.757 61.5C414.81 61.5 414.862 61.5 414.915 61.5C414.967 61.5 415.02 61.5 415.072 61.5C415.125 61.5 415.177 61.5 415.229 61.5C415.282 61.5 415.334 61.5 415.386 61.5C415.439 61.5 415.491 61.5 415.543 61.5C415.595 61.5 415.647 61.5 415.7 61.5C415.752 61.5 415.804 61.5 415.856 61.5C415.908 61.5 415.96 61.5 416.012 61.5C416.064 61.5 416.115 61.5 416.167 61.5C416.219 61.5 416.271 61.5 416.323 61.5C416.374 61.5 416.426 61.5 416.478 61.5C416.53 61.5 416.581 61.5 416.633 61.5C416.684 61.5 416.736 61.5 416.788 61.5C416.839 61.5 416.891 61.5 416.942 61.5C416.993 61.5 417.045 61.5 417.096 61.5C417.148 61.5 417.199 61.5 417.25 61.5C417.302 61.5 417.353 61.5 417.404 61.5C417.455 61.5 417.506 61.5 417.558 61.5C417.609 61.5 417.66 61.5 417.711 61.5C417.762 61.5 417.813 61.5 417.864 61.5C417.915 61.5 417.966 61.5 418.017 61.5C418.068 61.5 418.119 61.5 418.169 61.5C418.22 61.5 418.271 61.5 418.322 61.5C418.373 61.5 418.423 61.5 418.474 61.5C418.525 61.5 418.575 61.5 418.626 61.5C418.676 61.5 418.727 61.5 418.778 61.5C418.828 61.5 418.879 61.5 418.929 61.5C418.98 61.5 419.03 61.5 419.08 61.5C419.131 61.5 419.181 61.5 419.231 61.5C419.282 61.5 419.332 61.5 419.382 61.5C419.433 61.5 419.483 61.5 419.533 61.5C419.583 61.5 419.633 61.5 419.683 61.5C419.734 61.5 419.784 61.5 419.834 61.5C419.884 61.5 419.934 61.5 419.984 61.5C420.034 61.5 420.084 61.5 420.134 61.5C420.184 61.5 420.233 61.5 420.283 61.5C420.333 61.5 420.383 61.5 420.433 61.5C420.482 61.5 420.532 61.5 420.582 61.5C420.632 61.5 420.681 61.5 420.731 61.5C420.781 61.5 420.83 61.5 420.88 61.5C420.929 61.5 420.979 61.5 421.028 61.5C421.078 61.5 421.127 61.5 421.177 61.5C421.226 61.5 421.276 61.5 421.325 61.5C421.375 61.5 421.424 61.5 421.473 61.5C421.523 61.5 421.572 61.5 421.621 61.5C421.67 61.5 421.72 61.5 421.769 61.5C421.818 61.5 421.867 61.5 421.916 61.5C421.966 61.5 422.015 61.5 422.064 61.5C422.113 61.5 422.162 61.5 422.211 61.5C422.26 61.5 422.309 61.5 422.358 61.5C422.407 61.5 422.456 61.5 422.505 61.5C422.554 61.5 422.603 61.5 422.651 61.5C422.7 61.5 422.749 61.5 422.798 61.5C422.847 61.5 422.895 61.5 422.944 61.5C422.993 61.5 423.042 61.5 423.09 61.5C423.139 61.5 423.188 61.5 423.236 61.5C423.285 61.5 423.333 61.5 423.382 61.5C423.431 61.5 423.479 61.5 423.528 61.5C423.576 61.5 423.625 61.5 423.673 61.5C423.722 61.5 423.77 61.5 423.818 61.5C423.867 61.5 423.915 61.5 423.964 61.5C424.012 61.5 424.06 61.5 424.109 61.5C424.157 61.5 424.205 61.5 424.253 61.5C424.302 61.5 424.35 61.5 424.398 61.5C424.446 61.5 424.494 61.5 424.543 61.5C424.591 61.5 424.639 61.5 424.687 61.5C424.735 61.5 424.783 61.5 424.831 61.5C424.879 61.5 424.927 61.5 424.975 61.5C425.023 61.5 425.071 61.5 425.119 61.5C425.167 61.5 425.215 61.5 425.263 61.5C425.311 61.5 425.359 61.5 425.407 61.5C425.454 61.5 425.502 61.5 425.55 61.5C425.598 61.5 425.646 61.5 425.693 61.5C425.741 61.5 425.789 61.5 425.837 61.5C425.884 61.5 425.932 61.5 425.98 61.5C426.027 61.5 426.075 61.5 426.123 61.5C426.17 61.5 426.218 61.5 426.266 61.5C426.313 61.5 426.361 61.5 426.408 61.5C426.456 61.5 426.503 61.5 426.551 61.5C426.598 61.5 426.646 61.5 426.693 61.5C426.741 61.5 426.788 61.5 426.836 61.5C426.883 61.5 426.93 61.5 426.978 61.5C427.025 61.5 427.072 61.5 427.12 61.5C427.167 61.5 427.214 61.5 427.262 61.5C427.309 61.5 427.356 61.5 427.404 61.5C427.451 61.5 427.498 61.5 427.545 61.5C427.593 61.5 427.64 61.5 427.687 61.5C427.734 61.5 427.781 61.5 427.828 61.5C427.876 61.5 427.923 61.5 427.97 61.5C428.017 61.5 428.064 61.5 428.111 61.5C428.158 61.5 428.205 61.5 428.252 61.5C428.299 61.5 428.346 61.5 428.393 61.5C428.44 61.5 428.487 61.5 428.534 61.5C428.581 61.5 428.628 61.5 428.675 61.5C428.722 61.5 428.769 61.5 428.816 61.5C428.863 61.5 428.909 61.5 428.956 61.5C429.003 61.5 429.05 61.5 429.097 61.5C429.144 61.5 429.191 61.5 429.237 61.5C429.284 61.5 429.331 61.5 429.378 61.5C429.424 61.5 429.471 61.5 429.518 61.5C429.565 61.5 429.611 61.5 429.658 61.5C429.705 61.5 429.751 61.5 429.798 61.5C429.845 61.5 429.891 61.5 429.938 61.5C429.985 61.5 430.031 61.5 430.078 61.5C430.125 61.5 430.171 61.5 430.218 61.5C430.264 61.5 430.311 61.5 430.358 61.5C430.404 61.5 430.451 61.5 430.497 61.5C430.544 61.5 430.59 61.5 430.637 61.5C430.683 61.5 430.73 61.5 430.776 61.5C430.823 61.5 430.869 61.5 430.916 61.5C430.962 61.5 431.009 61.5 431.055 61.5C431.101 61.5 431.148 61.5 431.194 61.5C431.241 61.5 431.287 61.5 431.333 61.5C431.38 61.5 431.426 61.5 431.473 61.5C431.519 61.5 431.565 61.5 431.612 61.5C431.658 61.5 431.704 61.5 431.751 61.5C431.797 61.5 431.843 61.5 431.89 61.5C431.936 61.5 431.982 61.5 432.028 61.5C432.075 61.5 432.121 61.5 432.167 61.5C432.213 61.5 432.26 61.5 432.306 61.5C432.352 61.5 432.398 61.5 432.445 61.5C432.491 61.5 432.537 61.5 432.583 61.5C432.629 61.5 432.676 61.5 432.722 61.5C432.768 61.5 432.814 61.5 432.86 61.5C432.907 61.5 432.953 61.5 432.999 61.5C433.045 61.5 433.091 61.5 433.137 61.5C433.183 61.5 433.23 61.5 433.276 61.5C433.322 61.5 433.368 61.5 433.414 61.5C433.46 61.5 433.506 61.5 433.552 61.5C433.598 61.5 433.644 61.5 433.69 61.5C433.737 61.5 433.783 61.5 433.829 61.5C433.875 61.5 433.921 61.5 433.967 61.5C434.013 61.5 434.059 61.5 434.105 61.5C434.151 61.5 434.197 61.5 434.243 61.5C434.289 61.5 434.335 61.5 434.381 61.5C434.427 61.5 434.473 61.5 434.519 61.5C434.565 61.5 434.611 61.5 434.657 61.5C434.703 61.5 434.749 61.5 434.795 61.5C434.841 61.5 434.887 61.5 434.933 61.5C434.979 61.5 435.025 61.5 435.071 61.5C435.117 61.5 435.163 61.5 435.209 61.5C435.255 61.5 435.301 61.5 435.347 61.5C435.393 61.5 435.439 61.5 435.485 61.5C435.531 61.5 435.576 61.5 435.622 61.5C435.668 61.5 435.714 61.5 435.76 61.5C435.806 61.5 435.852 61.5 435.898 61.5C435.944 61.5 435.99 61.5 436.036 61.5C436.082 61.5 436.128 61.5 436.174 61.5C436.219 61.5 436.265 61.5 436.311 61.5C436.357 61.5 436.403 61.5 436.449 61.5C436.495 61.5 436.541 61.5 436.587 61.5C436.633 61.5 436.679 61.5 436.725 61.5C436.77 61.5 436.816 61.5 436.862 61.5C436.908 61.5 436.954 61.5 437 61.5C437.046 61.5 437.092 61.5 437.138 61.5C437.184 61.5 437.23 61.5 437.275 61.5C437.321 61.5 437.367 61.5 437.413 61.5C437.459 61.5 437.505 61.5 437.551 61.5C437.597 61.5 437.643 61.5 437.689 61.5C437.735 61.5 437.781 61.5 437.826 61.5C437.872 61.5 437.918 61.5 437.964 61.5C438.01 61.5 438.056 61.5 438.102 61.5C438.148 61.5 438.194 61.5 438.24 61.5C438.286 61.5 438.332 61.5 438.378 61.5C438.424 61.5 438.469 61.5 438.515 61.5C438.561 61.5 438.607 61.5 438.653 61.5C438.699 61.5 438.745 61.5 438.791 61.5C438.837 61.5 438.883 61.5 438.929 61.5C438.975 61.5 439.021 61.5 439.067 61.5C439.113 61.5 439.159 61.5 439.205 61.5C439.251 61.5 439.297 61.5 439.343 61.5C439.389 61.5 439.435 61.5 439.481 61.5C439.527 61.5 439.573 61.5 439.619 61.5C439.665 61.5 439.711 61.5 439.757 61.5C439.803 61.5 439.849 61.5 439.895 61.5C439.941 61.5 439.987 61.5 440.033 61.5C440.079 61.5 440.125 61.5 440.171 61.5C440.217 61.5 440.263 61.5 440.31 61.5C440.356 61.5 440.402 61.5 440.448 61.5C440.494 61.5 440.54 61.5 440.586 61.5C440.632 61.5 440.678 61.5 440.724 61.5C440.77 61.5 440.817 61.5 440.863 61.5C440.909 61.5 440.955 61.5 441.001 61.5C441.047 61.5 441.093 61.5 441.14 61.5C441.186 61.5 441.232 61.5 441.278 61.5C441.324 61.5 441.371 61.5 441.417 61.5C441.463 61.5 441.509 61.5 441.555 61.5C441.602 61.5 441.648 61.5 441.694 61.5C441.74 61.5 441.787 61.5 441.833 61.5C441.879 61.5 441.925 61.5 441.972 61.5C442.018 61.5 442.064 61.5 442.11 61.5C442.157 61.5 442.203 61.5 442.249 61.5C442.296 61.5 442.342 61.5 442.388 61.5C442.435 61.5 442.481 61.5 442.527 61.5C442.574 61.5 442.62 61.5 442.667 61.5C442.713 61.5 442.759 61.5 442.806 61.5C442.852 61.5 442.899 61.5 442.945 61.5C442.991 61.5 443.038 61.5 443.084 61.5C443.131 61.5 443.177 61.5 443.224 61.5C443.27 61.5 443.317 61.5 443.363 61.5C443.41 61.5 443.456 61.5 443.503 61.5C443.549 61.5 443.596 61.5 443.642 61.5C443.689 61.5 443.736 61.5 443.782 61.5C443.829 61.5 443.875 61.5 443.922 61.5C443.969 61.5 444.015 61.5 444.062 61.5C444.109 61.5 444.155 61.5 444.202 61.5C444.249 61.5 444.295 61.5 444.342 61.5C444.389 61.5 444.435 61.5 444.482 61.5C444.529 61.5 444.576 61.5 444.622 61.5C444.669 61.5 444.716 61.5 444.763 61.5C444.809 61.5 444.856 61.5 444.903 61.5C444.95 61.5 444.997 61.5 445.044 61.5C445.091 61.5 445.137 61.5 445.184 61.5C445.231 61.5 445.278 61.5 445.325 61.5C445.372 61.5 445.419 61.5 445.466 61.5C445.513 61.5 445.56 61.5 445.607 61.5C445.654 61.5 445.701 61.5 445.748 61.5C445.795 61.5 445.842 61.5 445.889 61.5C445.936 61.5 445.983 61.5 446.03 61.5C446.077 61.5 446.124 61.5 446.172 61.5C446.219 61.5 446.266 61.5 446.313 61.5C446.36 61.5 446.407 61.5 446.455 61.5C446.502 61.5 446.549 61.5 446.596 61.5C446.644 61.5 446.691 61.5 446.738 61.5C446.786 61.5 446.833 61.5 446.88 61.5C446.928 61.5 446.975 61.5 447.022 61.5C447.07 61.5 447.117 61.5 447.164 61.5C447.212 61.5 447.259 61.5 447.307 61.5C447.354 61.5 447.402 61.5 447.449 61.5C447.497 61.5 447.544 61.5 447.592 61.5C447.639 61.5 447.687 61.5 447.734 61.5C447.782 61.5 447.83 61.5 447.877 61.5C447.925 61.5 447.973 61.5 448.02 61.5C448.068 61.5 448.116 61.5 448.163 61.5C448.211 61.5 448.259 61.5 448.307 61.5C448.354 61.5 448.402 61.5 448.45 61.5C448.498 61.5 448.546 61.5 448.593 61.5C448.641 61.5 448.689 61.5 448.737 61.5C448.785 61.5 448.833 61.5 448.881 61.5C448.929 61.5 448.977 61.5 449.025 61.5C449.073 61.5 449.121 61.5 449.169 61.5C449.217 61.5 449.265 61.5 449.313 61.5C449.361 61.5 449.409 61.5 449.457 61.5C449.506 61.5 449.554 61.5 449.602 61.5C449.65 61.5 449.698 61.5 449.747 61.5C449.795 61.5 449.843 61.5 449.891 61.5C449.94 61.5 449.988 61.5 450.036 61.5C450.085 61.5 450.133 61.5 450.182 61.5C450.23 61.5 450.278 61.5 450.327 61.5C450.375 61.5 450.424 61.5 450.472 61.5C450.521 61.5 450.569 61.5 450.618 61.5C450.667 61.5 450.715 61.5 450.764 61.5C450.812 61.5 450.861 61.5 450.91 61.5C450.958 61.5 451.007 61.5 451.056 61.5C451.105 61.5 451.153 61.5 451.202 61.5C451.251 61.5 451.3 61.5 451.349 61.5C451.397 61.5 451.446 61.5 451.495 61.5C451.544 61.5 451.593 61.5 451.642 61.5C451.691 61.5 451.74 61.5 451.789 61.5C451.838 61.5 451.887 61.5 451.936 61.5C451.985 61.5 452.034 61.5 452.084 61.5C452.133 61.5 452.182 61.5 452.231 61.5C452.28 61.5 452.33 61.5 452.379 61.5C452.428 61.5 452.477 61.5 452.527 61.5C452.576 61.5 452.625 61.5 452.675 61.5C452.724 61.5 452.774 61.5 452.823 61.5C452.873 61.5 452.922 61.5 452.972 61.5C453.021 61.5 453.071 61.5 453.12 61.5C453.17 61.5 453.219 61.5 453.269 61.5C453.319 61.5 453.368 61.5 453.418 61.5C453.468 61.5 453.518 61.5 453.567 61.5C453.617 61.5 453.667 61.5 453.717 61.5C453.767 61.5 453.816 61.5 453.866 61.5C453.916 61.5 453.966 61.5 454.016 61.5C454.066 61.5 454.116 61.5 454.166 61.5C454.216 61.5 454.266 61.5 454.317 61.5C454.367 61.5 454.417 61.5 454.467 61.5C454.517 61.5 454.567 61.5 454.618 61.5C454.668 61.5 454.718 61.5 454.769 61.5C454.819 61.5 454.869 61.5 454.92 61.5C454.97 61.5 455.02 61.5 455.071 61.5C455.121 61.5 455.172 61.5 455.222 61.5C455.273 61.5 455.324 61.5 455.374 61.5C455.425 61.5 455.475 61.5 455.526 61.5C455.577 61.5 455.627 61.5 455.678 61.5C455.729 61.5 455.78 61.5 455.831 61.5C455.881 61.5 455.932 61.5 455.983 61.5C456.034 61.5 456.085 61.5 456.136 61.5C456.187 61.5 456.238 61.5 456.289 61.5C456.34 61.5 456.391 61.5 456.442 61.5C456.494 61.5 456.545 61.5 456.596 61.5C456.647 61.5 456.698 61.5 456.75 61.5C456.801 61.5 456.852 61.5 456.904 61.5C456.955 61.5 457.007 61.5 457.058 61.5C457.109 61.5 457.161 61.5 457.212 61.5C457.264 61.5 457.316 61.5 457.367 61.5C457.419 61.5 457.47 61.5 457.522 61.5C457.574 61.5 457.626 61.5 457.677 61.5C457.729 61.5 457.781 61.5 457.833 61.5C457.885 61.5 457.936 61.5 457.988 61.5C458.04 61.5 458.092 61.5 458.144 61.5C458.196 61.5 458.248 61.5 458.3 61.5C458.353 61.5 458.405 61.5 458.457 61.5C458.509 61.5 458.561 61.5 458.614 61.5C458.666 61.5 458.718 61.5 458.771 61.5C458.823 61.5 458.875 61.5 458.928 61.5C458.98 61.5 459.033 61.5 459.085 61.5C459.138 61.5 459.19 61.5 459.243 61.5C459.295 61.5 459.348 61.5 459.401 61.5C459.454 61.5 459.506 61.5 459.559 61.5C459.612 61.5 459.665 61.5 459.718 61.5C459.77 61.5 459.823 61.5 459.876 61.5C459.929 61.5 459.982 61.5 460.035 61.5C460.088 61.5 460.141 61.5 460.195 61.5C460.248 61.5 460.301 61.5 460.354 61.5C460.407 61.5 460.461 61.5 460.514 61.5C460.567 61.5 460.621 61.5 460.674 61.5C460.728 61.5 460.781 61.5 460.835 61.5C460.888 61.5 460.942 61.5 460.995 61.5C461.049 61.5 461.102 61.5 461.156 61.5C461.21 61.5 461.264 61.5 461.317 61.5C461.371 61.5 461.425 61.5 461.479 61.5C461.533 61.5 461.587 61.5 461.641 61.5C461.695 61.5 461.749 61.5 461.803 61.5C461.857 61.5 461.911 61.5 461.965 61.5C462.019 61.5 462.074 61.5 462.128 61.5C462.182 61.5 462.236 61.5 462.291 61.5C462.345 61.5 462.4 61.5 462.454 61.5C462.509 61.5 462.563 61.5 462.618 61.5C462.672 61.5 462.727 61.5 462.781 61.5C462.836 61.5 462.891 61.5 462.946 61.5C463 61.5 463.055 61.5 463.11 61.5C463.165 61.5 463.22 61.5 463.275 61.5C463.33 61.5 463.385 61.5 463.44 61.5C463.495 61.5 463.55 61.5 463.605 61.5C463.66 61.5 463.716 61.5 463.771 61.5C463.826 61.5 463.881 61.5 463.937 61.5C463.992 61.5 464.048 61.5 464.103 61.5C464.159 61.5 464.214 61.5 464.27 61.5C464.325 61.5 464.381 61.5 464.437 61.5C464.492 61.5 464.548 61.5 464.604 61.5C464.66 61.5 464.715 61.5 464.771 61.5C464.827 61.5 464.883 61.5 464.939 61.5C464.995 61.5 465.051 61.5 465.107 61.5C465.163 61.5 465.22 61.5 465.276 61.5C465.332 61.5 465.388 61.5 465.445 61.5C465.501 61.5 465.557 61.5 465.614 61.5C465.67 61.5 465.727 61.5 465.783 61.5C465.84 61.5 465.896 61.5 465.953 61.5C466.01 61.5 466.066 61.5 466.123 61.5C466.18 61.5 466.237 61.5 466.294 61.5C466.35 61.5 466.407 61.5 466.464 61.5C466.521 61.5 466.578 61.5 466.636 61.5C466.693 61.5 466.75 61.5 466.807 61.5C466.864 61.5 466.921 61.5 466.979 61.5C467.036 61.5 467.094 61.5 467.151 61.5C467.208 61.5 467.266 61.5 467.323 61.5C467.381 61.5 467.439 61.5 467.496 61.5C467.554 61.5 467.612 61.5 467.669 61.5C467.727 61.5 467.785 61.5 467.843 61.5C467.901 61.5 467.959 61.5 468.017 61.5C468.075 61.5 468.133 61.5 468.191 61.5C468.249 61.5 468.307 61.5 468.366 61.5C468.424 61.5 468.482 61.5 468.541 61.5C468.599 61.5 468.657 61.5 468.716 61.5C468.774 61.5 468.833 61.5 468.892 61.5C468.95 61.5 469.009 61.5 469.068 61.5C469.126 61.5 469.185 61.5 469.244 61.5C469.303 61.5 469.362 61.5 469.421 61.5C469.48 61.5 469.539 61.5 469.598 61.5C469.657 61.5 469.716 61.5 469.775 61.5C469.834 61.5 469.894 61.5 469.953 61.5C470.012 61.5 470.072 61.5 470.131 61.5C470.191 61.5 470.25 61.5 470.31 61.5C470.369 61.5 470.429 61.5 470.489 61.5C470.549 61.5 470.608 61.5 470.668 61.5C470.728 61.5 470.788 61.5 470.848 61.5C470.908 61.5 470.968 61.5 471.028 61.5C471.088 61.5 471.148 61.5 471.208 61.5C471.269 61.5 471.329 61.5 471.389 61.5C471.45 61.5 471.51 61.5 471.57 61.5C471.631 61.5 471.691 61.5 471.752 61.5C471.813 61.5 471.873 61.5 471.934 61.5C471.995 61.5 472.056 61.5 472.116 61.5C472.177 61.5 472.238 61.5 472.299 61.5C472.36 61.5 472.421 61.5 472.482 61.5C472.543 61.5 472.605 61.5 472.666 61.5C472.727 61.5 472.788 61.5 472.85 61.5C472.911 61.5 472.973 61.5 473.034 61.5C473.096 61.5 473.157 61.5 473.219 61.5C473.281 61.5 473.342 61.5 473.404 61.5C473.466 61.5 473.528 61.5 473.59 61.5C473.651 61.5 473.713 61.5 473.776 61.5C473.838 61.5 473.9 61.5 473.962 61.5C474.024 61.5 474.086 61.5 474.149 61.5C474.211 61.5 474.273 61.5 474.336 61.5C474.398 61.5 474.461 61.5 474.523 61.5C474.586 61.5 474.649 61.5 474.711 61.5C474.774 61.5 474.837 61.5 474.9 61.5C474.963 61.5 475.026 61.5 475.089 61.5C475.152 61.5 475.215 61.5 475.278 61.5C475.341 61.5 475.404 61.5 475.467 61.5C475.531 61.5 475.594 61.5 475.658 61.5C475.721 61.5 475.784 61.5 475.848 61.5C475.912 61.5 475.975 61.5 476.039 61.5C476.103 61.5 476.166 61.5 476.23 61.5C476.294 61.5 476.358 61.5 476.422 61.5C476.486 61.5 476.55 61.5 476.614 61.5C476.678 61.5 476.743 61.5 476.807 61.5C476.871 61.5 476.936 61.5 477 61.5V58.5C476.936 58.5 476.871 58.5 476.807 58.5C476.743 58.5 476.678 58.5 476.614 58.5C476.55 58.5 476.486 58.5 476.422 58.5C476.358 58.5 476.294 58.5 476.23 58.5C476.166 58.5 476.103 58.5 476.039 58.5C475.975 58.5 475.912 58.5 475.848 58.5C475.784 58.5 475.721 58.5 475.658 58.5C475.594 58.5 475.531 58.5 475.467 58.5C475.404 58.5 475.341 58.5 475.278 58.5C475.215 58.5 475.152 58.5 475.089 58.5C475.026 58.5 474.963 58.5 474.9 58.5C474.837 58.5 474.774 58.5 474.711 58.5C474.649 58.5 474.586 58.5 474.523 58.5C474.461 58.5 474.398 58.5 474.336 58.5C474.273 58.5 474.211 58.5 474.149 58.5C474.086 58.5 474.024 58.5 473.962 58.5C473.9 58.5 473.838 58.5 473.776 58.5C473.713 58.5 473.651 58.5 473.59 58.5C473.528 58.5 473.466 58.5 473.404 58.5C473.342 58.5 473.281 58.5 473.219 58.5C473.157 58.5 473.096 58.5 473.034 58.5C472.973 58.5 472.911 58.5 472.85 58.5C472.788 58.5 472.727 58.5 472.666 58.5C472.605 58.5 472.543 58.5 472.482 58.5C472.421 58.5 472.36 58.5 472.299 58.5C472.238 58.5 472.177 58.5 472.116 58.5C472.056 58.5 471.995 58.5 471.934 58.5C471.873 58.5 471.813 58.5 471.752 58.5C471.691 58.5 471.631 58.5 471.57 58.5C471.51 58.5 471.45 58.5 471.389 58.5C471.329 58.5 471.269 58.5 471.208 58.5C471.148 58.5 471.088 58.5 471.028 58.5C470.968 58.5 470.908 58.5 470.848 58.5C470.788 58.5 470.728 58.5 470.668 58.5C470.608 58.5 470.549 58.5 470.489 58.5C470.429 58.5 470.369 58.5 470.31 58.5C470.25 58.5 470.191 58.5 470.131 58.5C470.072 58.5 470.012 58.5 469.953 58.5C469.894 58.5 469.834 58.5 469.775 58.5C469.716 58.5 469.657 58.5 469.598 58.5C469.539 58.5 469.48 58.5 469.421 58.5C469.362 58.5 469.303 58.5 469.244 58.5C469.185 58.5 469.126 58.5 469.068 58.5C469.009 58.5 468.95 58.5 468.892 58.5C468.833 58.5 468.774 58.5 468.716 58.5C468.657 58.5 468.599 58.5 468.541 58.5C468.482 58.5 468.424 58.5 468.366 58.5C468.307 58.5 468.249 58.5 468.191 58.5C468.133 58.5 468.075 58.5 468.017 58.5C467.959 58.5 467.901 58.5 467.843 58.5C467.785 58.5 467.727 58.5 467.669 58.5C467.612 58.5 467.554 58.5 467.496 58.5C467.439 58.5 467.381 58.5 467.323 58.5C467.266 58.5 467.208 58.5 467.151 58.5C467.094 58.5 467.036 58.5 466.979 58.5C466.921 58.5 466.864 58.5 466.807 58.5C466.75 58.5 466.693 58.5 466.636 58.5C466.578 58.5 466.521 58.5 466.464 58.5C466.407 58.5 466.35 58.5 466.294 58.5C466.237 58.5 466.18 58.5 466.123 58.5C466.066 58.5 466.01 58.5 465.953 58.5C465.896 58.5 465.84 58.5 465.783 58.5C465.727 58.5 465.67 58.5 465.614 58.5C465.557 58.5 465.501 58.5 465.445 58.5C465.388 58.5 465.332 58.5 465.276 58.5C465.22 58.5 465.163 58.5 465.107 58.5C465.051 58.5 464.995 58.5 464.939 58.5C464.883 58.5 464.827 58.5 464.771 58.5C464.715 58.5 464.66 58.5 464.604 58.5C464.548 58.5 464.492 58.5 464.437 58.5C464.381 58.5 464.325 58.5 464.27 58.5C464.214 58.5 464.159 58.5 464.103 58.5C464.048 58.5 463.992 58.5 463.937 58.5C463.881 58.5 463.826 58.5 463.771 58.5C463.716 58.5 463.66 58.5 463.605 58.5C463.55 58.5 463.495 58.5 463.44 58.5C463.385 58.5 463.33 58.5 463.275 58.5C463.22 58.5 463.165 58.5 463.11 58.5C463.055 58.5 463 58.5 462.946 58.5C462.891 58.5 462.836 58.5 462.781 58.5C462.727 58.5 462.672 58.5 462.618 58.5C462.563 58.5 462.509 58.5 462.454 58.5C462.4 58.5 462.345 58.5 462.291 58.5C462.236 58.5 462.182 58.5 462.128 58.5C462.074 58.5 462.019 58.5 461.965 58.5C461.911 58.5 461.857 58.5 461.803 58.5C461.749 58.5 461.695 58.5 461.641 58.5C461.587 58.5 461.533 58.5 461.479 58.5C461.425 58.5 461.371 58.5 461.317 58.5C461.264 58.5 461.21 58.5 461.156 58.5C461.102 58.5 461.049 58.5 460.995 58.5C460.942 58.5 460.888 58.5 460.835 58.5C460.781 58.5 460.728 58.5 460.674 58.5C460.621 58.5 460.567 58.5 460.514 58.5C460.461 58.5 460.407 58.5 460.354 58.5C460.301 58.5 460.248 58.5 460.195 58.5C460.141 58.5 460.088 58.5 460.035 58.5C459.982 58.5 459.929 58.5 459.876 58.5C459.823 58.5 459.77 58.5 459.718 58.5C459.665 58.5 459.612 58.5 459.559 58.5C459.506 58.5 459.454 58.5 459.401 58.5C459.348 58.5 459.295 58.5 459.243 58.5C459.19 58.5 459.138 58.5 459.085 58.5C459.033 58.5 458.98 58.5 458.928 58.5C458.875 58.5 458.823 58.5 458.771 58.5C458.718 58.5 458.666 58.5 458.614 58.5C458.561 58.5 458.509 58.5 458.457 58.5C458.405 58.5 458.353 58.5 458.3 58.5C458.248 58.5 458.196 58.5 458.144 58.5C458.092 58.5 458.04 58.5 457.988 58.5C457.936 58.5 457.885 58.5 457.833 58.5C457.781 58.5 457.729 58.5 457.677 58.5C457.626 58.5 457.574 58.5 457.522 58.5C457.47 58.5 457.419 58.5 457.367 58.5C457.316 58.5 457.264 58.5 457.212 58.5C457.161 58.5 457.109 58.5 457.058 58.5C457.007 58.5 456.955 58.5 456.904 58.5C456.852 58.5 456.801 58.5 456.75 58.5C456.698 58.5 456.647 58.5 456.596 58.5C456.545 58.5 456.494 58.5 456.442 58.5C456.391 58.5 456.34 58.5 456.289 58.5C456.238 58.5 456.187 58.5 456.136 58.5C456.085 58.5 456.034 58.5 455.983 58.5C455.932 58.5 455.881 58.5 455.831 58.5C455.78 58.5 455.729 58.5 455.678 58.5C455.627 58.5 455.577 58.5 455.526 58.5C455.475 58.5 455.425 58.5 455.374 58.5C455.324 58.5 455.273 58.5 455.222 58.5C455.172 58.5 455.121 58.5 455.071 58.5C455.02 58.5 454.97 58.5 454.92 58.5C454.869 58.5 454.819 58.5 454.769 58.5C454.718 58.5 454.668 58.5 454.618 58.5C454.567 58.5 454.517 58.5 454.467 58.5C454.417 58.5 454.367 58.5 454.317 58.5C454.266 58.5 454.216 58.5 454.166 58.5C454.116 58.5 454.066 58.5 454.016 58.5C453.966 58.5 453.916 58.5 453.866 58.5C453.816 58.5 453.767 58.5 453.717 58.5C453.667 58.5 453.617 58.5 453.567 58.5C453.518 58.5 453.468 58.5 453.418 58.5C453.368 58.5 453.319 58.5 453.269 58.5C453.219 58.5 453.17 58.5 453.12 58.5C453.071 58.5 453.021 58.5 452.972 58.5C452.922 58.5 452.873 58.5 452.823 58.5C452.774 58.5 452.724 58.5 452.675 58.5C452.625 58.5 452.576 58.5 452.527 58.5C452.477 58.5 452.428 58.5 452.379 58.5C452.33 58.5 452.28 58.5 452.231 58.5C452.182 58.5 452.133 58.5 452.084 58.5C452.034 58.5 451.985 58.5 451.936 58.5C451.887 58.5 451.838 58.5 451.789 58.5C451.74 58.5 451.691 58.5 451.642 58.5C451.593 58.5 451.544 58.5 451.495 58.5C451.446 58.5 451.397 58.5 451.349 58.5C451.3 58.5 451.251 58.5 451.202 58.5C451.153 58.5 451.105 58.5 451.056 58.5C451.007 58.5 450.958 58.5 450.91 58.5C450.861 58.5 450.812 58.5 450.764 58.5C450.715 58.5 450.667 58.5 450.618 58.5C450.569 58.5 450.521 58.5 450.472 58.5C450.424 58.5 450.375 58.5 450.327 58.5C450.278 58.5 450.23 58.5 450.182 58.5C450.133 58.5 450.085 58.5 450.036 58.5C449.988 58.5 449.94 58.5 449.891 58.5C449.843 58.5 449.795 58.5 449.747 58.5C449.698 58.5 449.65 58.5 449.602 58.5C449.554 58.5 449.506 58.5 449.457 58.5C449.409 58.5 449.361 58.5 449.313 58.5C449.265 58.5 449.217 58.5 449.169 58.5C449.121 58.5 449.073 58.5 449.025 58.5C448.977 58.5 448.929 58.5 448.881 58.5C448.833 58.5 448.785 58.5 448.737 58.5C448.689 58.5 448.641 58.5 448.593 58.5C448.546 58.5 448.498 58.5 448.45 58.5C448.402 58.5 448.354 58.5 448.307 58.5C448.259 58.5 448.211 58.5 448.163 58.5C448.116 58.5 448.068 58.5 448.02 58.5C447.973 58.5 447.925 58.5 447.877 58.5C447.83 58.5 447.782 58.5 447.734 58.5C447.687 58.5 447.639 58.5 447.592 58.5C447.544 58.5 447.497 58.5 447.449 58.5C447.402 58.5 447.354 58.5 447.307 58.5C447.259 58.5 447.212 58.5 447.164 58.5C447.117 58.5 447.07 58.5 447.022 58.5C446.975 58.5 446.928 58.5 446.88 58.5C446.833 58.5 446.786 58.5 446.738 58.5C446.691 58.5 446.644 58.5 446.596 58.5C446.549 58.5 446.502 58.5 446.455 58.5C446.407 58.5 446.36 58.5 446.313 58.5C446.266 58.5 446.219 58.5 446.172 58.5C446.124 58.5 446.077 58.5 446.03 58.5C445.983 58.5 445.936 58.5 445.889 58.5C445.842 58.5 445.795 58.5 445.748 58.5C445.701 58.5 445.654 58.5 445.607 58.5C445.56 58.5 445.513 58.5 445.466 58.5C445.419 58.5 445.372 58.5 445.325 58.5C445.278 58.5 445.231 58.5 445.184 58.5C445.137 58.5 445.091 58.5 445.044 58.5C444.997 58.5 444.95 58.5 444.903 58.5C444.856 58.5 444.809 58.5 444.763 58.5C444.716 58.5 444.669 58.5 444.622 58.5C444.576 58.5 444.529 58.5 444.482 58.5C444.435 58.5 444.389 58.5 444.342 58.5C444.295 58.5 444.249 58.5 444.202 58.5C444.155 58.5 444.109 58.5 444.062 58.5C444.015 58.5 443.969 58.5 443.922 58.5C443.875 58.5 443.829 58.5 443.782 58.5C443.736 58.5 443.689 58.5 443.642 58.5C443.596 58.5 443.549 58.5 443.503 58.5C443.456 58.5 443.41 58.5 443.363 58.5C443.317 58.5 443.27 58.5 443.224 58.5C443.177 58.5 443.131 58.5 443.084 58.5C443.038 58.5 442.991 58.5 442.945 58.5C442.899 58.5 442.852 58.5 442.806 58.5C442.759 58.5 442.713 58.5 442.667 58.5C442.62 58.5 442.574 58.5 442.527 58.5C442.481 58.5 442.435 58.5 442.388 58.5C442.342 58.5 442.296 58.5 442.249 58.5C442.203 58.5 442.157 58.5 442.11 58.5C442.064 58.5 442.018 58.5 441.972 58.5C441.925 58.5 441.879 58.5 441.833 58.5C441.787 58.5 441.74 58.5 441.694 58.5C441.648 58.5 441.602 58.5 441.555 58.5C441.509 58.5 441.463 58.5 441.417 58.5C441.371 58.5 441.324 58.5 441.278 58.5C441.232 58.5 441.186 58.5 441.14 58.5C441.093 58.5 441.047 58.5 441.001 58.5C440.955 58.5 440.909 58.5 440.863 58.5C440.817 58.5 440.77 58.5 440.724 58.5C440.678 58.5 440.632 58.5 440.586 58.5C440.54 58.5 440.494 58.5 440.448 58.5C440.402 58.5 440.356 58.5 440.31 58.5C440.263 58.5 440.217 58.5 440.171 58.5C440.125 58.5 440.079 58.5 440.033 58.5C439.987 58.5 439.941 58.5 439.895 58.5C439.849 58.5 439.803 58.5 439.757 58.5C439.711 58.5 439.665 58.5 439.619 58.5C439.573 58.5 439.527 58.5 439.481 58.5C439.435 58.5 439.389 58.5 439.343 58.5C439.297 58.5 439.251 58.5 439.205 58.5C439.159 58.5 439.113 58.5 439.067 58.5C439.021 58.5 438.975 58.5 438.929 58.5C438.883 58.5 438.837 58.5 438.791 58.5C438.745 58.5 438.699 58.5 438.653 58.5C438.607 58.5 438.561 58.5 438.515 58.5C438.469 58.5 438.424 58.5 438.378 58.5C438.332 58.5 438.286 58.5 438.24 58.5C438.194 58.5 438.148 58.5 438.102 58.5C438.056 58.5 438.01 58.5 437.964 58.5C437.918 58.5 437.872 58.5 437.826 58.5C437.781 58.5 437.735 58.5 437.689 58.5C437.643 58.5 437.597 58.5 437.551 58.5C437.505 58.5 437.459 58.5 437.413 58.5C437.367 58.5 437.321 58.5 437.275 58.5C437.23 58.5 437.184 58.5 437.138 58.5C437.092 58.5 437.046 58.5 437 58.5C436.954 58.5 436.908 58.5 436.862 58.5C436.816 58.5 436.77 58.5 436.725 58.5C436.679 58.5 436.633 58.5 436.587 58.5C436.541 58.5 436.495 58.5 436.449 58.5C436.403 58.5 436.357 58.5 436.311 58.5C436.265 58.5 436.219 58.5 436.174 58.5C436.128 58.5 436.082 58.5 436.036 58.5C435.99 58.5 435.944 58.5 435.898 58.5C435.852 58.5 435.806 58.5 435.76 58.5C435.714 58.5 435.668 58.5 435.622 58.5C435.576 58.5 435.531 58.5 435.485 58.5C435.439 58.5 435.393 58.5 435.347 58.5C435.301 58.5 435.255 58.5 435.209 58.5C435.163 58.5 435.117 58.5 435.071 58.5C435.025 58.5 434.979 58.5 434.933 58.5C434.887 58.5 434.841 58.5 434.795 58.5C434.749 58.5 434.703 58.5 434.657 58.5C434.611 58.5 434.565 58.5 434.519 58.5C434.473 58.5 434.427 58.5 434.381 58.5C434.335 58.5 434.289 58.5 434.243 58.5C434.197 58.5 434.151 58.5 434.105 58.5C434.059 58.5 434.013 58.5 433.967 58.5C433.921 58.5 433.875 58.5 433.829 58.5C433.783 58.5 433.737 58.5 433.69 58.5C433.644 58.5 433.598 58.5 433.552 58.5C433.506 58.5 433.46 58.5 433.414 58.5C433.368 58.5 433.322 58.5 433.276 58.5C433.23 58.5 433.183 58.5 433.137 58.5C433.091 58.5 433.045 58.5 432.999 58.5C432.953 58.5 432.907 58.5 432.86 58.5C432.814 58.5 432.768 58.5 432.722 58.5C432.676 58.5 432.629 58.5 432.583 58.5C432.537 58.5 432.491 58.5 432.445 58.5C432.398 58.5 432.352 58.5 432.306 58.5C432.26 58.5 432.213 58.5 432.167 58.5C432.121 58.5 432.075 58.5 432.028 58.5C431.982 58.5 431.936 58.5 431.89 58.5C431.843 58.5 431.797 58.5 431.751 58.5C431.704 58.5 431.658 58.5 431.612 58.5C431.565 58.5 431.519 58.5 431.473 58.5C431.426 58.5 431.38 58.5 431.333 58.5C431.287 58.5 431.241 58.5 431.194 58.5C431.148 58.5 431.101 58.5 431.055 58.5C431.009 58.5 430.962 58.5 430.916 58.5C430.869 58.5 430.823 58.5 430.776 58.5C430.73 58.5 430.683 58.5 430.637 58.5C430.59 58.5 430.544 58.5 430.497 58.5C430.451 58.5 430.404 58.5 430.358 58.5C430.311 58.5 430.264 58.5 430.218 58.5C430.171 58.5 430.125 58.5 430.078 58.5C430.031 58.5 429.985 58.5 429.938 58.5C429.891 58.5 429.845 58.5 429.798 58.5C429.751 58.5 429.705 58.5 429.658 58.5C429.611 58.5 429.565 58.5 429.518 58.5C429.471 58.5 429.424 58.5 429.378 58.5C429.331 58.5 429.284 58.5 429.237 58.5C429.191 58.5 429.144 58.5 429.097 58.5C429.05 58.5 429.003 58.5 428.956 58.5C428.909 58.5 428.863 58.5 428.816 58.5C428.769 58.5 428.722 58.5 428.675 58.5C428.628 58.5 428.581 58.5 428.534 58.5C428.487 58.5 428.44 58.5 428.393 58.5C428.346 58.5 428.299 58.5 428.252 58.5C428.205 58.5 428.158 58.5 428.111 58.5C428.064 58.5 428.017 58.5 427.97 58.5C427.923 58.5 427.876 58.5 427.828 58.5C427.781 58.5 427.734 58.5 427.687 58.5C427.64 58.5 427.593 58.5 427.545 58.5C427.498 58.5 427.451 58.5 427.404 58.5C427.356 58.5 427.309 58.5 427.262 58.5C427.214 58.5 427.167 58.5 427.12 58.5C427.072 58.5 427.025 58.5 426.978 58.5C426.93 58.5 426.883 58.5 426.836 58.5C426.788 58.5 426.741 58.5 426.693 58.5C426.646 58.5 426.598 58.5 426.551 58.5C426.503 58.5 426.456 58.5 426.408 58.5C426.361 58.5 426.313 58.5 426.266 58.5C426.218 58.5 426.17 58.5 426.123 58.5C426.075 58.5 426.027 58.5 425.98 58.5C425.932 58.5 425.884 58.5 425.837 58.5C425.789 58.5 425.741 58.5 425.693 58.5C425.646 58.5 425.598 58.5 425.55 58.5C425.502 58.5 425.454 58.5 425.407 58.5C425.359 58.5 425.311 58.5 425.263 58.5C425.215 58.5 425.167 58.5 425.119 58.5C425.071 58.5 425.023 58.5 424.975 58.5C424.927 58.5 424.879 58.5 424.831 58.5C424.783 58.5 424.735 58.5 424.687 58.5C424.639 58.5 424.591 58.5 424.543 58.5C424.494 58.5 424.446 58.5 424.398 58.5C424.35 58.5 424.302 58.5 424.253 58.5C424.205 58.5 424.157 58.5 424.109 58.5C424.06 58.5 424.012 58.5 423.964 58.5C423.915 58.5 423.867 58.5 423.818 58.5C423.77 58.5 423.722 58.5 423.673 58.5C423.625 58.5 423.576 58.5 423.528 58.5C423.479 58.5 423.431 58.5 423.382 58.5C423.333 58.5 423.285 58.5 423.236 58.5C423.188 58.5 423.139 58.5 423.09 58.5C423.042 58.5 422.993 58.5 422.944 58.5C422.895 58.5 422.847 58.5 422.798 58.5C422.749 58.5 422.7 58.5 422.651 58.5C422.603 58.5 422.554 58.5 422.505 58.5C422.456 58.5 422.407 58.5 422.358 58.5C422.309 58.5 422.26 58.5 422.211 58.5C422.162 58.5 422.113 58.5 422.064 58.5C422.015 58.5 421.966 58.5 421.916 58.5C421.867 58.5 421.818 58.5 421.769 58.5C421.72 58.5 421.67 58.5 421.621 58.5C421.572 58.5 421.523 58.5 421.473 58.5C421.424 58.5 421.375 58.5 421.325 58.5C421.276 58.5 421.226 58.5 421.177 58.5C421.127 58.5 421.078 58.5 421.028 58.5C420.979 58.5 420.929 58.5 420.88 58.5C420.83 58.5 420.781 58.5 420.731 58.5C420.681 58.5 420.632 58.5 420.582 58.5C420.532 58.5 420.482 58.5 420.433 58.5C420.383 58.5 420.333 58.5 420.283 58.5C420.233 58.5 420.184 58.5 420.134 58.5C420.084 58.5 420.034 58.5 419.984 58.5C419.934 58.5 419.884 58.5 419.834 58.5C419.784 58.5 419.734 58.5 419.683 58.5C419.633 58.5 419.583 58.5 419.533 58.5C419.483 58.5 419.433 58.5 419.382 58.5C419.332 58.5 419.282 58.5 419.231 58.5C419.181 58.5 419.131 58.5 419.08 58.5C419.03 58.5 418.98 58.5 418.929 58.5C418.879 58.5 418.828 58.5 418.778 58.5C418.727 58.5 418.676 58.5 418.626 58.5C418.575 58.5 418.525 58.5 418.474 58.5C418.423 58.5 418.373 58.5 418.322 58.5C418.271 58.5 418.22 58.5 418.169 58.5C418.119 58.5 418.068 58.5 418.017 58.5C417.966 58.5 417.915 58.5 417.864 58.5C417.813 58.5 417.762 58.5 417.711 58.5C417.66 58.5 417.609 58.5 417.558 58.5C417.506 58.5 417.455 58.5 417.404 58.5C417.353 58.5 417.302 58.5 417.25 58.5C417.199 58.5 417.148 58.5 417.096 58.5C417.045 58.5 416.993 58.5 416.942 58.5C416.891 58.5 416.839 58.5 416.788 58.5C416.736 58.5 416.684 58.5 416.633 58.5C416.581 58.5 416.53 58.5 416.478 58.5C416.426 58.5 416.374 58.5 416.323 58.5C416.271 58.5 416.219 58.5 416.167 58.5C416.115 58.5 416.064 58.5 416.012 58.5C415.96 58.5 415.908 58.5 415.856 58.5C415.804 58.5 415.752 58.5 415.7 58.5C415.647 58.5 415.595 58.5 415.543 58.5C415.491 58.5 415.439 58.5 415.386 58.5C415.334 58.5 415.282 58.5 415.229 58.5C415.177 58.5 415.125 58.5 415.072 58.5C415.02 58.5 414.967 58.5 414.915 58.5C414.862 58.5 414.81 58.5 414.757 58.5C414.705 58.5 414.652 58.5 414.599 58.5C414.546 58.5 414.494 58.5 414.441 58.5C414.388 58.5 414.335 58.5 414.282 58.5C414.23 58.5 414.177 58.5 414.124 58.5C414.071 58.5 414.018 58.5 413.965 58.5C413.912 58.5 413.859 58.5 413.805 58.5C413.752 58.5 413.699 58.5 413.646 58.5C413.593 58.5 413.539 58.5 413.486 58.5C413.433 58.5 413.379 58.5 413.326 58.5C413.272 58.5 413.219 58.5 413.165 58.5C413.112 58.5 413.058 58.5 413.005 58.5C412.951 58.5 412.898 58.5 412.844 58.5C412.79 58.5 412.736 58.5 412.683 58.5C412.629 58.5 412.575 58.5 412.521 58.5C412.467 58.5 412.413 58.5 412.359 58.5C412.305 58.5 412.251 58.5 412.197 58.5C412.143 58.5 412.089 58.5 412.035 58.5C411.981 58.5 411.926 58.5 411.872 58.5C411.818 58.5 411.764 58.5 411.709 58.5C411.655 58.5 411.6 58.5 411.546 58.5C411.491 58.5 411.437 58.5 411.382 58.5C411.328 58.5 411.273 58.5 411.219 58.5C411.164 58.5 411.109 58.5 411.054 58.5C411 58.5 410.945 58.5 410.89 58.5C410.835 58.5 410.78 58.5 410.725 58.5C410.67 58.5 410.615 58.5 410.56 58.5C410.505 58.5 410.45 58.5 410.395 58.5C410.34 58.5 410.284 58.5 410.229 58.5C410.174 58.5 410.119 58.5 410.063 58.5C410.008 58.5 409.952 58.5 409.897 58.5C409.841 58.5 409.786 58.5 409.73 58.5C409.675 58.5 409.619 58.5 409.563 58.5C409.508 58.5 409.452 58.5 409.396 58.5C409.34 58.5 409.285 58.5 409.229 58.5C409.173 58.5 409.117 58.5 409.061 58.5C409.005 58.5 408.949 58.5 408.893 58.5C408.837 58.5 408.78 58.5 408.724 58.5C408.668 58.5 408.612 58.5 408.555 58.5C408.499 58.5 408.443 58.5 408.386 58.5C408.33 58.5 408.273 58.5 408.217 58.5C408.16 58.5 408.104 58.5 408.047 58.5C407.99 58.5 407.934 58.5 407.877 58.5C407.82 58.5 407.763 58.5 407.706 58.5C407.65 58.5 407.593 58.5 407.536 58.5C407.479 58.5 407.422 58.5 407.364 58.5C407.307 58.5 407.25 58.5 407.193 58.5C407.136 58.5 407.079 58.5 407.021 58.5C406.964 58.5 406.906 58.5 406.849 58.5C406.792 58.5 406.734 58.5 406.677 58.5C406.619 58.5 406.561 58.5 406.504 58.5C406.446 58.5 406.388 58.5 406.331 58.5C406.273 58.5 406.215 58.5 406.157 58.5C406.099 58.5 406.041 58.5 405.983 58.5C405.925 58.5 405.867 58.5 405.809 58.5C405.751 58.5 405.693 58.5 405.634 58.5C405.576 58.5 405.518 58.5 405.459 58.5C405.401 58.5 405.343 58.5 405.284 58.5C405.226 58.5 405.167 58.5 405.108 58.5C405.05 58.5 404.991 58.5 404.932 58.5C404.874 58.5 404.815 58.5 404.756 58.5C404.697 58.5 404.638 58.5 404.579 58.5C404.52 58.5 404.461 58.5 404.402 58.5C404.343 58.5 404.284 58.5 404.225 58.5C404.166 58.5 404.106 58.5 404.047 58.5C403.988 58.5 403.928 58.5 403.869 58.5C403.809 58.5 403.75 58.5 403.69 58.5C403.631 58.5 403.571 58.5 403.511 58.5C403.451 58.5 403.392 58.5 403.332 58.5C403.272 58.5 403.212 58.5 403.152 58.5C403.092 58.5 403.032 58.5 402.972 58.5C402.912 58.5 402.852 58.5 402.792 58.5C402.731 58.5 402.671 58.5 402.611 58.5C402.55 58.5 402.49 58.5 402.43 58.5C402.369 58.5 402.309 58.5 402.248 58.5C402.187 58.5 402.127 58.5 402.066 58.5C402.005 58.5 401.944 58.5 401.884 58.5C401.823 58.5 401.762 58.5 401.701 58.5C401.64 58.5 401.579 58.5 401.518 58.5C401.457 58.5 401.395 58.5 401.334 58.5C401.273 58.5 401.212 58.5 401.15 58.5C401.089 58.5 401.027 58.5 400.966 58.5C400.904 58.5 400.843 58.5 400.781 58.5C400.719 58.5 400.658 58.5 400.596 58.5C400.534 58.5 400.472 58.5 400.41 58.5C400.349 58.5 400.287 58.5 400.224 58.5C400.162 58.5 400.1 58.5 400.038 58.5C399.976 58.5 399.914 58.5 399.851 58.5C399.789 58.5 399.727 58.5 399.664 58.5C399.602 58.5 399.539 58.5 399.477 58.5C399.414 58.5 399.351 58.5 399.289 58.5C399.226 58.5 399.163 58.5 399.1 58.5C399.037 58.5 398.974 58.5 398.911 58.5C398.848 58.5 398.785 58.5 398.722 58.5C398.659 58.5 398.596 58.5 398.533 58.5C398.469 58.5 398.406 58.5 398.342 58.5C398.279 58.5 398.216 58.5 398.152 58.5C398.088 58.5 398.025 58.5 397.961 58.5C397.897 58.5 397.834 58.5 397.77 58.5C397.706 58.5 397.642 58.5 397.578 58.5C397.514 58.5 397.45 58.5 397.386 58.5C397.322 58.5 397.257 58.5 397.193 58.5C397.129 58.5 397.064 58.5 397 58.5V61.5ZM475.5 60V154.01H478.5V60H475.5ZM477 152.51H184V155.51H477V152.51ZM182.5 154.01V261H185.5V154.01H182.5ZM184 262.5H283V259.5H184V262.5Z" fill="#E07CFE"/>
<path fill-rule="evenodd" clip-rule="evenodd" d="M541.043 43.9085C541.788 38.4362 546.829 34.6043 552.301 35.3498L973.86 92.778C979.33 93.524 983.16 98.564 982.42 104.036L980.9 115.132C980.3 114.925 979.67 114.774 979.01 114.685C973.54 113.939 968.5 117.771 967.75 123.243C967.01 128.716 970.84 133.756 976.31 134.502C976.97 134.591 977.62 134.615 978.26 134.577L976.72 145.828C975.98 151.3 970.94 155.132 965.47 154.386L543.908 96.958C538.436 96.213 534.604 91.172 535.35 85.7L536.859 74.6238C542.141 75.0872 546.91 71.3215 547.633 66.0109C548.357 60.7003 544.769 55.7964 539.555 54.8299L541.043 43.9085Z" fill="#E07CFE"/>
<path d="M571.656 84.36L574.809 61.2139L578.043 61.6544L577.659 64.4764C578.299 63.5731 579.154 62.9038 580.225 62.4684C581.318 62.0359 582.498 61.9061 583.766 62.0788C585.965 62.3783 587.605 63.3014 588.686 64.8482C589.767 66.395 590.119 68.5529 589.741 71.322L589.655 71.9561C589.396 73.8585 588.883 75.4141 588.115 76.6229C587.35 77.8106 586.396 78.6495 585.253 79.14C584.11 79.63 582.819 79.777 581.382 79.581C580.177 79.417 579.114 79.003 578.193 78.3393C577.271 77.6755 576.664 76.8392 576.371 75.8304L575.144 84.835L571.656 84.36ZM580.972 76.425C582.283 76.6035 583.402 76.293 584.329 75.4935C585.256 74.694 585.848 73.3536 586.104 71.4723L586.19 70.8382C586.432 69.0626 586.22 67.6988 585.553 66.7467C584.889 65.7735 583.88 65.1947 582.527 65.0104C581.745 64.9039 580.972 64.9708 580.207 65.2111C579.463 65.4542 578.825 65.8732 578.292 66.468C577.78 67.0657 577.458 67.8508 577.325 68.8231L577.023 71.0426C576.879 72.0995 576.969 73.0161 577.294 73.7924C577.643 74.5504 578.142 75.1566 578.79 75.611C579.442 76.0442 580.169 76.3156 580.972 76.425ZM596.894 81.694C595.689 81.53 594.684 81.167 593.878 80.605C593.096 80.025 592.537 79.303 592.203 78.4393C591.868 77.5756 591.769 76.647 591.904 75.6535C592.132 73.9836 592.797 72.8147 593.9 72.1468C595.005 71.4578 596.52 71.2443 598.444 71.5063L603.675 72.219L603.801 71.2995C603.973 70.0312 603.806 69.1257 603.299 68.5829C602.815 68.0218 601.971 67.6593 600.766 67.4951C599.688 67.3483 598.873 67.4094 598.319 67.6785C597.766 67.9476 597.407 68.3723 597.241 68.9526L593.849 68.4905C594.045 67.5267 594.468 66.7124 595.118 66.0474C595.769 65.3825 596.619 64.9063 597.67 64.6189C598.743 64.3343 599.966 64.2856 601.34 64.4728C602.714 64.66 603.879 65.0341 604.836 65.5951C605.814 66.1589 606.516 66.9328 606.942 67.9166C607.392 68.8821 607.516 70.1047 607.314 71.5844L606.403 78.2746C606.282 79.162 606.186 79.946 606.115 80.625C606.047 81.283 606.012 81.935 606.01 82.581L602.839 82.149C602.842 81.654 602.845 81.235 602.849 80.891C602.874 80.55 602.921 80.126 602.99 79.618C602.482 80.346 601.692 80.927 600.621 81.362C599.574 81.78 598.332 81.89 596.894 81.694ZM598.26 78.7801C599.063 78.8895 599.811 78.8515 600.504 78.6659C601.218 78.4833 601.813 78.1445 602.29 77.6497C602.787 77.1577 603.089 76.5206 603.196 75.7385L603.321 74.819L598.724 74.1927C597.836 74.0717 597.091 74.1641 596.49 74.4697C595.91 74.7782 595.569 75.3023 595.468 76.0422C595.373 76.7397 595.54 77.333 595.969 77.822C596.418 78.3139 597.182 78.6332 598.26 78.7801ZM617.038 84.439C615.537 84.234 614.228 83.733 613.109 82.934C611.991 82.136 611.169 81.055 610.644 79.692C610.141 78.3317 610.02 76.6897 610.282 74.7661L610.368 74.132C610.616 72.3141 611.183 70.8411 612.068 69.713C612.975 68.5878 614.073 67.8007 615.361 67.3519C616.653 66.8819 618.006 66.7433 619.423 66.9363C620.902 67.1378 622.115 67.5614 623.06 68.2069C624.027 68.8553 624.737 69.6517 625.189 70.5962C625.663 71.5434 625.911 72.5676 625.933 73.6687L622.382 73.1849C622.277 72.374 621.985 71.6775 621.504 71.0953C621.024 70.5131 620.192 70.1414 619.008 69.9801C618.226 69.8736 617.472 69.9539 616.747 70.2211C616.042 70.4912 615.436 70.9899 614.928 71.7173C614.423 72.4236 614.087 73.3897 613.92 74.6157L613.833 75.2499C613.652 76.5816 613.706 77.687 613.995 78.5661C614.287 79.424 614.735 80.088 615.339 80.558C615.966 81.009 616.671 81.288 617.453 81.395C618.446 81.53 619.28 81.418 619.953 81.057C620.627 80.697 621.163 80.081 621.562 79.209L625.113 79.693C624.74 80.848 624.157 81.813 623.362 82.587C622.592 83.343 621.667 83.885 620.589 84.212C619.511 84.539 618.328 84.614 617.038 84.439ZM627.698 85.535L629.987 68.7307L644.572 70.7176L642.283 87.522L638.795 87.047L640.679 73.223L633.069 72.1863L631.186 86.011L627.698 85.535ZM646.71 88.125L648.999 71.3207L652.487 71.7958L650.867 83.686L660.572 72.8973L663.901 73.3508L661.612 90.156L658.124 89.68L659.744 77.7903L650.039 88.579L646.71 88.125ZM672.99 92.061C671.489 91.856 670.18 91.355 669.061 90.557C667.943 89.758 667.121 88.678 666.596 87.314C666.093 85.954 665.972 84.312 666.234 82.388L666.32 81.754C666.568 79.936 667.135 78.4634 668.02 77.3353C668.927 76.21 670.025 75.423 671.313 74.9741C672.605 74.5041 673.958 74.3656 675.375 74.5585C676.854 74.7601 678.067 75.1837 679.012 75.8292C679.979 76.4776 680.689 77.274 681.141 78.2184C681.615 79.166 681.863 80.19 681.885 81.291L678.334 80.807C678.229 79.996 677.937 79.3 677.456 78.7176C676.976 78.1354 676.144 77.7637 674.96 77.6024C674.178 77.4959 673.424 77.5762 672.699 77.8434C671.994 78.1135 671.388 78.6122 670.88 79.34C670.375 80.046 670.039 81.012 669.872 82.238L669.785 82.872C669.604 84.204 669.658 85.309 669.947 86.188C670.239 87.046 670.687 87.71 671.291 88.18C671.918 88.631 672.623 88.91 673.405 89.017C674.398 89.152 675.232 89.04 675.905 88.679C676.579 88.319 677.115 87.703 677.513 86.832L681.065 87.315C680.692 88.47 680.108 89.435 679.314 90.21C678.544 90.966 677.619 91.507 676.541 91.834C675.463 92.161 674.28 92.237 672.99 92.061ZM688.517 94.176C687.312 94.012 686.306 93.649 685.5 93.087C684.718 92.507 684.16 91.785 683.825 90.921C683.491 90.057 683.391 89.129 683.527 88.135C683.754 86.465 684.419 85.296 685.522 84.628C686.628 83.939 688.143 83.726 690.066 83.988L695.298 84.701L695.423 83.781C695.596 82.513 695.429 81.607 694.921 81.065C694.438 80.503 693.594 80.141 692.389 79.977C691.311 79.83 690.495 79.891 689.942 80.16C689.388 80.429 689.029 80.854 688.864 81.434L685.471 80.972C685.667 80.008 686.09 79.194 686.741 78.5291C687.391 77.8641 688.242 77.3879 689.293 77.1005C690.365 76.816 691.588 76.7673 692.962 76.9545C694.336 77.1416 695.502 77.5157 696.459 78.0767C697.437 78.6406 698.139 79.414 698.565 80.398C699.014 81.364 699.138 82.586 698.937 84.066L698.025 90.756C697.904 91.644 697.809 92.428 697.738 93.107C697.669 93.765 697.634 94.417 697.633 95.063L694.462 94.631C694.465 94.136 694.468 93.716 694.472 93.372C694.497 93.031 694.544 92.607 694.613 92.1C694.105 92.827 693.315 93.409 692.244 93.844C691.196 94.261 689.954 94.372 688.517 94.176ZM689.883 91.262C690.686 91.371 691.434 91.333 692.127 91.148C692.84 90.965 693.436 90.626 693.912 90.131C694.41 89.639 694.712 89.002 694.818 88.22L694.944 87.301L690.346 86.674C689.458 86.553 688.714 86.646 688.112 86.951C687.532 87.26 687.191 87.784 687.091 88.524C686.996 89.221 687.162 89.815 687.591 90.304C688.041 90.796 688.805 91.115 689.883 91.262ZM701.733 95.621L704.022 78.8164L707.51 79.292L706.59 86.045L714.517 87.125L715.437 80.371L718.924 80.847L716.635 97.651L713.147 97.176L714.11 90.105L706.184 89.026L705.22 96.096L701.733 95.621ZM721.085 98.258L723.374 81.453L726.862 81.928L725.242 93.818L734.948 83.029L738.277 83.483L735.988 100.288L732.5 99.813L734.12 87.922L724.414 98.711L721.085 98.258ZM747.683 102.236C746.203 102.035 744.881 101.542 743.718 100.759C742.557 99.955 741.683 98.867 741.094 97.495C740.506 96.124 740.345 94.465 740.61 92.52L740.696 91.886C740.949 90.026 741.519 88.532 742.405 87.404C743.311 86.279 744.408 85.502 745.693 85.075C746.982 84.626 748.334 84.498 749.75 84.691C752.308 85.039 754.169 85.992 755.335 87.551C756.522 89.112 756.941 91.171 756.593 93.729L756.351 95.505L744.048 93.829C743.935 94.976 744.053 95.928 744.402 96.687C744.751 97.445 745.252 98.03 745.907 98.442C746.564 98.833 747.294 99.083 748.097 99.192C749.302 99.356 750.205 99.286 750.807 98.98C751.429 98.677 751.888 98.234 752.183 97.65L755.671 98.125C755.105 99.749 754.097 100.903 752.648 101.588C751.219 102.277 749.564 102.492 747.683 102.236ZM749.494 87.756C748.712 87.65 747.964 87.688 747.25 87.87C746.536 88.053 745.928 88.411 745.424 88.946C744.921 89.48 744.58 90.241 744.403 91.229L753.217 92.429C753.34 91.37 753.252 90.518 752.952 89.874C752.652 89.231 752.201 88.749 751.598 88.43C750.999 88.09 750.297 87.866 749.494 87.756ZM772.892 105.67C771.582 105.492 770.451 105.101 769.5 104.498C768.548 103.894 767.803 103.125 767.263 102.191C766.725 101.235 766.432 100.151 766.382 98.938L769.933 99.422C770.084 100.368 770.436 101.105 770.988 101.632C771.562 102.163 772.335 102.494 773.307 102.627C774.449 102.782 775.456 102.575 776.331 102.005C777.205 101.435 777.835 100.369 778.22 98.807L772.005 97.96L772.402 95.043L778.617 95.89C778.641 94.45 778.296 93.348 777.582 92.584C776.868 91.819 775.961 91.362 774.862 91.212C773.678 91.051 772.777 91.186 772.158 91.619C771.54 92.051 771.071 92.644 770.754 93.397L767.202 92.914C767.518 91.859 768.021 90.937 768.709 90.148C769.419 89.362 770.316 88.784 771.4 88.415C772.505 88.049 773.797 87.967 775.277 88.168C776.756 88.37 778.045 88.868 779.142 89.664C780.264 90.441 781.09 91.49 781.62 92.811C782.172 94.135 782.324 95.706 782.076 97.524L781.99 98.158C781.728 100.081 781.172 101.631 780.323 102.807C779.474 103.983 778.414 104.808 777.144 105.281C775.874 105.754 774.457 105.884 772.892 105.67ZM783.67 107.139C783.501 107.116 783.313 107.079 783.104 107.029C782.914 107.003 782.737 106.958 782.574 106.892L783.023 103.595C783.083 103.625 783.24 103.657 783.494 103.691C784.086 103.772 784.596 103.583 785.025 103.125C785.474 102.669 785.869 101.83 786.208 100.605C786.571 99.363 786.908 97.6 787.219 95.317L787.91 90.244L800.593 91.972L798.303 108.777L794.815 108.302L796.699 94.477L790.865 93.683L790.493 96.409C790.188 98.65 789.817 100.505 789.38 101.974C788.967 103.425 788.481 104.543 787.922 105.328C787.363 106.113 786.731 106.641 786.027 106.911C785.323 107.181 784.537 107.257 783.67 107.139ZM809.982 110.723C808.503 110.522 807.181 110.029 806.017 109.246C804.857 108.442 803.982 107.354 803.394 105.982C802.806 104.611 802.644 102.952 802.909 101.007L802.995 100.373C803.249 98.513 803.818 97.019 804.704 95.891C805.611 94.766 806.707 93.989 807.993 93.562C809.281 93.113 810.633 92.985 812.05 93.178C814.607 93.526 816.469 94.479 817.635 96.038C818.821 97.599 819.241 99.658 818.892 102.216L818.65 103.992L806.348 102.316C806.235 103.463 806.353 104.415 806.701 105.174C807.05 105.932 807.552 106.517 808.206 106.929C808.864 107.32 809.594 107.57 810.397 107.679C811.602 107.843 812.505 107.773 813.106 107.467C813.729 107.164 814.188 106.721 814.483 106.137L817.97 106.612C817.405 108.236 816.397 109.39 814.947 110.075C813.519 110.764 811.864 110.979 809.982 110.723ZM811.794 96.243C811.011 96.137 810.263 96.175 809.55 96.357C808.836 96.54 808.227 96.898 807.724 97.433C807.22 97.967 806.88 98.728 806.702 99.716L815.517 100.916C815.64 99.857 815.551 99.005 815.251 98.361C814.951 97.718 814.5 97.236 813.898 96.917C813.298 96.577 812.597 96.353 811.794 96.243ZM821.13 111.887L823.419 95.082L826.907 95.557L825.978 102.374L827.881 102.633L834.707 96.619L838.639 97.155L830.412 104.205L836.666 114.003L832.418 113.424L827.492 105.487L825.59 105.228L824.618 112.362L821.13 111.887ZM843.486 114.932L845.369 101.108L839.82 100.352L840.226 97.371L854.812 99.358L854.406 102.339L848.857 101.583L846.974 115.407L843.486 114.932ZM854.512 122.893L857.665 99.747L860.899 100.188L860.515 103.01C861.155 102.106 862.01 101.437 863.082 101.002C864.174 100.569 865.354 100.439 866.623 100.612C868.821 100.912 870.461 101.835 871.542 103.381C872.623 104.928 872.975 107.086 872.598 109.855L872.511 110.489C872.252 112.392 871.739 113.947 870.971 115.156C870.207 116.344 869.253 117.183 868.109 117.673C866.966 118.163 865.676 118.31 864.238 118.114C863.033 117.95 861.97 117.536 861.049 116.872C860.127 116.209 859.52 115.372 859.227 114.364L858 123.368L854.512 122.893ZM863.829 114.958C865.139 115.137 866.258 114.826 867.185 114.027C868.112 113.227 868.704 111.887 868.96 110.006L869.046 109.371C869.288 107.596 869.076 106.232 868.409 105.28C867.745 104.307 866.736 103.728 865.384 103.544C864.601 103.437 863.828 103.504 863.063 103.744C862.32 103.987 861.681 104.406 861.148 105.001C860.636 105.599 860.314 106.384 860.181 107.356L859.879 109.576C859.735 110.633 859.825 111.549 860.15 112.326C860.499 113.084 860.998 113.69 861.646 114.144C862.298 114.577 863.025 114.849 863.829 114.958ZM874.883 119.209L877.173 102.405L880.66 102.88L879.041 114.77L888.746 103.981L892.075 104.435L889.786 121.239L886.298 120.764L887.918 108.874L878.213 119.663L874.883 119.209ZM904.065 123.185L904.942 116.748C904.415 116.978 903.798 117.163 903.09 117.303C902.403 117.447 901.542 117.448 900.506 117.306C898.498 117.033 897.03 116.349 896.103 115.253C895.175 114.158 894.853 112.575 895.135 110.503L895.891 104.955L899.379 105.43L898.688 110.503C898.515 111.771 898.648 112.693 899.086 113.27C899.548 113.828 900.424 114.195 901.713 114.371C902.601 114.492 903.354 114.497 903.972 114.388C904.613 114.26 905.064 114.117 905.322 113.958L906.354 106.38L909.842 106.855L907.553 123.66L904.065 123.185ZM919.223 125.605C917.744 125.403 916.422 124.911 915.258 124.128C914.098 123.324 913.223 122.236 912.635 120.864C912.047 119.492 911.885 117.834 912.15 115.889L912.236 115.255C912.49 113.395 913.059 111.901 913.945 110.773C914.852 109.648 915.948 108.871 917.234 108.443C918.522 107.994 919.874 107.866 921.291 108.059C923.848 108.408 925.71 109.361 926.876 110.919C928.062 112.481 928.482 114.54 928.133 117.098L927.891 118.873L915.589 117.197C915.476 118.345 915.594 119.297 915.942 120.055C916.291 120.813 916.793 121.398 917.447 121.81C918.105 122.201 918.835 122.452 919.638 122.561C920.843 122.725 921.746 122.654 922.347 122.349C922.97 122.046 923.429 121.603 923.724 121.018L927.211 121.494C926.646 123.117 925.638 124.272 924.188 124.957C922.76 125.645 921.105 125.861 919.223 125.605ZM921.035 111.125C920.252 111.018 919.504 111.056 918.791 111.239C918.077 111.422 917.468 111.78 916.965 112.314C916.461 112.849 916.121 113.61 915.943 114.597L924.758 115.798C924.881 114.738 924.792 113.887 924.492 113.243C924.192 112.599 923.741 112.118 923.139 111.799C922.539 111.459 921.838 111.234 921.035 111.125ZM930.371 126.768L932.66 109.964L936.148 110.439L935.219 117.256L937.122 117.515L943.948 111.501L947.88 112.037L939.653 119.087L945.907 128.885L941.659 128.306L936.733 120.369L934.831 120.109L933.859 127.243L930.371 126.768Z" fill="black"/>
</g>
<defs>
<clipPath id="clip0_42_194">
<rect width="983" height="319" fill="white"/>
</clipPath>
</defs>
</svg>
