<svg xmlns="http://www.w3.org/2000/svg" width="86" height="42" fill="none"><g clip-path="url(#a)"><path fill="#E4DFD6" stroke="#000" d="M21 41c11.046 0 20-8.954 20-20S32.046 1 21 1 1 9.954 1 21s8.954 20 20 20Z"/><path fill="#F5590B" stroke="#000" d="M45 41c11.046 0 20-8.954 20-20S56.046 1 45 1 25 9.954 25 21s8.954 20 20 20Z"/><path fill="#F6F6F6" d="M66 41.284c11.046 0 20-8.954 20-20 0-11.045-8.954-20-20-20s-20 8.955-20 20c0 11.046 8.954 20 20 20Z"/><path fill="#F8F993" stroke="#000" d="M46.5 21.828c1.46.19 3.243.954 5.158 2.152 2.135 1.337 4.377 3.176 6.423 5.222 2.046 2.046 3.885 4.288 5.222 6.424 1.198 1.914 1.962 3.698 2.15 5.157a19.469 19.469 0 0 1-13.242-5.71A19.468 19.468 0 0 1 46.5 21.828ZM52.21 7.496a19.468 19.468 0 0 1 13.244-5.71c-.19 1.459-.953 3.243-2.151 5.157-1.337 2.136-3.176 4.377-5.222 6.423-2.046 2.046-4.288 3.885-6.423 5.222-1.915 1.198-3.698 1.963-5.158 2.152a19.468 19.468 0 0 1 5.71-13.244ZM66.543 1.785c4.808.14 9.575 2.04 13.245 5.71a19.468 19.468 0 0 1 5.71 13.244c-1.46-.19-3.243-.954-5.157-2.152-2.135-1.336-4.377-3.175-6.423-5.221-2.046-2.046-3.885-4.288-5.222-6.424-1.198-1.913-1.964-3.697-2.153-5.157ZM73.918 29.203c2.046-2.046 4.287-3.885 6.423-5.222 1.914-1.198 3.697-1.962 5.157-2.152a19.468 19.468 0 0 1-5.71 13.244 19.468 19.468 0 0 1-13.245 5.71c.19-1.46.955-3.243 2.153-5.157 1.337-2.136 3.176-4.377 5.222-6.423Z"/></g><defs><clipPath id="a"><path fill="#fff" d="M0 0h86v42H0z"/></clipPath></defs></svg>