<svg width="360" height="360" viewBox="0 0 360 360" fill="none" xmlns="http://www.w3.org/2000/svg">
<path d="M2 4C3.10457 4 4 3.10457 4 2C4 0.89543 3.10457 0 2 0C0.89543 0 0 0.89543 0 2C0 3.10457 0.89543 4 2 4Z" fill="#094067" fill-opacity="0.12"/>
<path d="M22 4C23.1046 4 24 3.10457 24 2C24 0.89543 23.1046 0 22 0C20.8954 0 20 0.89543 20 2C20 3.10457 20.8954 4 22 4Z" fill="#094067" fill-opacity="0.12"/>
<path d="M42 4C43.1046 4 44 3.10457 44 2C44 0.89543 43.1046 0 42 0C40.8954 0 40 0.89543 40 2C40 3.10457 40.8954 4 42 4Z" fill="#094067" fill-opacity="0.12"/>
<path d="M62 4C63.1046 4 64 3.10457 64 2C64 0.89543 63.1046 0 62 0C60.8954 0 60 0.89543 60 2C60 3.10457 60.8954 4 62 4Z" fill="#094067" fill-opacity="0.12"/>
<path d="M82 4C83.1046 4 84 3.10457 84 2C84 0.89543 83.1046 0 82 0C80.8954 0 80 0.89543 80 2C80 3.10457 80.8954 4 82 4Z" fill="#094067" fill-opacity="0.12"/>
<path d="M102 4C103.105 4 104 3.10457 104 2C104 0.89543 103.105 0 102 0C100.895 0 100 0.89543 100 2C100 3.10457 100.895 4 102 4Z" fill="#094067" fill-opacity="0.12"/>
<path d="M122 4C123.105 4 124 3.10457 124 2C124 0.89543 123.105 0 122 0C120.895 0 120 0.89543 120 2C120 3.10457 120.895 4 122 4Z" fill="#094067" fill-opacity="0.12"/>
<path d="M142 4C143.105 4 144 3.10457 144 2C144 0.89543 143.105 0 142 0C140.895 0 140 0.89543 140 2C140 3.10457 140.895 4 142 4Z" fill="#094067" fill-opacity="0.12"/>
<path d="M162 4C163.105 4 164 3.10457 164 2C164 0.89543 163.105 0 162 0C160.895 0 160 0.89543 160 2C160 3.10457 160.895 4 162 4Z" fill="#094067" fill-opacity="0.12"/>
<path d="M182 4C183.105 4 184 3.10457 184 2C184 0.89543 183.105 0 182 0C180.895 0 180 0.89543 180 2C180 3.10457 180.895 4 182 4Z" fill="#094067" fill-opacity="0.12"/>
<path d="M202 4C203.105 4 204 3.10457 204 2C204 0.89543 203.105 0 202 0C200.895 0 200 0.89543 200 2C200 3.10457 200.895 4 202 4Z" fill="#094067" fill-opacity="0.12"/>
<path d="M222 4C223.105 4 224 3.10457 224 2C224 0.89543 223.105 0 222 0C220.895 0 220 0.89543 220 2C220 3.10457 220.895 4 222 4Z" fill="#094067" fill-opacity="0.12"/>
<path d="M242 4C243.105 4 244 3.10457 244 2C244 0.89543 243.105 0 242 0C240.895 0 240 0.89543 240 2C240 3.10457 240.895 4 242 4Z" fill="#094067" fill-opacity="0.12"/>
<path d="M262 4C263.105 4 264 3.10457 264 2C264 0.89543 263.105 0 262 0C260.895 0 260 0.89543 260 2C260 3.10457 260.895 4 262 4Z" fill="#094067" fill-opacity="0.12"/>
<path d="M282 4C283.105 4 284 3.10457 284 2C284 0.89543 283.105 0 282 0C280.895 0 280 0.89543 280 2C280 3.10457 280.895 4 282 4Z" fill="#094067" fill-opacity="0.12"/>
<path d="M302 4C303.105 4 304 3.10457 304 2C304 0.89543 303.105 0 302 0C300.895 0 300 0.89543 300 2C300 3.10457 300.895 4 302 4Z" fill="#094067" fill-opacity="0.12"/>
<path d="M322 4C323.105 4 324 3.10457 324 2C324 0.89543 323.105 0 322 0C320.895 0 320 0.89543 320 2C320 3.10457 320.895 4 322 4Z" fill="#094067" fill-opacity="0.12"/>
<path d="M342 4C343.105 4 344 3.10457 344 2C344 0.89543 343.105 0 342 0C340.895 0 340 0.89543 340 2C340 3.10457 340.895 4 342 4Z" fill="#094067" fill-opacity="0.12"/>
<path d="M2 24C3.10457 24 4 23.1046 4 22C4 20.8954 3.10457 20 2 20C0.89543 20 0 20.8954 0 22C0 23.1046 0.89543 24 2 24Z" fill="#094067" fill-opacity="0.12"/>
<path d="M22 24C23.1046 24 24 23.1046 24 22C24 20.8954 23.1046 20 22 20C20.8954 20 20 20.8954 20 22C20 23.1046 20.8954 24 22 24Z" fill="#094067" fill-opacity="0.12"/>
<path d="M42 24C43.1046 24 44 23.1046 44 22C44 20.8954 43.1046 20 42 20C40.8954 20 40 20.8954 40 22C40 23.1046 40.8954 24 42 24Z" fill="#094067" fill-opacity="0.12"/>
<path d="M62 24C63.1046 24 64 23.1046 64 22C64 20.8954 63.1046 20 62 20C60.8954 20 60 20.8954 60 22C60 23.1046 60.8954 24 62 24Z" fill="#094067" fill-opacity="0.12"/>
<path d="M82 24C83.1046 24 84 23.1046 84 22C84 20.8954 83.1046 20 82 20C80.8954 20 80 20.8954 80 22C80 23.1046 80.8954 24 82 24Z" fill="#094067" fill-opacity="0.12"/>
<path d="M102 24C103.105 24 104 23.1046 104 22C104 20.8954 103.105 20 102 20C100.895 20 100 20.8954 100 22C100 23.1046 100.895 24 102 24Z" fill="#094067" fill-opacity="0.12"/>
<path d="M122 24C123.105 24 124 23.1046 124 22C124 20.8954 123.105 20 122 20C120.895 20 120 20.8954 120 22C120 23.1046 120.895 24 122 24Z" fill="#094067" fill-opacity="0.12"/>
<path d="M142 24C143.105 24 144 23.1046 144 22C144 20.8954 143.105 20 142 20C140.895 20 140 20.8954 140 22C140 23.1046 140.895 24 142 24Z" fill="#094067" fill-opacity="0.12"/>
<path d="M162 24C163.105 24 164 23.1046 164 22C164 20.8954 163.105 20 162 20C160.895 20 160 20.8954 160 22C160 23.1046 160.895 24 162 24Z" fill="#094067" fill-opacity="0.12"/>
<path d="M182 24C183.105 24 184 23.1046 184 22C184 20.8954 183.105 20 182 20C180.895 20 180 20.8954 180 22C180 23.1046 180.895 24 182 24Z" fill="#094067" fill-opacity="0.12"/>
<path d="M202 24C203.105 24 204 23.1046 204 22C204 20.8954 203.105 20 202 20C200.895 20 200 20.8954 200 22C200 23.1046 200.895 24 202 24Z" fill="#094067" fill-opacity="0.12"/>
<path d="M222 24C223.105 24 224 23.1046 224 22C224 20.8954 223.105 20 222 20C220.895 20 220 20.8954 220 22C220 23.1046 220.895 24 222 24Z" fill="#094067" fill-opacity="0.12"/>
<path d="M242 24C243.105 24 244 23.1046 244 22C244 20.8954 243.105 20 242 20C240.895 20 240 20.8954 240 22C240 23.1046 240.895 24 242 24Z" fill="#094067" fill-opacity="0.12"/>
<path d="M262 24C263.105 24 264 23.1046 264 22C264 20.8954 263.105 20 262 20C260.895 20 260 20.8954 260 22C260 23.1046 260.895 24 262 24Z" fill="#094067" fill-opacity="0.12"/>
<path d="M282 24C283.105 24 284 23.1046 284 22C284 20.8954 283.105 20 282 20C280.895 20 280 20.8954 280 22C280 23.1046 280.895 24 282 24Z" fill="#094067" fill-opacity="0.12"/>
<path d="M302 24C303.105 24 304 23.1046 304 22C304 20.8954 303.105 20 302 20C300.895 20 300 20.8954 300 22C300 23.1046 300.895 24 302 24Z" fill="#094067" fill-opacity="0.12"/>
<path d="M322 24C323.105 24 324 23.1046 324 22C324 20.8954 323.105 20 322 20C320.895 20 320 20.8954 320 22C320 23.1046 320.895 24 322 24Z" fill="#094067" fill-opacity="0.12"/>
<path d="M342 24C343.105 24 344 23.1046 344 22C344 20.8954 343.105 20 342 20C340.895 20 340 20.8954 340 22C340 23.1046 340.895 24 342 24Z" fill="#094067" fill-opacity="0.12"/>
<path d="M2 44C3.10457 44 4 43.1046 4 42C4 40.8954 3.10457 40 2 40C0.89543 40 0 40.8954 0 42C0 43.1046 0.89543 44 2 44Z" fill="#094067" fill-opacity="0.12"/>
<path d="M22 44C23.1046 44 24 43.1046 24 42C24 40.8954 23.1046 40 22 40C20.8954 40 20 40.8954 20 42C20 43.1046 20.8954 44 22 44Z" fill="#094067" fill-opacity="0.12"/>
<path d="M42 44C43.1046 44 44 43.1046 44 42C44 40.8954 43.1046 40 42 40C40.8954 40 40 40.8954 40 42C40 43.1046 40.8954 44 42 44Z" fill="#094067" fill-opacity="0.12"/>
<path d="M62 44C63.1046 44 64 43.1046 64 42C64 40.8954 63.1046 40 62 40C60.8954 40 60 40.8954 60 42C60 43.1046 60.8954 44 62 44Z" fill="#094067" fill-opacity="0.12"/>
<path d="M82 44C83.1046 44 84 43.1046 84 42C84 40.8954 83.1046 40 82 40C80.8954 40 80 40.8954 80 42C80 43.1046 80.8954 44 82 44Z" fill="#094067" fill-opacity="0.12"/>
<path d="M102 44C103.105 44 104 43.1046 104 42C104 40.8954 103.105 40 102 40C100.895 40 100 40.8954 100 42C100 43.1046 100.895 44 102 44Z" fill="#094067" fill-opacity="0.12"/>
<path d="M122 44C123.105 44 124 43.1046 124 42C124 40.8954 123.105 40 122 40C120.895 40 120 40.8954 120 42C120 43.1046 120.895 44 122 44Z" fill="#094067" fill-opacity="0.12"/>
<path d="M142 44C143.105 44 144 43.1046 144 42C144 40.8954 143.105 40 142 40C140.895 40 140 40.8954 140 42C140 43.1046 140.895 44 142 44Z" fill="#094067" fill-opacity="0.12"/>
<path d="M162 44C163.105 44 164 43.1046 164 42C164 40.8954 163.105 40 162 40C160.895 40 160 40.8954 160 42C160 43.1046 160.895 44 162 44Z" fill="#094067" fill-opacity="0.12"/>
<path d="M182 44C183.105 44 184 43.1046 184 42C184 40.8954 183.105 40 182 40C180.895 40 180 40.8954 180 42C180 43.1046 180.895 44 182 44Z" fill="#094067" fill-opacity="0.12"/>
<path d="M202 44C203.105 44 204 43.1046 204 42C204 40.8954 203.105 40 202 40C200.895 40 200 40.8954 200 42C200 43.1046 200.895 44 202 44Z" fill="#094067" fill-opacity="0.12"/>
<path d="M222 44C223.105 44 224 43.1046 224 42C224 40.8954 223.105 40 222 40C220.895 40 220 40.8954 220 42C220 43.1046 220.895 44 222 44Z" fill="#094067" fill-opacity="0.12"/>
<path d="M242 44C243.105 44 244 43.1046 244 42C244 40.8954 243.105 40 242 40C240.895 40 240 40.8954 240 42C240 43.1046 240.895 44 242 44Z" fill="#094067" fill-opacity="0.12"/>
<path d="M262 44C263.105 44 264 43.1046 264 42C264 40.8954 263.105 40 262 40C260.895 40 260 40.8954 260 42C260 43.1046 260.895 44 262 44Z" fill="#094067" fill-opacity="0.12"/>
<path d="M282 44C283.105 44 284 43.1046 284 42C284 40.8954 283.105 40 282 40C280.895 40 280 40.8954 280 42C280 43.1046 280.895 44 282 44Z" fill="#094067" fill-opacity="0.12"/>
<path d="M302 44C303.105 44 304 43.1046 304 42C304 40.8954 303.105 40 302 40C300.895 40 300 40.8954 300 42C300 43.1046 300.895 44 302 44Z" fill="#094067" fill-opacity="0.12"/>
<path d="M322 44C323.105 44 324 43.1046 324 42C324 40.8954 323.105 40 322 40C320.895 40 320 40.8954 320 42C320 43.1046 320.895 44 322 44Z" fill="#094067" fill-opacity="0.12"/>
<path d="M342 44C343.105 44 344 43.1046 344 42C344 40.8954 343.105 40 342 40C340.895 40 340 40.8954 340 42C340 43.1046 340.895 44 342 44Z" fill="#094067" fill-opacity="0.12"/>
<path d="M2 64C3.10457 64 4 63.1046 4 62C4 60.8954 3.10457 60 2 60C0.89543 60 0 60.8954 0 62C0 63.1046 0.89543 64 2 64Z" fill="#094067" fill-opacity="0.12"/>
<path d="M22 64C23.1046 64 24 63.1046 24 62C24 60.8954 23.1046 60 22 60C20.8954 60 20 60.8954 20 62C20 63.1046 20.8954 64 22 64Z" fill="#094067" fill-opacity="0.12"/>
<path d="M42 64C43.1046 64 44 63.1046 44 62C44 60.8954 43.1046 60 42 60C40.8954 60 40 60.8954 40 62C40 63.1046 40.8954 64 42 64Z" fill="#094067" fill-opacity="0.12"/>
<path d="M62 64C63.1046 64 64 63.1046 64 62C64 60.8954 63.1046 60 62 60C60.8954 60 60 60.8954 60 62C60 63.1046 60.8954 64 62 64Z" fill="#094067" fill-opacity="0.12"/>
<path d="M82 64C83.1046 64 84 63.1046 84 62C84 60.8954 83.1046 60 82 60C80.8954 60 80 60.8954 80 62C80 63.1046 80.8954 64 82 64Z" fill="#094067" fill-opacity="0.12"/>
<path d="M102 64C103.105 64 104 63.1046 104 62C104 60.8954 103.105 60 102 60C100.895 60 100 60.8954 100 62C100 63.1046 100.895 64 102 64Z" fill="#094067" fill-opacity="0.12"/>
<path d="M122 64C123.105 64 124 63.1046 124 62C124 60.8954 123.105 60 122 60C120.895 60 120 60.8954 120 62C120 63.1046 120.895 64 122 64Z" fill="#094067" fill-opacity="0.12"/>
<path d="M142 64C143.105 64 144 63.1046 144 62C144 60.8954 143.105 60 142 60C140.895 60 140 60.8954 140 62C140 63.1046 140.895 64 142 64Z" fill="#094067" fill-opacity="0.12"/>
<path d="M162 64C163.105 64 164 63.1046 164 62C164 60.8954 163.105 60 162 60C160.895 60 160 60.8954 160 62C160 63.1046 160.895 64 162 64Z" fill="#094067" fill-opacity="0.12"/>
<path d="M182 64C183.105 64 184 63.1046 184 62C184 60.8954 183.105 60 182 60C180.895 60 180 60.8954 180 62C180 63.1046 180.895 64 182 64Z" fill="#094067" fill-opacity="0.12"/>
<path d="M202 64C203.105 64 204 63.1046 204 62C204 60.8954 203.105 60 202 60C200.895 60 200 60.8954 200 62C200 63.1046 200.895 64 202 64Z" fill="#094067" fill-opacity="0.12"/>
<path d="M222 64C223.105 64 224 63.1046 224 62C224 60.8954 223.105 60 222 60C220.895 60 220 60.8954 220 62C220 63.1046 220.895 64 222 64Z" fill="#094067" fill-opacity="0.12"/>
<path d="M242 64C243.105 64 244 63.1046 244 62C244 60.8954 243.105 60 242 60C240.895 60 240 60.8954 240 62C240 63.1046 240.895 64 242 64Z" fill="#094067" fill-opacity="0.12"/>
<path d="M262 64C263.105 64 264 63.1046 264 62C264 60.8954 263.105 60 262 60C260.895 60 260 60.8954 260 62C260 63.1046 260.895 64 262 64Z" fill="#094067" fill-opacity="0.12"/>
<path d="M282 64C283.105 64 284 63.1046 284 62C284 60.8954 283.105 60 282 60C280.895 60 280 60.8954 280 62C280 63.1046 280.895 64 282 64Z" fill="#094067" fill-opacity="0.12"/>
<path d="M302 64C303.105 64 304 63.1046 304 62C304 60.8954 303.105 60 302 60C300.895 60 300 60.8954 300 62C300 63.1046 300.895 64 302 64Z" fill="#094067" fill-opacity="0.12"/>
<path d="M322 64C323.105 64 324 63.1046 324 62C324 60.8954 323.105 60 322 60C320.895 60 320 60.8954 320 62C320 63.1046 320.895 64 322 64Z" fill="#094067" fill-opacity="0.12"/>
<path d="M342 64C343.105 64 344 63.1046 344 62C344 60.8954 343.105 60 342 60C340.895 60 340 60.8954 340 62C340 63.1046 340.895 64 342 64Z" fill="#094067" fill-opacity="0.12"/>
<path d="M2 84C3.10457 84 4 83.1046 4 82C4 80.8954 3.10457 80 2 80C0.89543 80 0 80.8954 0 82C0 83.1046 0.89543 84 2 84Z" fill="#094067" fill-opacity="0.12"/>
<path d="M22 84C23.1046 84 24 83.1046 24 82C24 80.8954 23.1046 80 22 80C20.8954 80 20 80.8954 20 82C20 83.1046 20.8954 84 22 84Z" fill="#094067" fill-opacity="0.12"/>
<path d="M42 84C43.1046 84 44 83.1046 44 82C44 80.8954 43.1046 80 42 80C40.8954 80 40 80.8954 40 82C40 83.1046 40.8954 84 42 84Z" fill="#094067" fill-opacity="0.12"/>
<path d="M62 84C63.1046 84 64 83.1046 64 82C64 80.8954 63.1046 80 62 80C60.8954 80 60 80.8954 60 82C60 83.1046 60.8954 84 62 84Z" fill="#094067" fill-opacity="0.12"/>
<path d="M82 84C83.1046 84 84 83.1046 84 82C84 80.8954 83.1046 80 82 80C80.8954 80 80 80.8954 80 82C80 83.1046 80.8954 84 82 84Z" fill="#094067" fill-opacity="0.12"/>
<path d="M102 84C103.105 84 104 83.1046 104 82C104 80.8954 103.105 80 102 80C100.895 80 100 80.8954 100 82C100 83.1046 100.895 84 102 84Z" fill="#094067" fill-opacity="0.12"/>
<path d="M122 84C123.105 84 124 83.1046 124 82C124 80.8954 123.105 80 122 80C120.895 80 120 80.8954 120 82C120 83.1046 120.895 84 122 84Z" fill="#094067" fill-opacity="0.12"/>
<path d="M142 84C143.105 84 144 83.1046 144 82C144 80.8954 143.105 80 142 80C140.895 80 140 80.8954 140 82C140 83.1046 140.895 84 142 84Z" fill="#094067" fill-opacity="0.12"/>
<path d="M162 84C163.105 84 164 83.1046 164 82C164 80.8954 163.105 80 162 80C160.895 80 160 80.8954 160 82C160 83.1046 160.895 84 162 84Z" fill="#094067" fill-opacity="0.12"/>
<path d="M182 84C183.105 84 184 83.1046 184 82C184 80.8954 183.105 80 182 80C180.895 80 180 80.8954 180 82C180 83.1046 180.895 84 182 84Z" fill="#094067" fill-opacity="0.12"/>
<path d="M202 84C203.105 84 204 83.1046 204 82C204 80.8954 203.105 80 202 80C200.895 80 200 80.8954 200 82C200 83.1046 200.895 84 202 84Z" fill="#094067" fill-opacity="0.12"/>
<path d="M222 84C223.105 84 224 83.1046 224 82C224 80.8954 223.105 80 222 80C220.895 80 220 80.8954 220 82C220 83.1046 220.895 84 222 84Z" fill="#094067" fill-opacity="0.12"/>
<path d="M242 84C243.105 84 244 83.1046 244 82C244 80.8954 243.105 80 242 80C240.895 80 240 80.8954 240 82C240 83.1046 240.895 84 242 84Z" fill="#094067" fill-opacity="0.12"/>
<path d="M262 84C263.105 84 264 83.1046 264 82C264 80.8954 263.105 80 262 80C260.895 80 260 80.8954 260 82C260 83.1046 260.895 84 262 84Z" fill="#094067" fill-opacity="0.12"/>
<path d="M282 84C283.105 84 284 83.1046 284 82C284 80.8954 283.105 80 282 80C280.895 80 280 80.8954 280 82C280 83.1046 280.895 84 282 84Z" fill="#094067" fill-opacity="0.12"/>
<path d="M302 84C303.105 84 304 83.1046 304 82C304 80.8954 303.105 80 302 80C300.895 80 300 80.8954 300 82C300 83.1046 300.895 84 302 84Z" fill="#094067" fill-opacity="0.12"/>
<path d="M322 84C323.105 84 324 83.1046 324 82C324 80.8954 323.105 80 322 80C320.895 80 320 80.8954 320 82C320 83.1046 320.895 84 322 84Z" fill="#094067" fill-opacity="0.12"/>
<path d="M342 84C343.105 84 344 83.1046 344 82C344 80.8954 343.105 80 342 80C340.895 80 340 80.8954 340 82C340 83.1046 340.895 84 342 84Z" fill="#094067" fill-opacity="0.12"/>
<path d="M2 104C3.10457 104 4 103.105 4 102C4 100.895 3.10457 100 2 100C0.89543 100 0 100.895 0 102C0 103.105 0.89543 104 2 104Z" fill="#094067" fill-opacity="0.12"/>
<path d="M22 104C23.1046 104 24 103.105 24 102C24 100.895 23.1046 100 22 100C20.8954 100 20 100.895 20 102C20 103.105 20.8954 104 22 104Z" fill="#094067" fill-opacity="0.12"/>
<path d="M42 104C43.1046 104 44 103.105 44 102C44 100.895 43.1046 100 42 100C40.8954 100 40 100.895 40 102C40 103.105 40.8954 104 42 104Z" fill="#094067" fill-opacity="0.12"/>
<path d="M62 104C63.1046 104 64 103.105 64 102C64 100.895 63.1046 100 62 100C60.8954 100 60 100.895 60 102C60 103.105 60.8954 104 62 104Z" fill="#094067" fill-opacity="0.12"/>
<path d="M82 104C83.1046 104 84 103.105 84 102C84 100.895 83.1046 100 82 100C80.8954 100 80 100.895 80 102C80 103.105 80.8954 104 82 104Z" fill="#094067" fill-opacity="0.12"/>
<path d="M102 104C103.105 104 104 103.105 104 102C104 100.895 103.105 100 102 100C100.895 100 100 100.895 100 102C100 103.105 100.895 104 102 104Z" fill="#094067" fill-opacity="0.12"/>
<path d="M122 104C123.105 104 124 103.105 124 102C124 100.895 123.105 100 122 100C120.895 100 120 100.895 120 102C120 103.105 120.895 104 122 104Z" fill="#094067" fill-opacity="0.12"/>
<path d="M142 104C143.105 104 144 103.105 144 102C144 100.895 143.105 100 142 100C140.895 100 140 100.895 140 102C140 103.105 140.895 104 142 104Z" fill="#094067" fill-opacity="0.12"/>
<path d="M162 104C163.105 104 164 103.105 164 102C164 100.895 163.105 100 162 100C160.895 100 160 100.895 160 102C160 103.105 160.895 104 162 104Z" fill="#094067" fill-opacity="0.12"/>
<path d="M182 104C183.105 104 184 103.105 184 102C184 100.895 183.105 100 182 100C180.895 100 180 100.895 180 102C180 103.105 180.895 104 182 104Z" fill="#094067" fill-opacity="0.12"/>
<path d="M202 104C203.105 104 204 103.105 204 102C204 100.895 203.105 100 202 100C200.895 100 200 100.895 200 102C200 103.105 200.895 104 202 104Z" fill="#094067" fill-opacity="0.12"/>
<path d="M222 104C223.105 104 224 103.105 224 102C224 100.895 223.105 100 222 100C220.895 100 220 100.895 220 102C220 103.105 220.895 104 222 104Z" fill="#094067" fill-opacity="0.12"/>
<path d="M242 104C243.105 104 244 103.105 244 102C244 100.895 243.105 100 242 100C240.895 100 240 100.895 240 102C240 103.105 240.895 104 242 104Z" fill="#094067" fill-opacity="0.12"/>
<path d="M262 104C263.105 104 264 103.105 264 102C264 100.895 263.105 100 262 100C260.895 100 260 100.895 260 102C260 103.105 260.895 104 262 104Z" fill="#094067" fill-opacity="0.12"/>
<path d="M282 104C283.105 104 284 103.105 284 102C284 100.895 283.105 100 282 100C280.895 100 280 100.895 280 102C280 103.105 280.895 104 282 104Z" fill="#094067" fill-opacity="0.12"/>
<path d="M302 104C303.105 104 304 103.105 304 102C304 100.895 303.105 100 302 100C300.895 100 300 100.895 300 102C300 103.105 300.895 104 302 104Z" fill="#094067" fill-opacity="0.12"/>
<path d="M322 104C323.105 104 324 103.105 324 102C324 100.895 323.105 100 322 100C320.895 100 320 100.895 320 102C320 103.105 320.895 104 322 104Z" fill="#094067" fill-opacity="0.12"/>
<path d="M342 104C343.105 104 344 103.105 344 102C344 100.895 343.105 100 342 100C340.895 100 340 100.895 340 102C340 103.105 340.895 104 342 104Z" fill="#094067" fill-opacity="0.12"/>
<path d="M2 124C3.10457 124 4 123.105 4 122C4 120.895 3.10457 120 2 120C0.89543 120 0 120.895 0 122C0 123.105 0.89543 124 2 124Z" fill="#094067" fill-opacity="0.12"/>
<path d="M22 124C23.1046 124 24 123.105 24 122C24 120.895 23.1046 120 22 120C20.8954 120 20 120.895 20 122C20 123.105 20.8954 124 22 124Z" fill="#094067" fill-opacity="0.12"/>
<path d="M42 124C43.1046 124 44 123.105 44 122C44 120.895 43.1046 120 42 120C40.8954 120 40 120.895 40 122C40 123.105 40.8954 124 42 124Z" fill="#094067" fill-opacity="0.12"/>
<path d="M62 124C63.1046 124 64 123.105 64 122C64 120.895 63.1046 120 62 120C60.8954 120 60 120.895 60 122C60 123.105 60.8954 124 62 124Z" fill="#094067" fill-opacity="0.12"/>
<path d="M82 124C83.1046 124 84 123.105 84 122C84 120.895 83.1046 120 82 120C80.8954 120 80 120.895 80 122C80 123.105 80.8954 124 82 124Z" fill="#094067" fill-opacity="0.12"/>
<path d="M102 124C103.105 124 104 123.105 104 122C104 120.895 103.105 120 102 120C100.895 120 100 120.895 100 122C100 123.105 100.895 124 102 124Z" fill="#094067" fill-opacity="0.12"/>
<path d="M122 124C123.105 124 124 123.105 124 122C124 120.895 123.105 120 122 120C120.895 120 120 120.895 120 122C120 123.105 120.895 124 122 124Z" fill="#094067" fill-opacity="0.12"/>
<path d="M142 124C143.105 124 144 123.105 144 122C144 120.895 143.105 120 142 120C140.895 120 140 120.895 140 122C140 123.105 140.895 124 142 124Z" fill="#094067" fill-opacity="0.12"/>
<path d="M162 124C163.105 124 164 123.105 164 122C164 120.895 163.105 120 162 120C160.895 120 160 120.895 160 122C160 123.105 160.895 124 162 124Z" fill="#094067" fill-opacity="0.12"/>
<path d="M182 124C183.105 124 184 123.105 184 122C184 120.895 183.105 120 182 120C180.895 120 180 120.895 180 122C180 123.105 180.895 124 182 124Z" fill="#094067" fill-opacity="0.12"/>
<path d="M202 124C203.105 124 204 123.105 204 122C204 120.895 203.105 120 202 120C200.895 120 200 120.895 200 122C200 123.105 200.895 124 202 124Z" fill="#094067" fill-opacity="0.12"/>
<path d="M222 124C223.105 124 224 123.105 224 122C224 120.895 223.105 120 222 120C220.895 120 220 120.895 220 122C220 123.105 220.895 124 222 124Z" fill="#094067" fill-opacity="0.12"/>
<path d="M242 124C243.105 124 244 123.105 244 122C244 120.895 243.105 120 242 120C240.895 120 240 120.895 240 122C240 123.105 240.895 124 242 124Z" fill="#094067" fill-opacity="0.12"/>
<path d="M262 124C263.105 124 264 123.105 264 122C264 120.895 263.105 120 262 120C260.895 120 260 120.895 260 122C260 123.105 260.895 124 262 124Z" fill="#094067" fill-opacity="0.12"/>
<path d="M282 124C283.105 124 284 123.105 284 122C284 120.895 283.105 120 282 120C280.895 120 280 120.895 280 122C280 123.105 280.895 124 282 124Z" fill="#094067" fill-opacity="0.12"/>
<path d="M302 124C303.105 124 304 123.105 304 122C304 120.895 303.105 120 302 120C300.895 120 300 120.895 300 122C300 123.105 300.895 124 302 124Z" fill="#094067" fill-opacity="0.12"/>
<path d="M322 124C323.105 124 324 123.105 324 122C324 120.895 323.105 120 322 120C320.895 120 320 120.895 320 122C320 123.105 320.895 124 322 124Z" fill="#094067" fill-opacity="0.12"/>
<path d="M342 124C343.105 124 344 123.105 344 122C344 120.895 343.105 120 342 120C340.895 120 340 120.895 340 122C340 123.105 340.895 124 342 124Z" fill="#094067" fill-opacity="0.12"/>
<path d="M2 144C3.10457 144 4 143.105 4 142C4 140.895 3.10457 140 2 140C0.89543 140 0 140.895 0 142C0 143.105 0.89543 144 2 144Z" fill="#094067" fill-opacity="0.12"/>
<path d="M22 144C23.1046 144 24 143.105 24 142C24 140.895 23.1046 140 22 140C20.8954 140 20 140.895 20 142C20 143.105 20.8954 144 22 144Z" fill="#094067" fill-opacity="0.12"/>
<path d="M42 144C43.1046 144 44 143.105 44 142C44 140.895 43.1046 140 42 140C40.8954 140 40 140.895 40 142C40 143.105 40.8954 144 42 144Z" fill="#094067" fill-opacity="0.12"/>
<path d="M62 144C63.1046 144 64 143.105 64 142C64 140.895 63.1046 140 62 140C60.8954 140 60 140.895 60 142C60 143.105 60.8954 144 62 144Z" fill="#094067" fill-opacity="0.12"/>
<path d="M82 144C83.1046 144 84 143.105 84 142C84 140.895 83.1046 140 82 140C80.8954 140 80 140.895 80 142C80 143.105 80.8954 144 82 144Z" fill="#094067" fill-opacity="0.12"/>
<path d="M102 144C103.105 144 104 143.105 104 142C104 140.895 103.105 140 102 140C100.895 140 100 140.895 100 142C100 143.105 100.895 144 102 144Z" fill="#094067" fill-opacity="0.12"/>
<path d="M122 144C123.105 144 124 143.105 124 142C124 140.895 123.105 140 122 140C120.895 140 120 140.895 120 142C120 143.105 120.895 144 122 144Z" fill="#094067" fill-opacity="0.12"/>
<path d="M142 144C143.105 144 144 143.105 144 142C144 140.895 143.105 140 142 140C140.895 140 140 140.895 140 142C140 143.105 140.895 144 142 144Z" fill="#094067" fill-opacity="0.12"/>
<path d="M162 144C163.105 144 164 143.105 164 142C164 140.895 163.105 140 162 140C160.895 140 160 140.895 160 142C160 143.105 160.895 144 162 144Z" fill="#094067" fill-opacity="0.12"/>
<path d="M182 144C183.105 144 184 143.105 184 142C184 140.895 183.105 140 182 140C180.895 140 180 140.895 180 142C180 143.105 180.895 144 182 144Z" fill="#094067" fill-opacity="0.12"/>
<path d="M202 144C203.105 144 204 143.105 204 142C204 140.895 203.105 140 202 140C200.895 140 200 140.895 200 142C200 143.105 200.895 144 202 144Z" fill="#094067" fill-opacity="0.12"/>
<path d="M222 144C223.105 144 224 143.105 224 142C224 140.895 223.105 140 222 140C220.895 140 220 140.895 220 142C220 143.105 220.895 144 222 144Z" fill="#094067" fill-opacity="0.12"/>
<path d="M242 144C243.105 144 244 143.105 244 142C244 140.895 243.105 140 242 140C240.895 140 240 140.895 240 142C240 143.105 240.895 144 242 144Z" fill="#094067" fill-opacity="0.12"/>
<path d="M262 144C263.105 144 264 143.105 264 142C264 140.895 263.105 140 262 140C260.895 140 260 140.895 260 142C260 143.105 260.895 144 262 144Z" fill="#094067" fill-opacity="0.12"/>
<path d="M282 144C283.105 144 284 143.105 284 142C284 140.895 283.105 140 282 140C280.895 140 280 140.895 280 142C280 143.105 280.895 144 282 144Z" fill="#094067" fill-opacity="0.12"/>
<path d="M302 144C303.105 144 304 143.105 304 142C304 140.895 303.105 140 302 140C300.895 140 300 140.895 300 142C300 143.105 300.895 144 302 144Z" fill="#094067" fill-opacity="0.12"/>
<path d="M322 144C323.105 144 324 143.105 324 142C324 140.895 323.105 140 322 140C320.895 140 320 140.895 320 142C320 143.105 320.895 144 322 144Z" fill="#094067" fill-opacity="0.12"/>
<path d="M342 144C343.105 144 344 143.105 344 142C344 140.895 343.105 140 342 140C340.895 140 340 140.895 340 142C340 143.105 340.895 144 342 144Z" fill="#094067" fill-opacity="0.12"/>
<path d="M2 164C3.10457 164 4 163.105 4 162C4 160.895 3.10457 160 2 160C0.89543 160 0 160.895 0 162C0 163.105 0.89543 164 2 164Z" fill="#094067" fill-opacity="0.12"/>
<path d="M22 164C23.1046 164 24 163.105 24 162C24 160.895 23.1046 160 22 160C20.8954 160 20 160.895 20 162C20 163.105 20.8954 164 22 164Z" fill="#094067" fill-opacity="0.12"/>
<path d="M42 164C43.1046 164 44 163.105 44 162C44 160.895 43.1046 160 42 160C40.8954 160 40 160.895 40 162C40 163.105 40.8954 164 42 164Z" fill="#094067" fill-opacity="0.12"/>
<path d="M62 164C63.1046 164 64 163.105 64 162C64 160.895 63.1046 160 62 160C60.8954 160 60 160.895 60 162C60 163.105 60.8954 164 62 164Z" fill="#094067" fill-opacity="0.12"/>
<path d="M82 164C83.1046 164 84 163.105 84 162C84 160.895 83.1046 160 82 160C80.8954 160 80 160.895 80 162C80 163.105 80.8954 164 82 164Z" fill="#094067" fill-opacity="0.12"/>
<path d="M102 164C103.105 164 104 163.105 104 162C104 160.895 103.105 160 102 160C100.895 160 100 160.895 100 162C100 163.105 100.895 164 102 164Z" fill="#094067" fill-opacity="0.12"/>
<path d="M122 164C123.105 164 124 163.105 124 162C124 160.895 123.105 160 122 160C120.895 160 120 160.895 120 162C120 163.105 120.895 164 122 164Z" fill="#094067" fill-opacity="0.12"/>
<path d="M142 164C143.105 164 144 163.105 144 162C144 160.895 143.105 160 142 160C140.895 160 140 160.895 140 162C140 163.105 140.895 164 142 164Z" fill="#094067" fill-opacity="0.12"/>
<path d="M162 164C163.105 164 164 163.105 164 162C164 160.895 163.105 160 162 160C160.895 160 160 160.895 160 162C160 163.105 160.895 164 162 164Z" fill="#094067" fill-opacity="0.12"/>
<path d="M182 164C183.105 164 184 163.105 184 162C184 160.895 183.105 160 182 160C180.895 160 180 160.895 180 162C180 163.105 180.895 164 182 164Z" fill="#094067" fill-opacity="0.12"/>
<path d="M202 164C203.105 164 204 163.105 204 162C204 160.895 203.105 160 202 160C200.895 160 200 160.895 200 162C200 163.105 200.895 164 202 164Z" fill="#094067" fill-opacity="0.12"/>
<path d="M222 164C223.105 164 224 163.105 224 162C224 160.895 223.105 160 222 160C220.895 160 220 160.895 220 162C220 163.105 220.895 164 222 164Z" fill="#094067" fill-opacity="0.12"/>
<path d="M242 164C243.105 164 244 163.105 244 162C244 160.895 243.105 160 242 160C240.895 160 240 160.895 240 162C240 163.105 240.895 164 242 164Z" fill="#094067" fill-opacity="0.12"/>
<path d="M262 164C263.105 164 264 163.105 264 162C264 160.895 263.105 160 262 160C260.895 160 260 160.895 260 162C260 163.105 260.895 164 262 164Z" fill="#094067" fill-opacity="0.12"/>
<path d="M282 164C283.105 164 284 163.105 284 162C284 160.895 283.105 160 282 160C280.895 160 280 160.895 280 162C280 163.105 280.895 164 282 164Z" fill="#094067" fill-opacity="0.12"/>
<path d="M302 164C303.105 164 304 163.105 304 162C304 160.895 303.105 160 302 160C300.895 160 300 160.895 300 162C300 163.105 300.895 164 302 164Z" fill="#094067" fill-opacity="0.12"/>
<path d="M322 164C323.105 164 324 163.105 324 162C324 160.895 323.105 160 322 160C320.895 160 320 160.895 320 162C320 163.105 320.895 164 322 164Z" fill="#094067" fill-opacity="0.12"/>
<path d="M342 164C343.105 164 344 163.105 344 162C344 160.895 343.105 160 342 160C340.895 160 340 160.895 340 162C340 163.105 340.895 164 342 164Z" fill="#094067" fill-opacity="0.12"/>
<path d="M2 184C3.10457 184 4 183.105 4 182C4 180.895 3.10457 180 2 180C0.89543 180 0 180.895 0 182C0 183.105 0.89543 184 2 184Z" fill="#094067" fill-opacity="0.12"/>
<path d="M22 184C23.1046 184 24 183.105 24 182C24 180.895 23.1046 180 22 180C20.8954 180 20 180.895 20 182C20 183.105 20.8954 184 22 184Z" fill="#094067" fill-opacity="0.12"/>
<path d="M42 184C43.1046 184 44 183.105 44 182C44 180.895 43.1046 180 42 180C40.8954 180 40 180.895 40 182C40 183.105 40.8954 184 42 184Z" fill="#094067" fill-opacity="0.12"/>
<path d="M62 184C63.1046 184 64 183.105 64 182C64 180.895 63.1046 180 62 180C60.8954 180 60 180.895 60 182C60 183.105 60.8954 184 62 184Z" fill="#094067" fill-opacity="0.12"/>
<path d="M82 184C83.1046 184 84 183.105 84 182C84 180.895 83.1046 180 82 180C80.8954 180 80 180.895 80 182C80 183.105 80.8954 184 82 184Z" fill="#094067" fill-opacity="0.12"/>
<path d="M102 184C103.105 184 104 183.105 104 182C104 180.895 103.105 180 102 180C100.895 180 100 180.895 100 182C100 183.105 100.895 184 102 184Z" fill="#094067" fill-opacity="0.12"/>
<path d="M122 184C123.105 184 124 183.105 124 182C124 180.895 123.105 180 122 180C120.895 180 120 180.895 120 182C120 183.105 120.895 184 122 184Z" fill="#094067" fill-opacity="0.12"/>
<path d="M142 184C143.105 184 144 183.105 144 182C144 180.895 143.105 180 142 180C140.895 180 140 180.895 140 182C140 183.105 140.895 184 142 184Z" fill="#094067" fill-opacity="0.12"/>
<path d="M162 184C163.105 184 164 183.105 164 182C164 180.895 163.105 180 162 180C160.895 180 160 180.895 160 182C160 183.105 160.895 184 162 184Z" fill="#094067" fill-opacity="0.12"/>
<path d="M182 184C183.105 184 184 183.105 184 182C184 180.895 183.105 180 182 180C180.895 180 180 180.895 180 182C180 183.105 180.895 184 182 184Z" fill="#094067" fill-opacity="0.12"/>
<path d="M202 184C203.105 184 204 183.105 204 182C204 180.895 203.105 180 202 180C200.895 180 200 180.895 200 182C200 183.105 200.895 184 202 184Z" fill="#094067" fill-opacity="0.12"/>
<path d="M222 184C223.105 184 224 183.105 224 182C224 180.895 223.105 180 222 180C220.895 180 220 180.895 220 182C220 183.105 220.895 184 222 184Z" fill="#094067" fill-opacity="0.12"/>
<path d="M242 184C243.105 184 244 183.105 244 182C244 180.895 243.105 180 242 180C240.895 180 240 180.895 240 182C240 183.105 240.895 184 242 184Z" fill="#094067" fill-opacity="0.12"/>
<path d="M262 184C263.105 184 264 183.105 264 182C264 180.895 263.105 180 262 180C260.895 180 260 180.895 260 182C260 183.105 260.895 184 262 184Z" fill="#094067" fill-opacity="0.12"/>
<path d="M282 184C283.105 184 284 183.105 284 182C284 180.895 283.105 180 282 180C280.895 180 280 180.895 280 182C280 183.105 280.895 184 282 184Z" fill="#094067" fill-opacity="0.12"/>
<path d="M302 184C303.105 184 304 183.105 304 182C304 180.895 303.105 180 302 180C300.895 180 300 180.895 300 182C300 183.105 300.895 184 302 184Z" fill="#094067" fill-opacity="0.12"/>
<path d="M322 184C323.105 184 324 183.105 324 182C324 180.895 323.105 180 322 180C320.895 180 320 180.895 320 182C320 183.105 320.895 184 322 184Z" fill="#094067" fill-opacity="0.12"/>
<path d="M342 184C343.105 184 344 183.105 344 182C344 180.895 343.105 180 342 180C340.895 180 340 180.895 340 182C340 183.105 340.895 184 342 184Z" fill="#094067" fill-opacity="0.12"/>
<path d="M2 204C3.10457 204 4 203.105 4 202C4 200.895 3.10457 200 2 200C0.89543 200 0 200.895 0 202C0 203.105 0.89543 204 2 204Z" fill="#094067" fill-opacity="0.12"/>
<path d="M22 204C23.1046 204 24 203.105 24 202C24 200.895 23.1046 200 22 200C20.8954 200 20 200.895 20 202C20 203.105 20.8954 204 22 204Z" fill="#094067" fill-opacity="0.12"/>
<path d="M42 204C43.1046 204 44 203.105 44 202C44 200.895 43.1046 200 42 200C40.8954 200 40 200.895 40 202C40 203.105 40.8954 204 42 204Z" fill="#094067" fill-opacity="0.12"/>
<path d="M62 204C63.1046 204 64 203.105 64 202C64 200.895 63.1046 200 62 200C60.8954 200 60 200.895 60 202C60 203.105 60.8954 204 62 204Z" fill="#094067" fill-opacity="0.12"/>
<path d="M82 204C83.1046 204 84 203.105 84 202C84 200.895 83.1046 200 82 200C80.8954 200 80 200.895 80 202C80 203.105 80.8954 204 82 204Z" fill="#094067" fill-opacity="0.12"/>
<path d="M102 204C103.105 204 104 203.105 104 202C104 200.895 103.105 200 102 200C100.895 200 100 200.895 100 202C100 203.105 100.895 204 102 204Z" fill="#094067" fill-opacity="0.12"/>
<path d="M122 204C123.105 204 124 203.105 124 202C124 200.895 123.105 200 122 200C120.895 200 120 200.895 120 202C120 203.105 120.895 204 122 204Z" fill="#094067" fill-opacity="0.12"/>
<path d="M142 204C143.105 204 144 203.105 144 202C144 200.895 143.105 200 142 200C140.895 200 140 200.895 140 202C140 203.105 140.895 204 142 204Z" fill="#094067" fill-opacity="0.12"/>
<path d="M162 204C163.105 204 164 203.105 164 202C164 200.895 163.105 200 162 200C160.895 200 160 200.895 160 202C160 203.105 160.895 204 162 204Z" fill="#094067" fill-opacity="0.12"/>
<path d="M182 204C183.105 204 184 203.105 184 202C184 200.895 183.105 200 182 200C180.895 200 180 200.895 180 202C180 203.105 180.895 204 182 204Z" fill="#094067" fill-opacity="0.12"/>
<path d="M202 204C203.105 204 204 203.105 204 202C204 200.895 203.105 200 202 200C200.895 200 200 200.895 200 202C200 203.105 200.895 204 202 204Z" fill="#094067" fill-opacity="0.12"/>
<path d="M222 204C223.105 204 224 203.105 224 202C224 200.895 223.105 200 222 200C220.895 200 220 200.895 220 202C220 203.105 220.895 204 222 204Z" fill="#094067" fill-opacity="0.12"/>
<path d="M242 204C243.105 204 244 203.105 244 202C244 200.895 243.105 200 242 200C240.895 200 240 200.895 240 202C240 203.105 240.895 204 242 204Z" fill="#094067" fill-opacity="0.12"/>
<path d="M262 204C263.105 204 264 203.105 264 202C264 200.895 263.105 200 262 200C260.895 200 260 200.895 260 202C260 203.105 260.895 204 262 204Z" fill="#094067" fill-opacity="0.12"/>
<path d="M282 204C283.105 204 284 203.105 284 202C284 200.895 283.105 200 282 200C280.895 200 280 200.895 280 202C280 203.105 280.895 204 282 204Z" fill="#094067" fill-opacity="0.12"/>
<path d="M302 204C303.105 204 304 203.105 304 202C304 200.895 303.105 200 302 200C300.895 200 300 200.895 300 202C300 203.105 300.895 204 302 204Z" fill="#094067" fill-opacity="0.12"/>
<path d="M322 204C323.105 204 324 203.105 324 202C324 200.895 323.105 200 322 200C320.895 200 320 200.895 320 202C320 203.105 320.895 204 322 204Z" fill="#094067" fill-opacity="0.12"/>
<path d="M342 204C343.105 204 344 203.105 344 202C344 200.895 343.105 200 342 200C340.895 200 340 200.895 340 202C340 203.105 340.895 204 342 204Z" fill="#094067" fill-opacity="0.12"/>
<path d="M2 224C3.10457 224 4 223.105 4 222C4 220.895 3.10457 220 2 220C0.89543 220 0 220.895 0 222C0 223.105 0.89543 224 2 224Z" fill="#094067" fill-opacity="0.12"/>
<path d="M22 224C23.1046 224 24 223.105 24 222C24 220.895 23.1046 220 22 220C20.8954 220 20 220.895 20 222C20 223.105 20.8954 224 22 224Z" fill="#094067" fill-opacity="0.12"/>
<path d="M42 224C43.1046 224 44 223.105 44 222C44 220.895 43.1046 220 42 220C40.8954 220 40 220.895 40 222C40 223.105 40.8954 224 42 224Z" fill="#094067" fill-opacity="0.12"/>
<path d="M62 224C63.1046 224 64 223.105 64 222C64 220.895 63.1046 220 62 220C60.8954 220 60 220.895 60 222C60 223.105 60.8954 224 62 224Z" fill="#094067" fill-opacity="0.12"/>
<path d="M82 224C83.1046 224 84 223.105 84 222C84 220.895 83.1046 220 82 220C80.8954 220 80 220.895 80 222C80 223.105 80.8954 224 82 224Z" fill="#094067" fill-opacity="0.12"/>
<path d="M102 224C103.105 224 104 223.105 104 222C104 220.895 103.105 220 102 220C100.895 220 100 220.895 100 222C100 223.105 100.895 224 102 224Z" fill="#094067" fill-opacity="0.12"/>
<path d="M122 224C123.105 224 124 223.105 124 222C124 220.895 123.105 220 122 220C120.895 220 120 220.895 120 222C120 223.105 120.895 224 122 224Z" fill="#094067" fill-opacity="0.12"/>
<path d="M142 224C143.105 224 144 223.105 144 222C144 220.895 143.105 220 142 220C140.895 220 140 220.895 140 222C140 223.105 140.895 224 142 224Z" fill="#094067" fill-opacity="0.12"/>
<path d="M162 224C163.105 224 164 223.105 164 222C164 220.895 163.105 220 162 220C160.895 220 160 220.895 160 222C160 223.105 160.895 224 162 224Z" fill="#094067" fill-opacity="0.12"/>
<path d="M182 224C183.105 224 184 223.105 184 222C184 220.895 183.105 220 182 220C180.895 220 180 220.895 180 222C180 223.105 180.895 224 182 224Z" fill="#094067" fill-opacity="0.12"/>
<path d="M202 224C203.105 224 204 223.105 204 222C204 220.895 203.105 220 202 220C200.895 220 200 220.895 200 222C200 223.105 200.895 224 202 224Z" fill="#094067" fill-opacity="0.12"/>
<path d="M222 224C223.105 224 224 223.105 224 222C224 220.895 223.105 220 222 220C220.895 220 220 220.895 220 222C220 223.105 220.895 224 222 224Z" fill="#094067" fill-opacity="0.12"/>
<path d="M242 224C243.105 224 244 223.105 244 222C244 220.895 243.105 220 242 220C240.895 220 240 220.895 240 222C240 223.105 240.895 224 242 224Z" fill="#094067" fill-opacity="0.12"/>
<path d="M262 224C263.105 224 264 223.105 264 222C264 220.895 263.105 220 262 220C260.895 220 260 220.895 260 222C260 223.105 260.895 224 262 224Z" fill="#094067" fill-opacity="0.12"/>
<path d="M282 224C283.105 224 284 223.105 284 222C284 220.895 283.105 220 282 220C280.895 220 280 220.895 280 222C280 223.105 280.895 224 282 224Z" fill="#094067" fill-opacity="0.12"/>
<path d="M302 224C303.105 224 304 223.105 304 222C304 220.895 303.105 220 302 220C300.895 220 300 220.895 300 222C300 223.105 300.895 224 302 224Z" fill="#094067" fill-opacity="0.12"/>
<path d="M322 224C323.105 224 324 223.105 324 222C324 220.895 323.105 220 322 220C320.895 220 320 220.895 320 222C320 223.105 320.895 224 322 224Z" fill="#094067" fill-opacity="0.12"/>
<path d="M342 224C343.105 224 344 223.105 344 222C344 220.895 343.105 220 342 220C340.895 220 340 220.895 340 222C340 223.105 340.895 224 342 224Z" fill="#094067" fill-opacity="0.12"/>
<path d="M2 244C3.10457 244 4 243.105 4 242C4 240.895 3.10457 240 2 240C0.89543 240 0 240.895 0 242C0 243.105 0.89543 244 2 244Z" fill="#094067" fill-opacity="0.12"/>
<path d="M22 244C23.1046 244 24 243.105 24 242C24 240.895 23.1046 240 22 240C20.8954 240 20 240.895 20 242C20 243.105 20.8954 244 22 244Z" fill="#094067" fill-opacity="0.12"/>
<path d="M42 244C43.1046 244 44 243.105 44 242C44 240.895 43.1046 240 42 240C40.8954 240 40 240.895 40 242C40 243.105 40.8954 244 42 244Z" fill="#094067" fill-opacity="0.12"/>
<path d="M62 244C63.1046 244 64 243.105 64 242C64 240.895 63.1046 240 62 240C60.8954 240 60 240.895 60 242C60 243.105 60.8954 244 62 244Z" fill="#094067" fill-opacity="0.12"/>
<path d="M82 244C83.1046 244 84 243.105 84 242C84 240.895 83.1046 240 82 240C80.8954 240 80 240.895 80 242C80 243.105 80.8954 244 82 244Z" fill="#094067" fill-opacity="0.12"/>
<path d="M102 244C103.105 244 104 243.105 104 242C104 240.895 103.105 240 102 240C100.895 240 100 240.895 100 242C100 243.105 100.895 244 102 244Z" fill="#094067" fill-opacity="0.12"/>
<path d="M122 244C123.105 244 124 243.105 124 242C124 240.895 123.105 240 122 240C120.895 240 120 240.895 120 242C120 243.105 120.895 244 122 244Z" fill="#094067" fill-opacity="0.12"/>
<path d="M142 244C143.105 244 144 243.105 144 242C144 240.895 143.105 240 142 240C140.895 240 140 240.895 140 242C140 243.105 140.895 244 142 244Z" fill="#094067" fill-opacity="0.12"/>
<path d="M162 244C163.105 244 164 243.105 164 242C164 240.895 163.105 240 162 240C160.895 240 160 240.895 160 242C160 243.105 160.895 244 162 244Z" fill="#094067" fill-opacity="0.12"/>
<path d="M182 244C183.105 244 184 243.105 184 242C184 240.895 183.105 240 182 240C180.895 240 180 240.895 180 242C180 243.105 180.895 244 182 244Z" fill="#094067" fill-opacity="0.12"/>
<path d="M202 244C203.105 244 204 243.105 204 242C204 240.895 203.105 240 202 240C200.895 240 200 240.895 200 242C200 243.105 200.895 244 202 244Z" fill="#094067" fill-opacity="0.12"/>
<path d="M222 244C223.105 244 224 243.105 224 242C224 240.895 223.105 240 222 240C220.895 240 220 240.895 220 242C220 243.105 220.895 244 222 244Z" fill="#094067" fill-opacity="0.12"/>
<path d="M242 244C243.105 244 244 243.105 244 242C244 240.895 243.105 240 242 240C240.895 240 240 240.895 240 242C240 243.105 240.895 244 242 244Z" fill="#094067" fill-opacity="0.12"/>
<path d="M262 244C263.105 244 264 243.105 264 242C264 240.895 263.105 240 262 240C260.895 240 260 240.895 260 242C260 243.105 260.895 244 262 244Z" fill="#094067" fill-opacity="0.12"/>
<path d="M282 244C283.105 244 284 243.105 284 242C284 240.895 283.105 240 282 240C280.895 240 280 240.895 280 242C280 243.105 280.895 244 282 244Z" fill="#094067" fill-opacity="0.12"/>
<path d="M302 244C303.105 244 304 243.105 304 242C304 240.895 303.105 240 302 240C300.895 240 300 240.895 300 242C300 243.105 300.895 244 302 244Z" fill="#094067" fill-opacity="0.12"/>
<path d="M322 244C323.105 244 324 243.105 324 242C324 240.895 323.105 240 322 240C320.895 240 320 240.895 320 242C320 243.105 320.895 244 322 244Z" fill="#094067" fill-opacity="0.12"/>
<path d="M342 244C343.105 244 344 243.105 344 242C344 240.895 343.105 240 342 240C340.895 240 340 240.895 340 242C340 243.105 340.895 244 342 244Z" fill="#094067" fill-opacity="0.12"/>
<path d="M2 264C3.10457 264 4 263.105 4 262C4 260.895 3.10457 260 2 260C0.89543 260 0 260.895 0 262C0 263.105 0.89543 264 2 264Z" fill="#094067" fill-opacity="0.12"/>
<path d="M22 264C23.1046 264 24 263.105 24 262C24 260.895 23.1046 260 22 260C20.8954 260 20 260.895 20 262C20 263.105 20.8954 264 22 264Z" fill="#094067" fill-opacity="0.12"/>
<path d="M42 264C43.1046 264 44 263.105 44 262C44 260.895 43.1046 260 42 260C40.8954 260 40 260.895 40 262C40 263.105 40.8954 264 42 264Z" fill="#094067" fill-opacity="0.12"/>
<path d="M62 264C63.1046 264 64 263.105 64 262C64 260.895 63.1046 260 62 260C60.8954 260 60 260.895 60 262C60 263.105 60.8954 264 62 264Z" fill="#094067" fill-opacity="0.12"/>
<path d="M82 264C83.1046 264 84 263.105 84 262C84 260.895 83.1046 260 82 260C80.8954 260 80 260.895 80 262C80 263.105 80.8954 264 82 264Z" fill="#094067" fill-opacity="0.12"/>
<path d="M102 264C103.105 264 104 263.105 104 262C104 260.895 103.105 260 102 260C100.895 260 100 260.895 100 262C100 263.105 100.895 264 102 264Z" fill="#094067" fill-opacity="0.12"/>
<path d="M122 264C123.105 264 124 263.105 124 262C124 260.895 123.105 260 122 260C120.895 260 120 260.895 120 262C120 263.105 120.895 264 122 264Z" fill="#094067" fill-opacity="0.12"/>
<path d="M142 264C143.105 264 144 263.105 144 262C144 260.895 143.105 260 142 260C140.895 260 140 260.895 140 262C140 263.105 140.895 264 142 264Z" fill="#094067" fill-opacity="0.12"/>
<path d="M162 264C163.105 264 164 263.105 164 262C164 260.895 163.105 260 162 260C160.895 260 160 260.895 160 262C160 263.105 160.895 264 162 264Z" fill="#094067" fill-opacity="0.12"/>
<path d="M182 264C183.105 264 184 263.105 184 262C184 260.895 183.105 260 182 260C180.895 260 180 260.895 180 262C180 263.105 180.895 264 182 264Z" fill="#094067" fill-opacity="0.12"/>
<path d="M202 264C203.105 264 204 263.105 204 262C204 260.895 203.105 260 202 260C200.895 260 200 260.895 200 262C200 263.105 200.895 264 202 264Z" fill="#094067" fill-opacity="0.12"/>
<path d="M222 264C223.105 264 224 263.105 224 262C224 260.895 223.105 260 222 260C220.895 260 220 260.895 220 262C220 263.105 220.895 264 222 264Z" fill="#094067" fill-opacity="0.12"/>
<path d="M242 264C243.105 264 244 263.105 244 262C244 260.895 243.105 260 242 260C240.895 260 240 260.895 240 262C240 263.105 240.895 264 242 264Z" fill="#094067" fill-opacity="0.12"/>
<path d="M262 264C263.105 264 264 263.105 264 262C264 260.895 263.105 260 262 260C260.895 260 260 260.895 260 262C260 263.105 260.895 264 262 264Z" fill="#094067" fill-opacity="0.12"/>
<path d="M282 264C283.105 264 284 263.105 284 262C284 260.895 283.105 260 282 260C280.895 260 280 260.895 280 262C280 263.105 280.895 264 282 264Z" fill="#094067" fill-opacity="0.12"/>
<path d="M302 264C303.105 264 304 263.105 304 262C304 260.895 303.105 260 302 260C300.895 260 300 260.895 300 262C300 263.105 300.895 264 302 264Z" fill="#094067" fill-opacity="0.12"/>
<path d="M322 264C323.105 264 324 263.105 324 262C324 260.895 323.105 260 322 260C320.895 260 320 260.895 320 262C320 263.105 320.895 264 322 264Z" fill="#094067" fill-opacity="0.12"/>
<path d="M342 264C343.105 264 344 263.105 344 262C344 260.895 343.105 260 342 260C340.895 260 340 260.895 340 262C340 263.105 340.895 264 342 264Z" fill="#094067" fill-opacity="0.12"/>
<path d="M2 284C3.10457 284 4 283.105 4 282C4 280.895 3.10457 280 2 280C0.89543 280 0 280.895 0 282C0 283.105 0.89543 284 2 284Z" fill="#094067" fill-opacity="0.12"/>
<path d="M22 284C23.1046 284 24 283.105 24 282C24 280.895 23.1046 280 22 280C20.8954 280 20 280.895 20 282C20 283.105 20.8954 284 22 284Z" fill="#094067" fill-opacity="0.12"/>
<path d="M42 284C43.1046 284 44 283.105 44 282C44 280.895 43.1046 280 42 280C40.8954 280 40 280.895 40 282C40 283.105 40.8954 284 42 284Z" fill="#094067" fill-opacity="0.12"/>
<path d="M62 284C63.1046 284 64 283.105 64 282C64 280.895 63.1046 280 62 280C60.8954 280 60 280.895 60 282C60 283.105 60.8954 284 62 284Z" fill="#094067" fill-opacity="0.12"/>
<path d="M82 284C83.1046 284 84 283.105 84 282C84 280.895 83.1046 280 82 280C80.8954 280 80 280.895 80 282C80 283.105 80.8954 284 82 284Z" fill="#094067" fill-opacity="0.12"/>
<path d="M102 284C103.105 284 104 283.105 104 282C104 280.895 103.105 280 102 280C100.895 280 100 280.895 100 282C100 283.105 100.895 284 102 284Z" fill="#094067" fill-opacity="0.12"/>
<path d="M122 284C123.105 284 124 283.105 124 282C124 280.895 123.105 280 122 280C120.895 280 120 280.895 120 282C120 283.105 120.895 284 122 284Z" fill="#094067" fill-opacity="0.12"/>
<path d="M142 284C143.105 284 144 283.105 144 282C144 280.895 143.105 280 142 280C140.895 280 140 280.895 140 282C140 283.105 140.895 284 142 284Z" fill="#094067" fill-opacity="0.12"/>
<path d="M162 284C163.105 284 164 283.105 164 282C164 280.895 163.105 280 162 280C160.895 280 160 280.895 160 282C160 283.105 160.895 284 162 284Z" fill="#094067" fill-opacity="0.12"/>
<path d="M182 284C183.105 284 184 283.105 184 282C184 280.895 183.105 280 182 280C180.895 280 180 280.895 180 282C180 283.105 180.895 284 182 284Z" fill="#094067" fill-opacity="0.12"/>
<path d="M202 284C203.105 284 204 283.105 204 282C204 280.895 203.105 280 202 280C200.895 280 200 280.895 200 282C200 283.105 200.895 284 202 284Z" fill="#094067" fill-opacity="0.12"/>
<path d="M222 284C223.105 284 224 283.105 224 282C224 280.895 223.105 280 222 280C220.895 280 220 280.895 220 282C220 283.105 220.895 284 222 284Z" fill="#094067" fill-opacity="0.12"/>
<path d="M242 284C243.105 284 244 283.105 244 282C244 280.895 243.105 280 242 280C240.895 280 240 280.895 240 282C240 283.105 240.895 284 242 284Z" fill="#094067" fill-opacity="0.12"/>
<path d="M262 284C263.105 284 264 283.105 264 282C264 280.895 263.105 280 262 280C260.895 280 260 280.895 260 282C260 283.105 260.895 284 262 284Z" fill="#094067" fill-opacity="0.12"/>
<path d="M282 284C283.105 284 284 283.105 284 282C284 280.895 283.105 280 282 280C280.895 280 280 280.895 280 282C280 283.105 280.895 284 282 284Z" fill="#094067" fill-opacity="0.12"/>
<path d="M302 284C303.105 284 304 283.105 304 282C304 280.895 303.105 280 302 280C300.895 280 300 280.895 300 282C300 283.105 300.895 284 302 284Z" fill="#094067" fill-opacity="0.12"/>
<path d="M322 284C323.105 284 324 283.105 324 282C324 280.895 323.105 280 322 280C320.895 280 320 280.895 320 282C320 283.105 320.895 284 322 284Z" fill="#094067" fill-opacity="0.12"/>
<path d="M342 284C343.105 284 344 283.105 344 282C344 280.895 343.105 280 342 280C340.895 280 340 280.895 340 282C340 283.105 340.895 284 342 284Z" fill="#094067" fill-opacity="0.12"/>
<path d="M2 304C3.10457 304 4 303.105 4 302C4 300.895 3.10457 300 2 300C0.89543 300 0 300.895 0 302C0 303.105 0.89543 304 2 304Z" fill="#094067" fill-opacity="0.12"/>
<path d="M22 304C23.1046 304 24 303.105 24 302C24 300.895 23.1046 300 22 300C20.8954 300 20 300.895 20 302C20 303.105 20.8954 304 22 304Z" fill="#094067" fill-opacity="0.12"/>
<path d="M42 304C43.1046 304 44 303.105 44 302C44 300.895 43.1046 300 42 300C40.8954 300 40 300.895 40 302C40 303.105 40.8954 304 42 304Z" fill="#094067" fill-opacity="0.12"/>
<path d="M62 304C63.1046 304 64 303.105 64 302C64 300.895 63.1046 300 62 300C60.8954 300 60 300.895 60 302C60 303.105 60.8954 304 62 304Z" fill="#094067" fill-opacity="0.12"/>
<path d="M82 304C83.1046 304 84 303.105 84 302C84 300.895 83.1046 300 82 300C80.8954 300 80 300.895 80 302C80 303.105 80.8954 304 82 304Z" fill="#094067" fill-opacity="0.12"/>
<path d="M102 304C103.105 304 104 303.105 104 302C104 300.895 103.105 300 102 300C100.895 300 100 300.895 100 302C100 303.105 100.895 304 102 304Z" fill="#094067" fill-opacity="0.12"/>
<path d="M122 304C123.105 304 124 303.105 124 302C124 300.895 123.105 300 122 300C120.895 300 120 300.895 120 302C120 303.105 120.895 304 122 304Z" fill="#094067" fill-opacity="0.12"/>
<path d="M142 304C143.105 304 144 303.105 144 302C144 300.895 143.105 300 142 300C140.895 300 140 300.895 140 302C140 303.105 140.895 304 142 304Z" fill="#094067" fill-opacity="0.12"/>
<path d="M162 304C163.105 304 164 303.105 164 302C164 300.895 163.105 300 162 300C160.895 300 160 300.895 160 302C160 303.105 160.895 304 162 304Z" fill="#094067" fill-opacity="0.12"/>
<path d="M182 304C183.105 304 184 303.105 184 302C184 300.895 183.105 300 182 300C180.895 300 180 300.895 180 302C180 303.105 180.895 304 182 304Z" fill="#094067" fill-opacity="0.12"/>
<path d="M202 304C203.105 304 204 303.105 204 302C204 300.895 203.105 300 202 300C200.895 300 200 300.895 200 302C200 303.105 200.895 304 202 304Z" fill="#094067" fill-opacity="0.12"/>
<path d="M222 304C223.105 304 224 303.105 224 302C224 300.895 223.105 300 222 300C220.895 300 220 300.895 220 302C220 303.105 220.895 304 222 304Z" fill="#094067" fill-opacity="0.12"/>
<path d="M242 304C243.105 304 244 303.105 244 302C244 300.895 243.105 300 242 300C240.895 300 240 300.895 240 302C240 303.105 240.895 304 242 304Z" fill="#094067" fill-opacity="0.12"/>
<path d="M262 304C263.105 304 264 303.105 264 302C264 300.895 263.105 300 262 300C260.895 300 260 300.895 260 302C260 303.105 260.895 304 262 304Z" fill="#094067" fill-opacity="0.12"/>
<path d="M282 304C283.105 304 284 303.105 284 302C284 300.895 283.105 300 282 300C280.895 300 280 300.895 280 302C280 303.105 280.895 304 282 304Z" fill="#094067" fill-opacity="0.12"/>
<path d="M302 304C303.105 304 304 303.105 304 302C304 300.895 303.105 300 302 300C300.895 300 300 300.895 300 302C300 303.105 300.895 304 302 304Z" fill="#094067" fill-opacity="0.12"/>
<path d="M322 304C323.105 304 324 303.105 324 302C324 300.895 323.105 300 322 300C320.895 300 320 300.895 320 302C320 303.105 320.895 304 322 304Z" fill="#094067" fill-opacity="0.12"/>
<path d="M342 304C343.105 304 344 303.105 344 302C344 300.895 343.105 300 342 300C340.895 300 340 300.895 340 302C340 303.105 340.895 304 342 304Z" fill="#094067" fill-opacity="0.12"/>
<path d="M2 324C3.10457 324 4 323.105 4 322C4 320.895 3.10457 320 2 320C0.89543 320 0 320.895 0 322C0 323.105 0.89543 324 2 324Z" fill="#094067" fill-opacity="0.12"/>
<path d="M22 324C23.1046 324 24 323.105 24 322C24 320.895 23.1046 320 22 320C20.8954 320 20 320.895 20 322C20 323.105 20.8954 324 22 324Z" fill="#094067" fill-opacity="0.12"/>
<path d="M42 324C43.1046 324 44 323.105 44 322C44 320.895 43.1046 320 42 320C40.8954 320 40 320.895 40 322C40 323.105 40.8954 324 42 324Z" fill="#094067" fill-opacity="0.12"/>
<path d="M62 324C63.1046 324 64 323.105 64 322C64 320.895 63.1046 320 62 320C60.8954 320 60 320.895 60 322C60 323.105 60.8954 324 62 324Z" fill="#094067" fill-opacity="0.12"/>
<path d="M82 324C83.1046 324 84 323.105 84 322C84 320.895 83.1046 320 82 320C80.8954 320 80 320.895 80 322C80 323.105 80.8954 324 82 324Z" fill="#094067" fill-opacity="0.12"/>
<path d="M102 324C103.105 324 104 323.105 104 322C104 320.895 103.105 320 102 320C100.895 320 100 320.895 100 322C100 323.105 100.895 324 102 324Z" fill="#094067" fill-opacity="0.12"/>
<path d="M122 324C123.105 324 124 323.105 124 322C124 320.895 123.105 320 122 320C120.895 320 120 320.895 120 322C120 323.105 120.895 324 122 324Z" fill="#094067" fill-opacity="0.12"/>
<path d="M142 324C143.105 324 144 323.105 144 322C144 320.895 143.105 320 142 320C140.895 320 140 320.895 140 322C140 323.105 140.895 324 142 324Z" fill="#094067" fill-opacity="0.12"/>
<path d="M162 324C163.105 324 164 323.105 164 322C164 320.895 163.105 320 162 320C160.895 320 160 320.895 160 322C160 323.105 160.895 324 162 324Z" fill="#094067" fill-opacity="0.12"/>
<path d="M182 324C183.105 324 184 323.105 184 322C184 320.895 183.105 320 182 320C180.895 320 180 320.895 180 322C180 323.105 180.895 324 182 324Z" fill="#094067" fill-opacity="0.12"/>
<path d="M202 324C203.105 324 204 323.105 204 322C204 320.895 203.105 320 202 320C200.895 320 200 320.895 200 322C200 323.105 200.895 324 202 324Z" fill="#094067" fill-opacity="0.12"/>
<path d="M222 324C223.105 324 224 323.105 224 322C224 320.895 223.105 320 222 320C220.895 320 220 320.895 220 322C220 323.105 220.895 324 222 324Z" fill="#094067" fill-opacity="0.12"/>
<path d="M242 324C243.105 324 244 323.105 244 322C244 320.895 243.105 320 242 320C240.895 320 240 320.895 240 322C240 323.105 240.895 324 242 324Z" fill="#094067" fill-opacity="0.12"/>
<path d="M262 324C263.105 324 264 323.105 264 322C264 320.895 263.105 320 262 320C260.895 320 260 320.895 260 322C260 323.105 260.895 324 262 324Z" fill="#094067" fill-opacity="0.12"/>
<path d="M282 324C283.105 324 284 323.105 284 322C284 320.895 283.105 320 282 320C280.895 320 280 320.895 280 322C280 323.105 280.895 324 282 324Z" fill="#094067" fill-opacity="0.12"/>
<path d="M302 324C303.105 324 304 323.105 304 322C304 320.895 303.105 320 302 320C300.895 320 300 320.895 300 322C300 323.105 300.895 324 302 324Z" fill="#094067" fill-opacity="0.12"/>
<path d="M322 324C323.105 324 324 323.105 324 322C324 320.895 323.105 320 322 320C320.895 320 320 320.895 320 322C320 323.105 320.895 324 322 324Z" fill="#094067" fill-opacity="0.12"/>
<path d="M342 324C343.105 324 344 323.105 344 322C344 320.895 343.105 320 342 320C340.895 320 340 320.895 340 322C340 323.105 340.895 324 342 324Z" fill="#094067" fill-opacity="0.12"/>
<path d="M2 344C3.10457 344 4 343.105 4 342C4 340.895 3.10457 340 2 340C0.89543 340 0 340.895 0 342C0 343.105 0.89543 344 2 344Z" fill="#094067" fill-opacity="0.12"/>
<path d="M22 344C23.1046 344 24 343.105 24 342C24 340.895 23.1046 340 22 340C20.8954 340 20 340.895 20 342C20 343.105 20.8954 344 22 344Z" fill="#094067" fill-opacity="0.12"/>
<path d="M42 344C43.1046 344 44 343.105 44 342C44 340.895 43.1046 340 42 340C40.8954 340 40 340.895 40 342C40 343.105 40.8954 344 42 344Z" fill="#094067" fill-opacity="0.12"/>
<path d="M62 344C63.1046 344 64 343.105 64 342C64 340.895 63.1046 340 62 340C60.8954 340 60 340.895 60 342C60 343.105 60.8954 344 62 344Z" fill="#094067" fill-opacity="0.12"/>
<path d="M82 344C83.1046 344 84 343.105 84 342C84 340.895 83.1046 340 82 340C80.8954 340 80 340.895 80 342C80 343.105 80.8954 344 82 344Z" fill="#094067" fill-opacity="0.12"/>
<path d="M102 344C103.105 344 104 343.105 104 342C104 340.895 103.105 340 102 340C100.895 340 100 340.895 100 342C100 343.105 100.895 344 102 344Z" fill="#094067" fill-opacity="0.12"/>
<path d="M122 344C123.105 344 124 343.105 124 342C124 340.895 123.105 340 122 340C120.895 340 120 340.895 120 342C120 343.105 120.895 344 122 344Z" fill="#094067" fill-opacity="0.12"/>
<path d="M142 344C143.105 344 144 343.105 144 342C144 340.895 143.105 340 142 340C140.895 340 140 340.895 140 342C140 343.105 140.895 344 142 344Z" fill="#094067" fill-opacity="0.12"/>
<path d="M162 344C163.105 344 164 343.105 164 342C164 340.895 163.105 340 162 340C160.895 340 160 340.895 160 342C160 343.105 160.895 344 162 344Z" fill="#094067" fill-opacity="0.12"/>
<path d="M182 344C183.105 344 184 343.105 184 342C184 340.895 183.105 340 182 340C180.895 340 180 340.895 180 342C180 343.105 180.895 344 182 344Z" fill="#094067" fill-opacity="0.12"/>
<path d="M202 344C203.105 344 204 343.105 204 342C204 340.895 203.105 340 202 340C200.895 340 200 340.895 200 342C200 343.105 200.895 344 202 344Z" fill="#094067" fill-opacity="0.12"/>
<path d="M222 344C223.105 344 224 343.105 224 342C224 340.895 223.105 340 222 340C220.895 340 220 340.895 220 342C220 343.105 220.895 344 222 344Z" fill="#094067" fill-opacity="0.12"/>
<path d="M242 344C243.105 344 244 343.105 244 342C244 340.895 243.105 340 242 340C240.895 340 240 340.895 240 342C240 343.105 240.895 344 242 344Z" fill="#094067" fill-opacity="0.12"/>
<path d="M262 344C263.105 344 264 343.105 264 342C264 340.895 263.105 340 262 340C260.895 340 260 340.895 260 342C260 343.105 260.895 344 262 344Z" fill="#094067" fill-opacity="0.12"/>
<path d="M282 344C283.105 344 284 343.105 284 342C284 340.895 283.105 340 282 340C280.895 340 280 340.895 280 342C280 343.105 280.895 344 282 344Z" fill="#094067" fill-opacity="0.12"/>
<path d="M302 344C303.105 344 304 343.105 304 342C304 340.895 303.105 340 302 340C300.895 340 300 340.895 300 342C300 343.105 300.895 344 302 344Z" fill="#094067" fill-opacity="0.12"/>
<path d="M322 344C323.105 344 324 343.105 324 342C324 340.895 323.105 340 322 340C320.895 340 320 340.895 320 342C320 343.105 320.895 344 322 344Z" fill="#094067" fill-opacity="0.12"/>
<path d="M342 344C343.105 344 344 343.105 344 342C344 340.895 343.105 340 342 340C340.895 340 340 340.895 340 342C340 343.105 340.895 344 342 344Z" fill="#094067" fill-opacity="0.12"/>
</svg>
