<svg xmlns="http://www.w3.org/2000/svg" width="498" height="370" fill="none"><g clip-path="url(#a)"><path fill="#E4DFD6" d="M184.5 369C286.397 369 369 286.397 369 184.5S286.397 0 184.5 0 0 82.603 0 184.5 82.603 369 184.5 369Z"/><path fill="#000" fill-rule="evenodd" d="M233.318 160.119c3.72 2.567 45.57-.69 50.09-2.513 1.116-.46 1.358-2.938 1.506-4.195 1.86-17.134-1.86-85.934-5.319-90.058-2.139-2.53-15.661 3.01-27.156 17.506-14.452 18.284-19.716 41.842-20.609 64.888a46.166 46.166 0 0 0 .986 13.735c.085.261.262.486.502.637Zm.13-14.319c.837-22.674 5.934-46.162 19.902-64.287 11.551-14.956 24.18-19.47 25.724-17.7 3.478 4.09 6.547 86.518 3.553 92.448-5.246 1.911-44.027 4.46-48.36 2.655a45.532 45.532 0 0 1-.819-13.116Zm46.147 107.687a.913.913 0 0 0 .353-.567c.93-4.336-.335-33.488-2.436-35.984a1.038 1.038 0 0 0-.744-.389c-4.818-.283-37.572 2.549-42.39 2.973-1.86.16-.335 30.267 2.325 35.896.133.232.352.409.614.496 3.162 1.203 39.748-.266 42.278-2.425Zm-41.72.973c-2.176-5.31-4.241-28.497-3.199-34.32 4.687-.283 36.939-2.301 41.664-2.142 1.655 4.638 2.827 29.966 2.009 34.462 0-.124 0-.248.148-.159.782.956-29.76 3.097-39.06 2.513h-1.246c-.316 0-.186-.035-.316-.354Zm44.361 21.86c-.205-.638-.521-1.381-1.228-1.416-4.836-.284-37.572 2.531-42.408 2.956-1.86.159-.353 30.267 2.325 35.895.06.119.146.225.252.31a.998.998 0 0 0 .362.186c3.144 1.186 39.73-.248 42.278-2.407a1.07 1.07 0 0 0 .353-.567c.949-4.46-.279-29.63-1.934-34.957Zm.484 34.32c.744.938-29.5 3.115-39.06 2.513h-1.079c-.316 0-.428-.106-.577-.478-2.139-5.628-4.148-28.408-3.106-34.161 4.855-.3 36.921-2.301 41.664-2.124 1.655 4.638 2.809 29.967 1.972 34.445.055-.142.111-.266.186-.195Z" clip-rule="evenodd"/><path fill="#000" fill-rule="evenodd" d="M497.159 315.029c-.26-1.451-2.548-2.743-4.018-3.539-3.496-1.771-8.853-3.859-12.778-5.452.726-1.221 4.092-6.815 3.999-8.036 0-.956-1.153-1.876-1.86-2.496-9.3-7.08-52.545-24.072-57.269-26.78 1.395-6.566 2.567-13.682 3.534-20.85 2.697-.868 5.729-2.16 8.63-3.186 4.204-.673 12.704-3.363 15.122-3.93a42.324 42.324 0 0 0 9.877-4.318c7.589-4.29 14.269-9.891 19.697-16.515 2.009-2.318 7.44-4 4.985-10.213-1.265-3.239-4.408-6.336-5.747-8.849-.949-1.771-2.009-3.771-3.2-5.771a3.002 3.002 0 0 0 1.058-1.434c.196-.567.21-1.177.04-1.752-.67-1.876-16.74-19.328-24.18-20.125a16.593 16.593 0 0 0-5.748 1.77c-.781-2.053-1.562-3.876-1.971-4.655-2.53-4.673-5.153-9.381-7.998-13.912 2.269-.142 6.9-.496 8.779-1.664 1.339-.832 1.135-1.77.558-3.752 1.172-.372 2.046-.743 2.53-.938 6.193-2.46 8.035-12.39 8.704-18.656.596-5.593 3.59-50.71 3.72-51.064 1.86-1.948 4.501-7.594 5.859-9.736.39-.739.618-1.546.67-2.371a1.456 1.456 0 0 0-.167-.857 1.557 1.557 0 0 0-.633-.63c-1.86-.85-3.515.354-4.836 1.77.402-1.26.565-2.58.484-3.894-.168-1.204-1.023-2.16-2.176-1.77a5.953 5.953 0 0 0-1.656 1.009 7.167 7.167 0 0 0-1.358 1.61c0-1.08 0-2.478-.948-2.955a1.95 1.95 0 0 0-.976-.083 1.901 1.901 0 0 0-.884.401 11.773 11.773 0 0 0-1.86 1.876c-1.619 1.77-2.307 5.31-2.846 6.673-1.86-.708-5.19-1.858-5.859 0-1.042 3.027 4.148 3.788 3.887 5.31-1.264 7.399-7.44 18.868-11.606 34.462-2.585 9.682-1.246 8.85-2.53 6.39-.911-1.77-18.972-3.699-21.055-3.894a.538.538 0 0 0 0-.478 7.998 7.998 0 0 0-4.576-1.469 8.718 8.718 0 0 0-4.743 1.646c-.204 0-17.446 1.522-26.318 4.868a.482.482 0 0 0-.205.123c-.744 0-1.525.177-2.288.284l.149-5.753c2.939-1.345 5.84-3.027 6.51-6.089.58-2.881.866-5.81.856-8.743 3.72-.655 5.58-3.894 3.05-8.479a5.966 5.966 0 0 0-1.333-2.52 6.375 6.375 0 0 0-2.387-1.675 4.839 4.839 0 0 0 1.287-2.983 4.785 4.785 0 0 0-.915-3.105 3.9 3.9 0 0 0 .474-3.05 4.09 4.09 0 0 0-1.906-2.49 4.988 4.988 0 0 0-1.563-.532c-.13 0-.669.124-1.004.124a4.039 4.039 0 0 0-.651-2.584 4.174 4.174 0 0 0-1.39-1.42 4.437 4.437 0 0 0-1.921-.65h-.669a1.01 1.01 0 0 0-.279-.62 6.115 6.115 0 0 0-1.377-1.062 6.27 6.27 0 0 0-3.311-.62 1.369 1.369 0 0 0-.781.354c-1.097-1.77-5.096-1.38-6.919-.3a2.341 2.341 0 0 0-.279-.32 3.892 3.892 0 0 0-1.918-.274 3.83 3.83 0 0 0-1.802.682c-.42.311-.806.66-1.153 1.044a5.332 5.332 0 0 0-3.777.306c-1.171.56-2.07 1.529-2.51 2.703a2.83 2.83 0 0 0-1.187-.022 2.762 2.762 0 0 0-1.082.465c-.552.32-1.08.675-1.581 1.062-.3.283-.533.623-.684.999-.15.375-.215.777-.19 1.178a5.265 5.265 0 0 0-2.845.65 4.914 4.914 0 0 0-1.991 2.04 2.003 2.003 0 0 0-.186.85c0 1.221.167.637-.8 1.009-3.618-8.137-8.502-15.71-14.49-22.462-17.484-19.24-36.325-17.647-38.055-18.124a56.912 56.912 0 0 0-24.738-.974 89.005 89.005 0 0 0-10.491-1.947c-37.311-4.726-66.383 9.806-83.681 46.232-19.735 41.454-18.73 99.758-16.015 129.387.354 3.859 11.16 109.174 12.072 113.103.111.514.297.868 1.451 1.257 5.97 2 34 1.115 40.473.92 1.191 15.93 1.098 15.293 1.228 15.47a62.974 62.974 0 0 0 13.652 1.77c.8-.106 75.405-12.691 108.587-18.408.8 2.584 6.789 21.789 8.779 23.683.204.185.465.302.744.336a33.834 33.834 0 0 0 7.44-.885c.651 2.036 1.284 4.23 1.86 6.408-.576.424.8.318-8.742 6.159a49.584 49.584 0 0 0-6.119 4.107 8.898 8.898 0 0 0-2.028 3.54c-.13.436-.079.904.142 1.305.222.402.597.708 1.049.854 4.334 1.381 34.149-8.496 37.07-11.31 1.078-1.062.799-3.54.576-5.151a107.472 107.472 0 0 0-2.529-11.169c1.488-.425 8.109-2.318 9.3-3.292 1.674-1.416-.633-10.62-1.172-12.779-3.999-15.364-13.653-39.259-14.88-45.896 1.079-2.231 11.16-19.364 12.89-22.125 0-.177-.131-17.807 0-20.603 0-1.168.186-5.682.204-6.691a.297.297 0 0 1-.001-.142.294.294 0 0 1 .064-.13.34.34 0 0 1 .263-.121.352.352 0 0 1 .263.121.31.31 0 0 1 .062.272c.897 8.434 1.04 16.925.428 25.382 0 9.54-.279 36.958 5.822 44.533 6.101 7.576 76.557 34.887 79.552 33.453 1.265-.602 5.915-7.575 6.863-8.991a94.428 94.428 0 0 1 11.83 4.053.547.547 0 0 0 0 .248c.967 2.283-.726 14.16-.26 17.222a9.322 9.322 0 0 0 1.859 3.681 1.88 1.88 0 0 0 1.187.666c.471.069.952-.036 1.343-.294 3.608-2.442 13.001-31.134 12.369-35.011Zm-194.593-8.531c-2.306-5.416-2.716-26.904-1.972-32.391 1.507-.212 9.728-1.345 18.321-2.46.763 9.894 4.13 23.948 6.678 33.63-5.227.584-16.368 1.77-21.353 1.664h-1.135c-.353 0-.334.035-.539-.443Zm-4.129-89.367c6.138-.832 31.88-4.354 38.074-4.744a53.392 53.392 0 0 0-.744 3.168 17.402 17.402 0 0 0-.912 2.178c-.353 1.911 1.861 1.77 4 1.663 0 .549.167 1.116.241 1.77a240.394 240.394 0 0 0-14.88 27.081c-5.319.62-17 1.77-22.208 1.77h-1.339c-1.935-.123-3.218-25.328-2.232-32.886Zm46.5-35.188a57.029 57.029 0 0 0-.986-6.814c0-.177-2.027-9.257-2.083-9.434-.186-.779-1.172-4.195-1.711-4.107-.54.089 0 3.54.13 4.585.372 1.893.948 4.124 1.358 5.699-2.456 1.204-13.802 10.284-20.144 12.39a32.56 32.56 0 0 1-4.948 1.876c-.204 0-.707-1.381-.781-1.575a63.029 63.029 0 0 0-2.92-8.709c-1.581-3.858-8.724-18.018-7.663-20.673 1.488-1.115 7.254-4.248 8.909-5.151 15.159-8.23 14.322-7.08 15.345-8.425a46.162 46.162 0 0 1 2.585-4.337c4.967-4.779 11.049-10.478 18.061-12.903-2.66 4.691-9.598 16.638-9.97 17.311a.613.613 0 0 0 .022.638.692.692 0 0 0 .592.3c.688 0 5.134-.443 5.952-.531-4.799 4.814-6.51 6.124-6.156 7.168a214.504 214.504 0 0 0 11.364 21.86c2.009 7.345 8.779 17.523 6.901 24.585a82.568 82.568 0 0 1-5.989 16.266c-.651 1.239-.93 4.355-1.712 5.186a43.248 43.248 0 0 1-7.867.567c-1.377 0-5.394.354-6.696.177.167-.513.725-1.416.837-1.965 2.269-10.62 4.687-10.779 8.388-21.24 1.023-3.026-.707-9.54-.707-12.708l-.111-.036Zm-106.634 5.576c-.335-.142-.353 0 0-.177 2.864-.921 7.235-2.868 9.449-.921 1.209 1.062-2.307 3.717-3.199 5.664-1.419-2.205-3.645-3.831-6.25-4.566Zm-3.236.194c.453.155.943.186 1.413.089a7.497 7.497 0 0 1 1.581.301c12.183 5.186 3.218 17.027-5.859 14.903-5.412-1.239-8.76-7.381-5.84-11.558a10.294 10.294 0 0 1 3.872-2.881 10.805 10.805 0 0 1 4.833-.854Zm13.261-1.947c-3.031-2.548-8.5.549-11.513 1.31a13.665 13.665 0 0 0-1.86-.212c-1.283-.903-1.544-2.549.614-3.7a59.912 59.912 0 0 1 10.379-3.947 19.18 19.18 0 0 1 10.304.85.594.594 0 0 0 .465 0c28.83-13.541 38.669-18.125 47.411-21.771 1.6 6.691 7.664 17.275 9.189 22.798-18.433 3.787-59.762 6.779-60.915 9.027-1.153 2.247-3.72 4.761-6.231 3.752-3.274-1.327 4.892-5.735 2.157-8.107Zm58.088-32.957a17.555 17.555 0 0 1-4.371-.319c0-8.85-9.132-84.8-5.319-88.5 1.041-.99 4.185-.106 5.58.407 4.687 1.77 11.439 6.32 18.283 15.17 8.854 11.469 14.88 26.213 18.6 40.037a75.075 75.075 0 0 1 1.451 8.956 76.717 76.717 0 0 0-9.3 7.93c-1.283 1.203-2.269 4.548-3.534 5.133-4.557 2.194-16.405 8.248-21.39 11.186Zm45.682-45.418c.214.446.56.823.996 1.084.437.261.944.395 1.459.385l1.525 12.726-3.98 1.328a99.528 99.528 0 0 0-1.86-15.93c.556.325 1.21.468 1.86.407Zm42.259 6.602c-4.594 6.673-10.397 19.983-10.416 21.24 0 1.77 5.022.69 9.17.761-1.972 4.354-9.709 18.443-12.239 23.01 0-7.983-.205-9.328-.186-12.39 0-6.443.949-8.248 1.395-15.664a28.744 28.744 0 0 0-1.767-13.222 62.355 62.355 0 0 1 14.043-3.717v-.018Zm-34.894 84.96a119.37 119.37 0 0 0 24.645-3.062c.426 2.624.65 5.274.67 7.929a87.84 87.84 0 0 0-27.472 1.877 120.662 120.662 0 0 0 2.157-6.709v-.035Zm1.079-7.487a34.302 34.302 0 0 0-2.678-9.187c7.105-.477 15.773-1.416 22.952-2.407.391 2.832.893 5.647 1.507 8.479a229.544 229.544 0 0 1-21.781 3.15v-.035Zm-11.439-50.321a.696.696 0 0 0-.25-.535.77.77 0 0 0-.587-.173s-4.334.602-6.454.814c1.283-2.443 8.277-15.452 9.3-17.24 1.86-.655 1.135-.407 5.133-1.611a180.278 180.278 0 0 0-5.617 24.196 60.437 60.437 0 0 0-.186 18.798c-1.86-3.54-7.012-12.78-8.351-16.39 1.823-2.408 7.031-6.638 7.012-7.824v-.035Zm-1.469-.177v.194s-.075-.141 0-.141v-.053Zm4.613 24.78c8.053-.655 18.339-1.947 27.063-3.434a.724.724 0 0 0 .167.248c0 3.009.205 5.982.446 8.956-6.937.832-18.432 2.089-25.649 2.531a30.958 30.958 0 0 1-1.116-3.257c.242-.566-.205-.708-.911-4.991v-.053Zm26.858-11.417c-16.74 2.744-24.068 3.894-27.565 4.266a58.851 58.851 0 0 1 .409-10.018c14.062-1.204 11.16-.814 27.119-2.974-.019.266 0 5.558.037 8.709v.017Zm42.78 57.401c.446-.407.186-.973 0-1.77 3.98 7.912 5.58 16.691 7.254 17.258a4.979 4.979 0 0 0 2.027 0c1.135 2.973 5.041 12.938 5.58 15.93-4.984 1.77-11.253 4.69-14.322 4.071-2.622-4.478-6.305-28.161-7.161-33.506a.886.886 0 0 0 .465-.124c2.865-1.275 3.255.938 6.194-1.876l-.037.017Zm62.924-2.69c3.273 6.124-1.86 7.222-4.111 9.912-5.302 6.475-11.824 11.955-19.232 16.16a41.448 41.448 0 0 1-9.449 4.195c-2.046.496-9.207 2.743-13.578 3.735a140.265 140.265 0 0 0-5.748-16.037A58.018 58.018 0 0 0 444 222.335a9.05 9.05 0 0 0 1.172 2.513c.15.211.342.392.565.532a2.098 2.098 0 0 0 1.531.278c.262-.052.511-.153.731-.297a17.37 17.37 0 0 0 2.902-2.407c.874-.956.837-1.292-.763-4.319 5.394-3.54 10.379-7.699 15.383-11.77a8.94 8.94 0 0 0 2.38 2.885 2.09 2.09 0 0 0 2.53-.354 16.572 16.572 0 0 0 2.232-2.974c.595-1.097.465-1.486-1.711-3.947a54.082 54.082 0 0 0 5.933-6.142 73.74 73.74 0 0 1 2.864 5.31c1.172 2.089 3.646 4.655 5.097 7.381l-.037.018Zm-35.154 12.39c.13.336.26.195-.149.602a20.624 20.624 0 0 1-2.102 1.77c-1.358.885-.632 0-5.115-7.576a17.645 17.645 0 0 1 4.167-1.097c.557.867 2.752 4.973 3.236 6.283l-.037.018Zm21.613-15.93a20.122 20.122 0 0 1-1.767 2.602c-.949.991-1.005.177-4.055-3.363-2.306-2.708-2.102-2.213-1.86-2.46a13.734 13.734 0 0 1 2.92-2.39c.651.637 4.129 4.513 4.799 5.593l-.037.018Zm-16.48-32.232c6.733.744 22.32 17.913 22.804 19.116.483 1.204-1.042 1.77-1.73 2.691a54.562 54.562 0 0 1-5.933 6.177 20.6 20.6 0 0 0-2.79-2.567c-.837-.424-1.712.407-2.437 1.169a16.76 16.76 0 0 0-1.86 2.46c0 .248-.186 0 1.86 3.186-4.91 4.018-9.914 8.177-15.215 11.753a22.16 22.16 0 0 0-2.064-3.062c-.689-.585-2.065 0-3.255.442-.851.371-1.677.79-2.474 1.257-.298.265-.205 0 1.86 5.044-2.437 1.346-11.327 5.682-13.764 5.098-1.47-2.124-4.222-12.726-8.296-18.886-.576-3.062-1.469-7.664-2.455-12.779 10.621-9.523 32.494-21.488 35.749-21.099Zm-13.838 4.602c-3.72 2.195-7.868 4.761-11.625 7.363-5.078-17.841-4.334-16.956-11.29-31.346 3.125.604 6.298.959 9.486 1.062a129.16 129.16 0 0 1 13.392 22.921h.037Zm10.732-102.341c.502-2.815-4.464-3.434-3.887-5.133.353-.142 1.078-.177 3.961.903.521.194.986.389 1.395 0 .8-.744 1.507-5.31 3.107-7.08a7.725 7.725 0 0 1 1.692-1.77 15.961 15.961 0 0 1-.948 5.964 6.61 6.61 0 0 0-.633 1.611.789.789 0 0 0 .194.65c.079.09.178.162.289.211a.89.89 0 0 0 .354.077c.614 0 .8-.495.986-1.009.186-.513.205-.584.316-.956a21.801 21.801 0 0 1 3.534-5.469c.186-.141.949-1.062 1.061-.69h-.205c.353.177.316 1.168.279 1.54a27.271 27.271 0 0 1-1.86 6.354.775.775 0 0 0-.028.54.821.821 0 0 0 .334.439.89.89 0 0 0 1.07-.076c1.079-1.027 3.813-5.54 5.58-4.956a3.868 3.868 0 0 1-.428 1.664c-1.264 2-4.24 8.142-5.784 9.61a1.53 1.53 0 0 0-.298.78c0 .53-1.86 28.497-2.343 34.214-.856 9.628.446 31.028-8.724 34.851a28.29 28.29 0 0 1-2.399.956c-2.083-6.992-8.24-23.01-10.974-29.63 3.441-18.443 12.797-34.94 14.359-43.595Zm-16.74 41.223c1.283 2.744 11.923 30.639 12.425 35.028-.13.301-1.265.673-1.618.762-6.789 1.893-28.049.849-28.867-.815a.82.82 0 0 0-.356-.341.863.863 0 0 0-.956.119.797.797 0 0 0-.251.417 1.063 1.063 0 0 0 .298.973c7.905 16.231 6.807 14.762 12.145 33.347a101.01 101.01 0 0 0-9.058 7.204c-3.72-19.275-9.3-47.453-9.579-49.56-.874-8.85-1.079-23.895 4.911-30.762 4.259.442 17.149 2.071 20.98 3.628h-.074Zm-20.739-4.726c-7.012 6.089-7.068 23.01-6.324 32.002.353 4.212 12.016 63.844 12.518 66.835-1.209 1.062-1.563.796-2.381.726a4.951 4.951 0 0 0-2.474.389c-3.311-6.885-15.791-69.667-14.545-80.075.707-5.858 2.493-14.319 5.357-19.558a6.954 6.954 0 0 1 3.907-1.383 7.008 7.008 0 0 1 4.016 1.064h-.074Zm-9.039.779a64.491 64.491 0 0 0-5.339 18.974c-1.432 10.62 7.738 56.64 11.421 71.473a111.396 111.396 0 0 0-17.019 7.292c-2.195 1.257-5.822 5.027-7.868 5.47-.595-.637-.168-4.124-.168-4.673 0-4.036.094-7.735-.204-11.47-.781-9.452-4.594-14.337-5.357-37.364.298-.319 12.146-21.807 13.987-26.338.204-.358.251-.778.13-1.168-.279-.531-.967-.513-1.636-.513-1.86 0-6.306.477-7.775.318a121.892 121.892 0 0 1 9.69-20.691c11.402-1.416 8.464-1.186 10.212-1.31h-.074Zm-26.04 4.921c1.655 5.982 2.399 7.717.595 20.585-3.516.814-7.031 1.628-10.918 2.212-3.051.478-13.671 1.876-15.885 1.77 1.693-10.62 1.86-9.77 3.832-18.443 1.99 5.628 5.896 12.585 12.127 13.293 6.231.708 9.449-3.328 10.211-9.098.298-2.337-1.357-7.841-2.064-10.072l2.102-.247Zm3.124-12.656c-.595 2.514-3.292 3.947-5.747 5.009-.484.213-.893.407-.911.903a61.256 61.256 0 0 0-.205 6.921c.651 1.964 2.418 7.929 2.139 9.982-.632 4.797-3.311 8.284-8.389 7.7-5.896-.673-9.876-8.691-11.346-14.16 0-.673-1.599-12.85-1.618-13.01.389-.242.677-.607.813-1.031a1.804 1.804 0 0 0-.069-1.287 5.04 5.04 0 0 1-.39-.991c0-.514-.41-2.301-.596-3.045-.186-.743-.372-.761-.632-.867-3.72-1.416-5.692-4.284-4.018-8.054.227-.373.558-.68.956-.888a2.575 2.575 0 0 1 2.569.114c.376.242.675.577.865.969a8.51 8.51 0 0 0 1.488 2.62c.911.902 1.86.371 2.251-.673.39-1.044-.168-2 .334-5.416.261-1.77.651-3.31.986-4.992.13-.584-.446-2.938-.149-3.133 1.414-.92 2.437.178 3.869 1.063 2.139 1.327 4.501 2.548 6.975 1.77a15.975 15.975 0 0 0 7.328-3.664 19.031 19.031 0 0 0 2.512 2.548c.297.195.26.124.297.248-3.497.637-4.166 3.186-3.478 6.496-1.079.213-2.492.92-3.311 1.133a6.823 6.823 0 0 0-2.455-3.115 6.806 6.806 0 0 0-3.392-1.547 6.97 6.97 0 0 0-3.732.45c-2.753.92-5.58 5.31-3.72 9.929a5.91 5.91 0 0 0 1.272 2.121 6.28 6.28 0 0 0 2.056 1.461 6.582 6.582 0 0 0 5.024.117 8.612 8.612 0 0 0 2.993-1.493 8.146 8.146 0 0 0 2.14-2.49 6.372 6.372 0 0 0 .149-4.106c.316 0 .837 0 1.302-.124a19.49 19.49 0 0 0 1.283 3.54c.112.248.819 1.877.651 2.054a5.922 5.922 0 0 1-1.078.85c-.242.123-.484.14-.484.406 0 .708 1.86.107 2.455-.3.595-.408.781-1.452.484-2.39a14.225 14.225 0 0 0-2.381-4.39l1.06-.53c.763 2.159 2.455 4.62 4.818 4.938a43.363 43.363 0 0 1-.968 8.354Zm-8.518-8.85c-1.507 2.885-6.938 4.938-9.635 2.354a5.253 5.253 0 0 1-1.153-1.77 6.38 6.38 0 0 1 .279-5.681 4.977 4.977 0 0 1 2.418-2.55 6.089 6.089 0 0 1 6.268.46 6.873 6.873 0 0 1 1.939 3.312 6.64 6.64 0 0 1-.172 3.787l.056.088Zm13.187-7.752c1.265 3.15.837 6.053-2.604 6.708-3.441.655-6.733-8.16-3.478-9.54 2.883-1.434 4.538-.036 6.026 2.743l.056.088Zm-6.994-16.638s.149 0 .186.141c.038.142-.26-.141-.241-.23l.055.089Zm-16.572-6.408s-.186 0-.298-.124c.223-.16.447-.177.242.036l.056.088ZM166.842 322.375c-.986-3.947-11.607-110.714-11.83-113.032-2.622-29.382-3.59-87.438 15.996-128.502 16.294-34.338 42.985-48.764 77.692-45.843a94.7 94.7 0 0 1 7.905.991c-57.808 1.38-78.771 55.631-84.127 110.784a360.037 360.037 0 0 0 0 65.596c.762 8.319 11.16 106.82 11.959 111.51-2.362-.053-15.512-.176-17.595-1.504Zm18.265 1.487c-1.99-13.151-10.286-99.12-11.365-111.51-3.534-39.931-1.097-92.571 16.127-128.697 12.257-25.736 32.568-44.852 65.676-46.02-55.986 16.072-59.687 97.81-57.79 153.3.279 7.381 6.789 95.58 9.56 132.75-8.332.124-15.903.23-22.227.177h.019Zm36.828 17.611c-1.079-13.806-9.691-139.653-9.97-148.786-2.027-63.065 4.018-148.397 70.122-153.99 27.807-2.372 46.221 15.222 57.381 39.683a7.25 7.25 0 0 0-1.618 5.31c.152.446.429.844.8 1.151a4.394 4.394 0 0 0-1.097 1.93c-.004.86.22 1.706.653 2.461a5.208 5.208 0 0 0 1.82 1.857c-.13.23-.223.407-.26.496-.949 3.133 0 4.354 1.86 5.31a4.585 4.585 0 0 0 .286 3.209 4.918 4.918 0 0 0 2.355 2.313c.482.117.974.194 1.47.23a5.405 5.405 0 0 0 0 1.345c.26 1.027 1.302 1.346 2.399 1.452a102.394 102.394 0 0 1 2.232 18.107 32.406 32.406 0 0 0-8.351 4.124 74.918 74.918 0 0 0-1.414-8.284c-3.943-14.16-9.951-28.727-19.177-40.32-10.881-13.682-22.654-17.86-25.258-15.381-4.539 4.318 4.445 83.367 4.24 89.084 0 1.362 2.251 1.504 3.72 1.575a3.394 3.394 0 0 0-.39 2.372c-15.847 6.619-47.244 22.125-47.43 22.231a19.905 19.905 0 0 0-10.751-.62 59.916 59.916 0 0 0-10.472 4.178c-2.232 1.256-2.399 3.026-1.227 4.336-6.343 0-11.384 4.284-9.858 10.266a10.165 10.165 0 0 0 2.439 4.366 10.884 10.884 0 0 0 4.293 2.785c1.647.583 3.419.777 5.162.564a11.185 11.185 0 0 0 4.846-1.785 9.48 9.48 0 0 0 3.547-3.584 8.905 8.905 0 0 0 1.121-4.806c3.051 1.628 6.38-1.027 8.017-3.93 2.585-1.079 28.086-3.54 42.166-5.31 6.901-.885 13.336-1.77 18.116-2.796a11.9 11.9 0 0 0 1.972 4.726c1.172 1.133 4.966-1.098 6.529-1.611 6.268-2.018 16.74-10.231 19.883-12.107a62.74 62.74 0 0 1 1.358 8.355c0 3.009 1.674 9.699.837 12.106-2.809 8.001-5.58 11.045-7.254 16.851-6.64.425-32.42 4.584-38.837 5.646a.324.324 0 0 0-.188.086.298.298 0 0 0-.091.18c-1.004 5.699-1.135 28.939 1.581 33.877.372.691 1.86.673 3.106.673 4.167 0 12.909-.637 21.074-1.54a58.969 58.969 0 0 0-4.669 15.063 33.48 33.48 0 0 0 0 5.717c-9.523 1.451-18.6 2.938-18.6 2.938a.353.353 0 0 0-.171.097.327.327 0 0 0-.089.169c-1.004 5.717-1.153 28.939 1.562 33.895.14.226.367.391.633.46 2.66.85 21.036-1.062 23.845-1.363a498.118 498.118 0 0 0 4.52 15.789c-33.685 5.841-106.392 18.408-108.773 18.85Zm146.122.372c.483 2.23 1.023 4.62 1.45 6.868l-18.786 4.177a86.878 86.878 0 0 0-2.027-6.284c5.896-1.186 13.466-3.079 19.363-4.761Zm101.016-17.948c3.46-5.186 7.682-11.77 10.844-17.098 2.641 1.186 5.803 2.531 8.63 3.859l-7.719 16.85a94.628 94.628 0 0 0-11.755-3.611Z" clip-rule="evenodd"/><path fill="#000" fill-rule="evenodd" d="M369.823 93.62a.864.864 0 0 0-.009-.494.915.915 0 0 0-.275-.418.984.984 0 0 0-.463-.222 1.017 1.017 0 0 0-.518.037c-.911.336-.502 1.31-.539 2.265a.87.87 0 0 0 .259.649.936.936 0 0 0 .671.272.973.973 0 0 0 .64-.252.886.886 0 0 0 .29-.598c0-.354-.037-.85-.056-1.239Zm12.574-3.788a.872.872 0 0 0-.358-.592.962.962 0 0 0-.693-.178.975.975 0 0 0-.347.112.918.918 0 0 0-.438.541.85.85 0 0 0-.024.347c.067.468.173.93.316 1.381a.868.868 0 0 0 .159.339c.078.1.177.185.291.246a.966.966 0 0 0 1.094-.122.889.889 0 0 0 .223-.304.844.844 0 0 0-.019-.725 8.448 8.448 0 0 1-.204-1.045Zm-6.529 14.302c-.186 0-1.86-.62-2.027-.389-.168.23.167 1.557 1.525 1.911 1.358.354 2.437-.46 2.381-.761-.056-.301-.037-.248-1.879-.761Zm52.694-43.808c1.6-2.85 8.147-6.566 10.081-6.796a.344.344 0 0 0 .237-.094.31.31 0 0 0 0-.45.344.344 0 0 0-.237-.094c-3.255-.513-9.783 2.797-10.732 7.222a.312.312 0 0 0 .016.25.344.344 0 0 0 .198.166.36.36 0 0 0 .263-.016.334.334 0 0 0 .174-.188Zm10.1 2.443a7.938 7.938 0 0 0-3.023 1.635 7.461 7.461 0 0 0-1.981 2.72 10.266 10.266 0 0 0-.632 6.371c.018.07.059.132.118.176a.346.346 0 0 0 .415 0 .319.319 0 0 0 .118-.176c.186-1.168.558-2.549.632-2.867a10.618 10.618 0 0 1 2.828-5.717c1.692-1.77 2.232-1.593 1.99-2.036a.357.357 0 0 0-.211-.14.37.37 0 0 0-.254.034Z" clip-rule="evenodd"/></g><defs><clipPath id="a"><path fill="#fff" d="M0 0h498v370H0z"/></clipPath></defs></svg>