<svg xmlns="http://www.w3.org/2000/svg" width="387" height="279" fill="none"><path fill="#fff" d="M127.7 265.6c0-36.2 29.4-65.6 65.6-65.6 36.2 0 65.6 29.4 65.6 65.6h127.7v-32.3C386.6 126.5 300.1 40 193.3 40 86.5 40 0 126.5 0 233.3v32.3h127.7Z"/><path fill="#000" d="M366.429 128.056c-9.969 67.861-90.444 128.24-117.187 146.61-2.453 1.449-5.263 2.014-8.007 1.611-2.743-.403-5.271-1.752-7.204-3.845-20.331-25.286-80.041-106.258-70.072-174.119 4.236-28.838 18.965-54.927 40.945-72.529C226.885 8.182 254.317.51 281.166 4.454c26.85 3.943 50.916 19.181 66.906 42.361 15.99 23.18 22.593 52.403 18.357 81.241Z"/><path fill="#000" d="M259.204 153.958c20.967 3.08 40.645-12.678 43.953-35.197 3.308-22.519-11.007-43.271-31.973-46.351-20.967-3.08-40.645 12.678-43.953 35.197-3.308 22.519 11.007 43.271 31.973 46.351Z"/><path stroke="#000" stroke-linecap="round" stroke-linejoin="round" stroke-width="2" d="M366.429 128.056c-9.969 67.861-90.444 128.24-117.187 146.61-2.453 1.449-5.263 2.014-8.007 1.611-2.743-.403-5.271-1.752-7.204-3.845-20.331-25.286-80.041-106.258-70.072-174.119 4.236-28.838 18.965-54.927 40.945-72.529C226.885 8.182 254.317.51 281.166 4.454c26.85 3.943 50.916 19.181 66.906 42.361 15.99 23.18 22.593 52.403 18.357 81.241Z"/><path stroke="#000" stroke-linecap="round" stroke-linejoin="round" stroke-width="2" d="M259.204 153.958c20.967 3.08 40.645-12.678 43.953-35.197 3.308-22.519-11.007-43.271-31.973-46.351-20.967-3.08-40.645 12.678-43.953 35.197-3.308 22.519 11.007 43.271 31.973 46.351Z"/><path fill="#fff" d="M355.429 128.056c-9.969 67.861-90.444 128.24-117.187 146.61-2.453 1.449-5.263 2.014-8.007 1.611-2.743-.403-5.271-1.752-7.204-3.845-20.331-25.286-80.041-106.258-70.072-174.119 4.236-28.838 18.965-54.927 40.945-72.529C215.885 8.182 243.317.51 270.166 4.454c26.85 3.943 50.916 19.181 66.906 42.361 15.99 23.18 22.593 52.403 18.357 81.241Z"/><path fill="#fff" d="M248.204 153.958c20.967 3.08 40.645-12.678 43.953-35.197 3.308-22.519-11.007-43.271-31.973-46.351-20.967-3.08-40.645 12.678-43.953 35.197-3.308 22.519 11.007 43.271 31.973 46.351Z"/><path stroke="#000" stroke-linecap="round" stroke-linejoin="round" stroke-width="2" d="M355.429 128.056c-9.969 67.861-90.444 128.24-117.187 146.61-2.453 1.449-5.263 2.014-8.007 1.611-2.743-.403-5.271-1.752-7.204-3.845-20.331-25.286-80.041-106.258-70.072-174.119 4.236-28.838 18.965-54.927 40.945-72.529C215.885 8.182 243.317.51 270.166 4.454c26.85 3.943 50.916 19.181 66.906 42.361 15.99 23.18 22.593 52.403 18.357 81.241Z"/><path stroke="#000" stroke-linecap="round" stroke-linejoin="round" stroke-width="2" d="M248.204 153.958c20.967 3.08 40.645-12.678 43.953-35.197 3.308-22.519-11.007-43.271-31.973-46.351-20.967-3.08-40.645 12.678-43.953 35.197-3.308 22.519 11.007 43.271 31.973 46.351Z"/></svg>